<?xml version="1.0" encoding="utf-8" standalone="no"?>
<!DOCTYPE svg PUBLIC "-//W3C//DTD SVG 1.1//EN"
  "http://www.w3.org/Graphics/SVG/1.1/DTD/svg11.dtd">
<svg height="432pt" version="1.1" viewBox="0 0 432 432" width="432pt" xmlns="http://www.w3.org/2000/svg" xmlns:xlink="http://www.w3.org/1999/xlink">
 <metadata>
  <rdf:RDF xmlns:cc="http://creativecommons.org/ns#" xmlns:dc="http://purl.org/dc/elements/1.1/" xmlns:rdf="http://www.w3.org/1999/02/22-rdf-syntax-ns#">
   <cc:Work>
    <dc:type rdf:resource="http://purl.org/dc/dcmitype/StillImage"/>
    <dc:date>2025-03-30T22:45:52.079044</dc:date>
    <dc:format>image/svg+xml</dc:format>
    <dc:creator>
     <cc:Agent>
      <dc:title>Matplotlib v3.4.2, https://matplotlib.org/</dc:title>
     </cc:Agent>
    </dc:creator>
   </cc:Work>
  </rdf:RDF>
 </metadata>
 <defs>
  <style type="text/css">*{stroke-linecap:butt;stroke-linejoin:round;}</style>
 </defs>
 <g id="figure_1">
  <g id="patch_1">
   <path d="M 0 432 
L 432 432 
L 432 0 
L 0 0 
z
" style="fill:#ffffff;"/>
  </g>
  <g id="axes_1">
   <g id="patch_2">
    <path d="M 47.72 390.04 
L 421.2 390.04 
L 421.2 26.88 
L 47.72 26.88 
z
" style="fill:#ffffff;"/>
   </g>
   <g id="PathCollection_1">
    <defs>
     <path d="M 0 3 
C 0.795609 3 1.55874 2.683901 2.12132 2.12132 
C 2.683901 1.55874 3 0.795609 3 0 
C 3 -0.795609 2.683901 -1.55874 2.12132 -2.12132 
C 1.55874 -2.683901 0.795609 -3 0 -3 
C -0.795609 -3 -1.55874 -2.683901 -2.12132 -2.12132 
C -2.683901 -1.55874 -3 -0.795609 -3 0 
C -3 0.795609 -2.683901 1.55874 -2.12132 2.12132 
C -1.55874 2.683901 -0.795609 3 0 3 
z
" id="mb5f43fb5a5" style="stroke:#1f77b4;stroke-opacity:0.5;"/>
    </defs>
    <g clip-path="url(#p318170cd83)">
     <use style="fill:#1f77b4;fill-opacity:0.5;stroke:#1f77b4;stroke-opacity:0.5;" x="78.468883" xlink:href="#mb5f43fb5a5" y="322.313777"/>
     <use style="fill:#1f77b4;fill-opacity:0.5;stroke:#1f77b4;stroke-opacity:0.5;" x="79.314176" xlink:href="#mb5f43fb5a5" y="288.151746"/>
     <use style="fill:#1f77b4;fill-opacity:0.5;stroke:#1f77b4;stroke-opacity:0.5;" x="97.451922" xlink:href="#mb5f43fb5a5" y="316.616115"/>
     <use style="fill:#1f77b4;fill-opacity:0.5;stroke:#1f77b4;stroke-opacity:0.5;" x="127.360516" xlink:href="#mb5f43fb5a5" y="253.645254"/>
     <use style="fill:#1f77b4;fill-opacity:0.5;stroke:#1f77b4;stroke-opacity:0.5;" x="178.635629" xlink:href="#mb5f43fb5a5" y="267.232069"/>
     <use style="fill:#1f77b4;fill-opacity:0.5;stroke:#1f77b4;stroke-opacity:0.5;" x="178.375152" xlink:href="#mb5f43fb5a5" y="255.044631"/>
     <use style="fill:#1f77b4;fill-opacity:0.5;stroke:#1f77b4;stroke-opacity:0.5;" x="120.698427" xlink:href="#mb5f43fb5a5" y="358.261463"/>
     <use style="fill:#1f77b4;fill-opacity:0.5;stroke:#1f77b4;stroke-opacity:0.5;" x="93.471441" xlink:href="#mb5f43fb5a5" y="363.874934"/>
     <use style="fill:#1f77b4;fill-opacity:0.5;stroke:#1f77b4;stroke-opacity:0.5;" x="98.338005" xlink:href="#mb5f43fb5a5" y="256.430082"/>
     <use style="fill:#1f77b4;fill-opacity:0.5;stroke:#1f77b4;stroke-opacity:0.5;" x="116.799142" xlink:href="#mb5f43fb5a5" y="283.397436"/>
     <use style="fill:#1f77b4;fill-opacity:0.5;stroke:#1f77b4;stroke-opacity:0.5;" x="101.625955" xlink:href="#mb5f43fb5a5" y="332.158377"/>
     <use style="fill:#1f77b4;fill-opacity:0.5;stroke:#1f77b4;stroke-opacity:0.5;" x="124.785622" xlink:href="#mb5f43fb5a5" y="338.05379"/>
     <use style="fill:#1f77b4;fill-opacity:0.5;stroke:#1f77b4;stroke-opacity:0.5;" x="81.947985" xlink:href="#mb5f43fb5a5" y="353.789151"/>
     <use style="fill:#1f77b4;fill-opacity:0.5;stroke:#1f77b4;stroke-opacity:0.5;" x="64.696364" xlink:href="#mb5f43fb5a5" y="356.252505"/>
     <use style="fill:#1f77b4;fill-opacity:0.5;stroke:#1f77b4;stroke-opacity:0.5;" x="84.744792" xlink:href="#mb5f43fb5a5" y="336.199872"/>
     <use style="fill:#1f77b4;fill-opacity:0.5;stroke:#1f77b4;stroke-opacity:0.5;" x="92.902323" xlink:href="#mb5f43fb5a5" y="358.160489"/>
     <use style="fill:#1f77b4;fill-opacity:0.5;stroke:#1f77b4;stroke-opacity:0.5;" x="84.007082" xlink:href="#mb5f43fb5a5" y="326.456069"/>
     <use style="fill:#1f77b4;fill-opacity:0.5;stroke:#1f77b4;stroke-opacity:0.5;" x="78.839572" xlink:href="#mb5f43fb5a5" y="335.127005"/>
     <use style="fill:#1f77b4;fill-opacity:0.5;stroke:#1f77b4;stroke-opacity:0.5;" x="146.183253" xlink:href="#mb5f43fb5a5" y="317.04425"/>
     <use style="fill:#1f77b4;fill-opacity:0.5;stroke:#1f77b4;stroke-opacity:0.5;" x="159.316323" xlink:href="#mb5f43fb5a5" y="227.39516"/>
     <use style="fill:#1f77b4;fill-opacity:0.5;stroke:#1f77b4;stroke-opacity:0.5;" x="310.605688" xlink:href="#mb5f43fb5a5" y="157.10252"/>
     <use style="fill:#1f77b4;fill-opacity:0.5;stroke:#1f77b4;stroke-opacity:0.5;" x="238.380322" xlink:href="#mb5f43fb5a5" y="143.251193"/>
     <use style="fill:#1f77b4;fill-opacity:0.5;stroke:#1f77b4;stroke-opacity:0.5;" x="269.615714" xlink:href="#mb5f43fb5a5" y="133.762079"/>
     <use style="fill:#1f77b4;fill-opacity:0.5;stroke:#1f77b4;stroke-opacity:0.5;" x="312.482858" xlink:href="#mb5f43fb5a5" y="126.256061"/>
     <use style="fill:#1f77b4;fill-opacity:0.5;stroke:#1f77b4;stroke-opacity:0.5;" x="233.540612" xlink:href="#mb5f43fb5a5" y="128.28906"/>
     <use style="fill:#1f77b4;fill-opacity:0.5;stroke:#1f77b4;stroke-opacity:0.5;" x="320.222254" xlink:href="#mb5f43fb5a5" y="123.02366"/>
     <use style="fill:#1f77b4;fill-opacity:0.5;stroke:#1f77b4;stroke-opacity:0.5;" x="313.114967" xlink:href="#mb5f43fb5a5" y="123.02366"/>
     <use style="fill:#1f77b4;fill-opacity:0.5;stroke:#1f77b4;stroke-opacity:0.5;" x="249.900039" xlink:href="#mb5f43fb5a5" y="142.284003"/>
     <use style="fill:#1f77b4;fill-opacity:0.5;stroke:#1f77b4;stroke-opacity:0.5;" x="333.207648" xlink:href="#mb5f43fb5a5" y="136.184067"/>
     <use style="fill:#1f77b4;fill-opacity:0.5;stroke:#1f77b4;stroke-opacity:0.5;" x="220.266956" xlink:href="#mb5f43fb5a5" y="123.893099"/>
     <use style="fill:#1f77b4;fill-opacity:0.5;stroke:#1f77b4;stroke-opacity:0.5;" x="196.647708" xlink:href="#mb5f43fb5a5" y="123.02366"/>
     <use style="fill:#1f77b4;fill-opacity:0.5;stroke:#1f77b4;stroke-opacity:0.5;" x="172.186866" xlink:href="#mb5f43fb5a5" y="127.903224"/>
     <use style="fill:#1f77b4;fill-opacity:0.5;stroke:#1f77b4;stroke-opacity:0.5;" x="137.419698" xlink:href="#mb5f43fb5a5" y="125.477949"/>
     <use style="fill:#1f77b4;fill-opacity:0.5;stroke:#1f77b4;stroke-opacity:0.5;" x="315.51632" xlink:href="#mb5f43fb5a5" y="139.181795"/>
     <use style="fill:#1f77b4;fill-opacity:0.5;stroke:#1f77b4;stroke-opacity:0.5;" x="197.512458" xlink:href="#mb5f43fb5a5" y="129.402116"/>
     <use style="fill:#1f77b4;fill-opacity:0.5;stroke:#1f77b4;stroke-opacity:0.5;" x="113.337768" xlink:href="#mb5f43fb5a5" y="127.061933"/>
     <use style="fill:#1f77b4;fill-opacity:0.5;stroke:#1f77b4;stroke-opacity:0.5;" x="249.646168" xlink:href="#mb5f43fb5a5" y="130.902478"/>
     <use style="fill:#1f77b4;fill-opacity:0.5;stroke:#1f77b4;stroke-opacity:0.5;" x="226.081999" xlink:href="#mb5f43fb5a5" y="132.68285"/>
     <use style="fill:#1f77b4;fill-opacity:0.5;stroke:#1f77b4;stroke-opacity:0.5;" x="298.45174" xlink:href="#mb5f43fb5a5" y="131.412732"/>
     <use style="fill:#1f77b4;fill-opacity:0.5;stroke:#1f77b4;stroke-opacity:0.5;" x="228.635913" xlink:href="#mb5f43fb5a5" y="136.875058"/>
     <use style="fill:#1f77b4;fill-opacity:0.5;stroke:#1f77b4;stroke-opacity:0.5;" x="247.341113" xlink:href="#mb5f43fb5a5" y="125.991545"/>
     <use style="fill:#1f77b4;fill-opacity:0.5;stroke:#1f77b4;stroke-opacity:0.5;" x="325.402723" xlink:href="#mb5f43fb5a5" y="125.790631"/>
     <use style="fill:#1f77b4;fill-opacity:0.5;stroke:#1f77b4;stroke-opacity:0.5;" x="257.338951" xlink:href="#mb5f43fb5a5" y="123.02366"/>
     <use style="fill:#1f77b4;fill-opacity:0.5;stroke:#1f77b4;stroke-opacity:0.5;" x="353.895261" xlink:href="#mb5f43fb5a5" y="133.649627"/>
     <use style="fill:#1f77b4;fill-opacity:0.5;stroke:#1f77b4;stroke-opacity:0.5;" x="304.141786" xlink:href="#mb5f43fb5a5" y="137.333386"/>
     <use style="fill:#1f77b4;fill-opacity:0.5;stroke:#1f77b4;stroke-opacity:0.5;" x="292.129347" xlink:href="#mb5f43fb5a5" y="130.780424"/>
     <use style="fill:#1f77b4;fill-opacity:0.5;stroke:#1f77b4;stroke-opacity:0.5;" x="132.245852" xlink:href="#mb5f43fb5a5" y="157.074197"/>
     <use style="fill:#1f77b4;fill-opacity:0.5;stroke:#1f77b4;stroke-opacity:0.5;" x="285.078491" xlink:href="#mb5f43fb5a5" y="137.777874"/>
     <use style="fill:#1f77b4;fill-opacity:0.5;stroke:#1f77b4;stroke-opacity:0.5;" x="151.746797" xlink:href="#mb5f43fb5a5" y="290.9516"/>
     <use style="fill:#1f77b4;fill-opacity:0.5;stroke:#1f77b4;stroke-opacity:0.5;" x="256.282294" xlink:href="#mb5f43fb5a5" y="152.277408"/>
     <use style="fill:#1f77b4;fill-opacity:0.5;stroke:#1f77b4;stroke-opacity:0.5;" x="276.048555" xlink:href="#mb5f43fb5a5" y="146.020295"/>
     <use style="fill:#1f77b4;fill-opacity:0.5;stroke:#1f77b4;stroke-opacity:0.5;" x="115.176125" xlink:href="#mb5f43fb5a5" y="321.513998"/>
     <use style="fill:#1f77b4;fill-opacity:0.5;stroke:#1f77b4;stroke-opacity:0.5;" x="104.041856" xlink:href="#mb5f43fb5a5" y="364.730816"/>
     <use style="fill:#1f77b4;fill-opacity:0.5;stroke:#1f77b4;stroke-opacity:0.5;" x="144.529069" xlink:href="#mb5f43fb5a5" y="337.716824"/>
     <use style="fill:#1f77b4;fill-opacity:0.5;stroke:#1f77b4;stroke-opacity:0.5;" x="90.957729" xlink:href="#mb5f43fb5a5" y="373.532727"/>
     <use style="fill:#1f77b4;fill-opacity:0.5;stroke:#1f77b4;stroke-opacity:0.5;" x="90.898225" xlink:href="#mb5f43fb5a5" y="306.981089"/>
     <use style="fill:#1f77b4;fill-opacity:0.5;stroke:#1f77b4;stroke-opacity:0.5;" x="82.038974" xlink:href="#mb5f43fb5a5" y="347.747854"/>
     <use style="fill:#1f77b4;fill-opacity:0.5;stroke:#1f77b4;stroke-opacity:0.5;" x="172.161842" xlink:href="#mb5f43fb5a5" y="283.312412"/>
     <use style="fill:#1f77b4;fill-opacity:0.5;stroke:#1f77b4;stroke-opacity:0.5;" x="232.395691" xlink:href="#mb5f43fb5a5" y="255.198262"/>
     <use style="fill:#1f77b4;fill-opacity:0.5;stroke:#1f77b4;stroke-opacity:0.5;" x="152.630028" xlink:href="#mb5f43fb5a5" y="236.332519"/>
     <use style="fill:#1f77b4;fill-opacity:0.5;stroke:#1f77b4;stroke-opacity:0.5;" x="133.6316" xlink:href="#mb5f43fb5a5" y="259.207587"/>
     <use style="fill:#1f77b4;fill-opacity:0.5;stroke:#1f77b4;stroke-opacity:0.5;" x="194.815583" xlink:href="#mb5f43fb5a5" y="192.7111"/>
     <use style="fill:#1f77b4;fill-opacity:0.5;stroke:#1f77b4;stroke-opacity:0.5;" x="276.095463" xlink:href="#mb5f43fb5a5" y="238.917407"/>
     <use style="fill:#1f77b4;fill-opacity:0.5;stroke:#1f77b4;stroke-opacity:0.5;" x="244.615814" xlink:href="#mb5f43fb5a5" y="220.194776"/>
     <use style="fill:#1f77b4;fill-opacity:0.5;stroke:#1f77b4;stroke-opacity:0.5;" x="138.374215" xlink:href="#mb5f43fb5a5" y="240.33314"/>
     <use style="fill:#1f77b4;fill-opacity:0.5;stroke:#1f77b4;stroke-opacity:0.5;" x="99.571844" xlink:href="#mb5f43fb5a5" y="319.681439"/>
     <use style="fill:#1f77b4;fill-opacity:0.5;stroke:#1f77b4;stroke-opacity:0.5;" x="92.074873" xlink:href="#mb5f43fb5a5" y="305.757611"/>
     <use style="fill:#1f77b4;fill-opacity:0.5;stroke:#1f77b4;stroke-opacity:0.5;" x="254.660223" xlink:href="#mb5f43fb5a5" y="205.52854"/>
     <use style="fill:#1f77b4;fill-opacity:0.5;stroke:#1f77b4;stroke-opacity:0.5;" x="243.297974" xlink:href="#mb5f43fb5a5" y="178.458195"/>
     <use style="fill:#1f77b4;fill-opacity:0.5;stroke:#1f77b4;stroke-opacity:0.5;" x="147.175267" xlink:href="#mb5f43fb5a5" y="278.17122"/>
     <use style="fill:#1f77b4;fill-opacity:0.5;stroke:#1f77b4;stroke-opacity:0.5;" x="115.343009" xlink:href="#mb5f43fb5a5" y="302.630397"/>
     <use style="fill:#1f77b4;fill-opacity:0.5;stroke:#1f77b4;stroke-opacity:0.5;" x="92.93976" xlink:href="#mb5f43fb5a5" y="300.723526"/>
     <use style="fill:#1f77b4;fill-opacity:0.5;stroke:#1f77b4;stroke-opacity:0.5;" x="163.886679" xlink:href="#mb5f43fb5a5" y="311.456867"/>
     <use style="fill:#1f77b4;fill-opacity:0.5;stroke:#1f77b4;stroke-opacity:0.5;" x="148.834651" xlink:href="#mb5f43fb5a5" y="252.406896"/>
     <use style="fill:#1f77b4;fill-opacity:0.5;stroke:#1f77b4;stroke-opacity:0.5;" x="195.536937" xlink:href="#mb5f43fb5a5" y="293.512126"/>
     <use style="fill:#1f77b4;fill-opacity:0.5;stroke:#1f77b4;stroke-opacity:0.5;" x="275.850837" xlink:href="#mb5f43fb5a5" y="240.908505"/>
     <use style="fill:#1f77b4;fill-opacity:0.5;stroke:#1f77b4;stroke-opacity:0.5;" x="220.039578" xlink:href="#mb5f43fb5a5" y="262.430397"/>
     <use style="fill:#1f77b4;fill-opacity:0.5;stroke:#1f77b4;stroke-opacity:0.5;" x="181.855483" xlink:href="#mb5f43fb5a5" y="260.581424"/>
     <use style="fill:#1f77b4;fill-opacity:0.5;stroke:#1f77b4;stroke-opacity:0.5;" x="270.650879" xlink:href="#mb5f43fb5a5" y="286.234235"/>
     <use style="fill:#1f77b4;fill-opacity:0.5;stroke:#1f77b4;stroke-opacity:0.5;" x="232.259888" xlink:href="#mb5f43fb5a5" y="137.398854"/>
     <use style="fill:#1f77b4;fill-opacity:0.5;stroke:#1f77b4;stroke-opacity:0.5;" x="257.526789" xlink:href="#mb5f43fb5a5" y="123.147569"/>
     <use style="fill:#1f77b4;fill-opacity:0.5;stroke:#1f77b4;stroke-opacity:0.5;" x="159.18369" xlink:href="#mb5f43fb5a5" y="225.479373"/>
     <use style="fill:#1f77b4;fill-opacity:0.5;stroke:#1f77b4;stroke-opacity:0.5;" x="219.147994" xlink:href="#mb5f43fb5a5" y="279.104245"/>
     <use style="fill:#1f77b4;fill-opacity:0.5;stroke:#1f77b4;stroke-opacity:0.5;" x="78.874352" xlink:href="#mb5f43fb5a5" y="275.893672"/>
     <use style="fill:#1f77b4;fill-opacity:0.5;stroke:#1f77b4;stroke-opacity:0.5;" x="295.127979" xlink:href="#mb5f43fb5a5" y="206.97225"/>
     <use style="fill:#1f77b4;fill-opacity:0.5;stroke:#1f77b4;stroke-opacity:0.5;" x="219.819157" xlink:href="#mb5f43fb5a5" y="222.748344"/>
     <use style="fill:#1f77b4;fill-opacity:0.5;stroke:#1f77b4;stroke-opacity:0.5;" x="96.313277" xlink:href="#mb5f43fb5a5" y="327.081799"/>
     <use style="fill:#1f77b4;fill-opacity:0.5;stroke:#1f77b4;stroke-opacity:0.5;" x="287.324332" xlink:href="#mb5f43fb5a5" y="183.930873"/>
     <use style="fill:#1f77b4;fill-opacity:0.5;stroke:#1f77b4;stroke-opacity:0.5;" x="173.52676" xlink:href="#mb5f43fb5a5" y="252.711372"/>
     <use style="fill:#1f77b4;fill-opacity:0.5;stroke:#1f77b4;stroke-opacity:0.5;" x="173.416975" xlink:href="#mb5f43fb5a5" y="253.70589"/>
     <use style="fill:#1f77b4;fill-opacity:0.5;stroke:#1f77b4;stroke-opacity:0.5;" x="347.205997" xlink:href="#mb5f43fb5a5" y="133.336489"/>
     <use style="fill:#1f77b4;fill-opacity:0.5;stroke:#1f77b4;stroke-opacity:0.5;" x="358.086739" xlink:href="#mb5f43fb5a5" y="160.34854"/>
     <use style="fill:#1f77b4;fill-opacity:0.5;stroke:#1f77b4;stroke-opacity:0.5;" x="200.91817" xlink:href="#mb5f43fb5a5" y="183.237598"/>
     <use style="fill:#1f77b4;fill-opacity:0.5;stroke:#1f77b4;stroke-opacity:0.5;" x="126.555541" xlink:href="#mb5f43fb5a5" y="317.991695"/>
     <use style="fill:#1f77b4;fill-opacity:0.5;stroke:#1f77b4;stroke-opacity:0.5;" x="209.443227" xlink:href="#mb5f43fb5a5" y="134.286732"/>
     <use style="fill:#1f77b4;fill-opacity:0.5;stroke:#1f77b4;stroke-opacity:0.5;" x="250.141719" xlink:href="#mb5f43fb5a5" y="150.818412"/>
     <use style="fill:#1f77b4;fill-opacity:0.5;stroke:#1f77b4;stroke-opacity:0.5;" x="404.223636" xlink:href="#mb5f43fb5a5" y="158.660162"/>
     <use style="fill:#1f77b4;fill-opacity:0.5;stroke:#1f77b4;stroke-opacity:0.5;" x="137.658471" xlink:href="#mb5f43fb5a5" y="247.418557"/>
     <use style="fill:#1f77b4;fill-opacity:0.5;stroke:#1f77b4;stroke-opacity:0.5;" x="234.859471" xlink:href="#mb5f43fb5a5" y="199.997193"/>
     <use style="fill:#1f77b4;fill-opacity:0.5;stroke:#1f77b4;stroke-opacity:0.5;" x="205.615749" xlink:href="#mb5f43fb5a5" y="215.878143"/>
     <use style="fill:#1f77b4;fill-opacity:0.5;stroke:#1f77b4;stroke-opacity:0.5;" x="279.75557" xlink:href="#mb5f43fb5a5" y="169.815972"/>
     <use style="fill:#1f77b4;fill-opacity:0.5;stroke:#1f77b4;stroke-opacity:0.5;" x="142.846074" xlink:href="#mb5f43fb5a5" y="326.345041"/>
     <use style="fill:#1f77b4;fill-opacity:0.5;stroke:#1f77b4;stroke-opacity:0.5;" x="216.141736" xlink:href="#mb5f43fb5a5" y="135.970071"/>
     <use style="fill:#1f77b4;fill-opacity:0.5;stroke:#1f77b4;stroke-opacity:0.5;" x="335.923748" xlink:href="#mb5f43fb5a5" y="214.864521"/>
    </g>
   </g>
   <g id="PolyCollection_1">
    <path clip-path="url(#p318170cd83)" d="M 64.696364 304.511687 
L 64.696364 341.773171 
L 68.125932 338.858994 
L 71.5555 335.899495 
L 74.985069 332.937726 
L 78.414637 329.90317 
L 81.844206 326.990541 
L 85.273774 324.058683 
L 88.703343 321.098258 
L 92.132911 318.094761 
L 95.562479 315.1885 
L 98.992048 312.379424 
L 102.421616 309.586705 
L 105.851185 306.796392 
L 109.280753 304.039054 
L 112.710321 301.30799 
L 116.13989 298.629338 
L 119.569458 295.817483 
L 122.999027 293.005695 
L 126.428595 290.13713 
L 129.858163 287.371342 
L 133.287732 284.608709 
L 136.7173 282.057983 
L 140.146869 279.321044 
L 143.576437 276.652516 
L 147.006006 273.951986 
L 150.435574 271.249314 
L 153.865142 268.549463 
L 157.294711 265.817926 
L 160.724279 263.145853 
L 164.153848 260.414248 
L 167.583416 257.735695 
L 171.012984 254.919169 
L 174.442553 252.339123 
L 177.872121 249.705328 
L 181.30169 247.20108 
L 184.731258 244.583295 
L 188.160826 241.877325 
L 191.590395 239.134438 
L 195.019963 236.675813 
L 198.449532 234.040241 
L 201.8791 231.567138 
L 205.308669 229.015267 
L 208.738237 226.335952 
L 212.167805 223.913828 
L 215.597374 221.440124 
L 219.026942 218.804067 
L 222.456511 216.369255 
L 225.886079 213.864416 
L 229.315647 211.359154 
L 232.745216 208.885134 
L 236.174784 206.256571 
L 239.604353 203.871244 
L 243.033921 201.307335 
L 246.463489 198.990308 
L 249.893058 196.686917 
L 253.322626 194.261082 
L 256.752195 191.987852 
L 260.181763 189.69916 
L 263.611331 187.31363 
L 267.0409 184.879558 
L 270.470468 182.555049 
L 273.900037 180.262581 
L 277.329605 177.970113 
L 280.759174 175.672664 
L 284.188742 173.373984 
L 287.61831 171.285262 
L 291.047879 169.10061 
L 294.477447 166.926949 
L 297.907016 164.919883 
L 301.336584 162.773514 
L 304.766152 160.677474 
L 308.195721 158.42883 
L 311.625289 156.138396 
L 315.054858 153.789363 
L 318.484426 151.491709 
L 321.913994 149.125444 
L 325.343563 146.756403 
L 328.773131 144.388087 
L 332.2027 142.065769 
L 335.632268 139.834963 
L 339.061837 137.604634 
L 342.491405 135.36925 
L 345.920973 133.097353 
L 349.350542 130.744236 
L 352.78011 128.389736 
L 356.209679 126.230426 
L 359.639247 124.027332 
L 363.068815 121.733831 
L 366.498384 119.44033 
L 369.927952 117.146829 
L 373.357521 114.88927 
L 376.787089 112.597188 
L 380.216657 110.305107 
L 383.646226 108.013026 
L 387.075794 105.718729 
L 390.505363 103.424083 
L 393.934931 101.129437 
L 397.3645 98.834791 
L 400.794068 96.540145 
L 404.223636 94.245499 
L 404.223636 43.387273 
L 404.223636 43.387273 
L 400.794068 46.34419 
L 397.3645 49.189277 
L 393.934931 52.035378 
L 390.505363 54.88148 
L 387.075794 57.727581 
L 383.646226 60.573682 
L 380.216657 63.475854 
L 376.787089 66.466826 
L 373.357521 69.457798 
L 369.927952 72.448946 
L 366.498384 75.380821 
L 363.068815 78.263251 
L 359.639247 81.146658 
L 356.209679 84.030065 
L 352.78011 86.913472 
L 349.350542 89.822953 
L 345.920973 92.709683 
L 342.491405 95.560811 
L 339.061837 98.489026 
L 335.632268 101.489252 
L 332.2027 104.489478 
L 328.773131 107.489704 
L 325.343563 110.48993 
L 321.913994 113.413967 
L 318.484426 116.285584 
L 315.054858 119.157201 
L 311.625289 122.028621 
L 308.195721 124.898255 
L 304.766152 127.766638 
L 301.336584 130.635021 
L 297.907016 133.562926 
L 294.477447 136.397533 
L 291.047879 139.25317 
L 287.61831 142.116573 
L 284.188742 144.985513 
L 280.759174 147.763861 
L 277.329605 150.621733 
L 273.900037 153.465083 
L 270.470468 156.299389 
L 267.0409 159.137231 
L 263.611331 161.975731 
L 260.181763 164.742773 
L 256.752195 167.612204 
L 253.322626 170.451679 
L 249.893058 173.329728 
L 246.463489 176.169092 
L 243.033921 179.00902 
L 239.604353 181.815288 
L 236.174784 184.637505 
L 232.745216 187.402584 
L 229.315647 190.11746 
L 225.886079 192.755827 
L 222.456511 195.573136 
L 219.026942 198.413636 
L 215.597374 201.08919 
L 212.167805 203.776883 
L 208.738237 206.560487 
L 205.308669 209.19606 
L 201.8791 211.810776 
L 198.449532 214.404013 
L 195.019963 216.877247 
L 191.590395 219.350785 
L 188.160826 221.97089 
L 184.731258 224.489869 
L 181.30169 226.978908 
L 177.872121 229.505464 
L 174.442553 231.954848 
L 171.012984 234.514522 
L 167.583416 237.044805 
L 164.153848 239.555149 
L 160.724279 242.008924 
L 157.294711 244.300619 
L 153.865142 246.501442 
L 150.435574 248.823685 
L 147.006006 251.072927 
L 143.576437 253.487659 
L 140.146869 255.757156 
L 136.7173 258.028201 
L 133.287732 260.474792 
L 129.858163 262.807621 
L 126.428595 265.104273 
L 122.999027 267.37733 
L 119.569458 269.533734 
L 116.13989 271.690424 
L 112.710321 273.879859 
L 109.280753 276.141991 
L 105.851185 278.404847 
L 102.421616 280.667952 
L 98.992048 282.931058 
L 95.562479 285.005623 
L 92.132911 287.04781 
L 88.703343 289.157901 
L 85.273774 291.348411 
L 81.844206 293.540967 
L 78.414637 295.734405 
L 74.985069 297.927843 
L 71.5555 300.121281 
L 68.125932 302.316287 
L 64.696364 304.511687 
z
" style="fill:#1f77b4;fill-opacity:0.15;"/>
   </g>
   <g id="matplotlib.axis_1">
    <g id="xtick_1">
     <g id="line2d_1">
      <path clip-path="url(#p318170cd83)" d="M 64.696364 390.04 
L 64.696364 26.88 
" style="fill:none;stroke:#b0b0b0;stroke-dasharray:2.96,1.28;stroke-dashoffset:0;stroke-opacity:0.5;stroke-width:0.8;"/>
     </g>
     <g id="line2d_2">
      <defs>
       <path d="M 0 0 
L 0 3.5 
" id="mf4e1f7cac4" style="stroke:#000000;stroke-width:0.8;"/>
      </defs>
      <g>
       <use style="stroke:#000000;stroke-width:0.8;" x="64.696364" xlink:href="#mf4e1f7cac4" y="390.04"/>
      </g>
     </g>
     <g id="text_1">
      <!-- 0.0 -->
      <g transform="translate(56.744801 404.638438)scale(0.1 -0.1)">
       <defs>
        <path d="M 2034 4250 
Q 1547 4250 1301 3770 
Q 1056 3291 1056 2328 
Q 1056 1369 1301 889 
Q 1547 409 2034 409 
Q 2525 409 2770 889 
Q 3016 1369 3016 2328 
Q 3016 3291 2770 3770 
Q 2525 4250 2034 4250 
z
M 2034 4750 
Q 2819 4750 3233 4129 
Q 3647 3509 3647 2328 
Q 3647 1150 3233 529 
Q 2819 -91 2034 -91 
Q 1250 -91 836 529 
Q 422 1150 422 2328 
Q 422 3509 836 4129 
Q 1250 4750 2034 4750 
z
" id="DejaVuSans-30" transform="scale(0.015625)"/>
        <path d="M 684 794 
L 1344 794 
L 1344 0 
L 684 0 
L 684 794 
z
" id="DejaVuSans-2e" transform="scale(0.015625)"/>
       </defs>
       <use xlink:href="#DejaVuSans-30"/>
       <use x="63.623047" xlink:href="#DejaVuSans-2e"/>
       <use x="95.410156" xlink:href="#DejaVuSans-30"/>
      </g>
     </g>
    </g>
    <g id="xtick_2">
     <g id="line2d_3">
      <path clip-path="url(#p318170cd83)" d="M 127.93019 390.04 
L 127.93019 26.88 
" style="fill:none;stroke:#b0b0b0;stroke-dasharray:2.96,1.28;stroke-dashoffset:0;stroke-opacity:0.5;stroke-width:0.8;"/>
     </g>
     <g id="line2d_4">
      <g>
       <use style="stroke:#000000;stroke-width:0.8;" x="127.93019" xlink:href="#mf4e1f7cac4" y="390.04"/>
      </g>
     </g>
     <g id="text_2">
      <!-- 0.1 -->
      <g transform="translate(119.978627 404.638438)scale(0.1 -0.1)">
       <defs>
        <path d="M 794 531 
L 1825 531 
L 1825 4091 
L 703 3866 
L 703 4441 
L 1819 4666 
L 2450 4666 
L 2450 531 
L 3481 531 
L 3481 0 
L 794 0 
L 794 531 
z
" id="DejaVuSans-31" transform="scale(0.015625)"/>
       </defs>
       <use xlink:href="#DejaVuSans-30"/>
       <use x="63.623047" xlink:href="#DejaVuSans-2e"/>
       <use x="95.410156" xlink:href="#DejaVuSans-31"/>
      </g>
     </g>
    </g>
    <g id="xtick_3">
     <g id="line2d_5">
      <path clip-path="url(#p318170cd83)" d="M 191.164016 390.04 
L 191.164016 26.88 
" style="fill:none;stroke:#b0b0b0;stroke-dasharray:2.96,1.28;stroke-dashoffset:0;stroke-opacity:0.5;stroke-width:0.8;"/>
     </g>
     <g id="line2d_6">
      <g>
       <use style="stroke:#000000;stroke-width:0.8;" x="191.164016" xlink:href="#mf4e1f7cac4" y="390.04"/>
      </g>
     </g>
     <g id="text_3">
      <!-- 0.2 -->
      <g transform="translate(183.212454 404.638438)scale(0.1 -0.1)">
       <defs>
        <path d="M 1228 531 
L 3431 531 
L 3431 0 
L 469 0 
L 469 531 
Q 828 903 1448 1529 
Q 2069 2156 2228 2338 
Q 2531 2678 2651 2914 
Q 2772 3150 2772 3378 
Q 2772 3750 2511 3984 
Q 2250 4219 1831 4219 
Q 1534 4219 1204 4116 
Q 875 4013 500 3803 
L 500 4441 
Q 881 4594 1212 4672 
Q 1544 4750 1819 4750 
Q 2544 4750 2975 4387 
Q 3406 4025 3406 3419 
Q 3406 3131 3298 2873 
Q 3191 2616 2906 2266 
Q 2828 2175 2409 1742 
Q 1991 1309 1228 531 
z
" id="DejaVuSans-32" transform="scale(0.015625)"/>
       </defs>
       <use xlink:href="#DejaVuSans-30"/>
       <use x="63.623047" xlink:href="#DejaVuSans-2e"/>
       <use x="95.410156" xlink:href="#DejaVuSans-32"/>
      </g>
     </g>
    </g>
    <g id="xtick_4">
     <g id="line2d_7">
      <path clip-path="url(#p318170cd83)" d="M 254.397842 390.04 
L 254.397842 26.88 
" style="fill:none;stroke:#b0b0b0;stroke-dasharray:2.96,1.28;stroke-dashoffset:0;stroke-opacity:0.5;stroke-width:0.8;"/>
     </g>
     <g id="line2d_8">
      <g>
       <use style="stroke:#000000;stroke-width:0.8;" x="254.397842" xlink:href="#mf4e1f7cac4" y="390.04"/>
      </g>
     </g>
     <g id="text_4">
      <!-- 0.3 -->
      <g transform="translate(246.44628 404.638438)scale(0.1 -0.1)">
       <defs>
        <path d="M 2597 2516 
Q 3050 2419 3304 2112 
Q 3559 1806 3559 1356 
Q 3559 666 3084 287 
Q 2609 -91 1734 -91 
Q 1441 -91 1130 -33 
Q 819 25 488 141 
L 488 750 
Q 750 597 1062 519 
Q 1375 441 1716 441 
Q 2309 441 2620 675 
Q 2931 909 2931 1356 
Q 2931 1769 2642 2001 
Q 2353 2234 1838 2234 
L 1294 2234 
L 1294 2753 
L 1863 2753 
Q 2328 2753 2575 2939 
Q 2822 3125 2822 3475 
Q 2822 3834 2567 4026 
Q 2313 4219 1838 4219 
Q 1578 4219 1281 4162 
Q 984 4106 628 3988 
L 628 4550 
Q 988 4650 1302 4700 
Q 1616 4750 1894 4750 
Q 2613 4750 3031 4423 
Q 3450 4097 3450 3541 
Q 3450 3153 3228 2886 
Q 3006 2619 2597 2516 
z
" id="DejaVuSans-33" transform="scale(0.015625)"/>
       </defs>
       <use xlink:href="#DejaVuSans-30"/>
       <use x="63.623047" xlink:href="#DejaVuSans-2e"/>
       <use x="95.410156" xlink:href="#DejaVuSans-33"/>
      </g>
     </g>
    </g>
    <g id="xtick_5">
     <g id="line2d_9">
      <path clip-path="url(#p318170cd83)" d="M 317.631669 390.04 
L 317.631669 26.88 
" style="fill:none;stroke:#b0b0b0;stroke-dasharray:2.96,1.28;stroke-dashoffset:0;stroke-opacity:0.5;stroke-width:0.8;"/>
     </g>
     <g id="line2d_10">
      <g>
       <use style="stroke:#000000;stroke-width:0.8;" x="317.631669" xlink:href="#mf4e1f7cac4" y="390.04"/>
      </g>
     </g>
     <g id="text_5">
      <!-- 0.4 -->
      <g transform="translate(309.680106 404.638438)scale(0.1 -0.1)">
       <defs>
        <path d="M 2419 4116 
L 825 1625 
L 2419 1625 
L 2419 4116 
z
M 2253 4666 
L 3047 4666 
L 3047 1625 
L 3713 1625 
L 3713 1100 
L 3047 1100 
L 3047 0 
L 2419 0 
L 2419 1100 
L 313 1100 
L 313 1709 
L 2253 4666 
z
" id="DejaVuSans-34" transform="scale(0.015625)"/>
       </defs>
       <use xlink:href="#DejaVuSans-30"/>
       <use x="63.623047" xlink:href="#DejaVuSans-2e"/>
       <use x="95.410156" xlink:href="#DejaVuSans-34"/>
      </g>
     </g>
    </g>
    <g id="xtick_6">
     <g id="line2d_11">
      <path clip-path="url(#p318170cd83)" d="M 380.865495 390.04 
L 380.865495 26.88 
" style="fill:none;stroke:#b0b0b0;stroke-dasharray:2.96,1.28;stroke-dashoffset:0;stroke-opacity:0.5;stroke-width:0.8;"/>
     </g>
     <g id="line2d_12">
      <g>
       <use style="stroke:#000000;stroke-width:0.8;" x="380.865495" xlink:href="#mf4e1f7cac4" y="390.04"/>
      </g>
     </g>
     <g id="text_6">
      <!-- 0.5 -->
      <g transform="translate(372.913932 404.638438)scale(0.1 -0.1)">
       <defs>
        <path d="M 691 4666 
L 3169 4666 
L 3169 4134 
L 1269 4134 
L 1269 2991 
Q 1406 3038 1543 3061 
Q 1681 3084 1819 3084 
Q 2600 3084 3056 2656 
Q 3513 2228 3513 1497 
Q 3513 744 3044 326 
Q 2575 -91 1722 -91 
Q 1428 -91 1123 -41 
Q 819 9 494 109 
L 494 744 
Q 775 591 1075 516 
Q 1375 441 1709 441 
Q 2250 441 2565 725 
Q 2881 1009 2881 1497 
Q 2881 1984 2565 2268 
Q 2250 2553 1709 2553 
Q 1456 2553 1204 2497 
Q 953 2441 691 2322 
L 691 4666 
z
" id="DejaVuSans-35" transform="scale(0.015625)"/>
       </defs>
       <use xlink:href="#DejaVuSans-30"/>
       <use x="63.623047" xlink:href="#DejaVuSans-2e"/>
       <use x="95.410156" xlink:href="#DejaVuSans-35"/>
      </g>
     </g>
    </g>
    <g id="text_7">
     <!-- Percentage of Zero-Car Households -->
     <g transform="translate(145.6725 418.316562)scale(0.1 -0.1)">
      <defs>
       <path d="M 1259 4147 
L 1259 2394 
L 2053 2394 
Q 2494 2394 2734 2622 
Q 2975 2850 2975 3272 
Q 2975 3691 2734 3919 
Q 2494 4147 2053 4147 
L 1259 4147 
z
M 628 4666 
L 2053 4666 
Q 2838 4666 3239 4311 
Q 3641 3956 3641 3272 
Q 3641 2581 3239 2228 
Q 2838 1875 2053 1875 
L 1259 1875 
L 1259 0 
L 628 0 
L 628 4666 
z
" id="DejaVuSans-50" transform="scale(0.015625)"/>
       <path d="M 3597 1894 
L 3597 1613 
L 953 1613 
Q 991 1019 1311 708 
Q 1631 397 2203 397 
Q 2534 397 2845 478 
Q 3156 559 3463 722 
L 3463 178 
Q 3153 47 2828 -22 
Q 2503 -91 2169 -91 
Q 1331 -91 842 396 
Q 353 884 353 1716 
Q 353 2575 817 3079 
Q 1281 3584 2069 3584 
Q 2775 3584 3186 3129 
Q 3597 2675 3597 1894 
z
M 3022 2063 
Q 3016 2534 2758 2815 
Q 2500 3097 2075 3097 
Q 1594 3097 1305 2825 
Q 1016 2553 972 2059 
L 3022 2063 
z
" id="DejaVuSans-65" transform="scale(0.015625)"/>
       <path d="M 2631 2963 
Q 2534 3019 2420 3045 
Q 2306 3072 2169 3072 
Q 1681 3072 1420 2755 
Q 1159 2438 1159 1844 
L 1159 0 
L 581 0 
L 581 3500 
L 1159 3500 
L 1159 2956 
Q 1341 3275 1631 3429 
Q 1922 3584 2338 3584 
Q 2397 3584 2469 3576 
Q 2541 3569 2628 3553 
L 2631 2963 
z
" id="DejaVuSans-72" transform="scale(0.015625)"/>
       <path d="M 3122 3366 
L 3122 2828 
Q 2878 2963 2633 3030 
Q 2388 3097 2138 3097 
Q 1578 3097 1268 2742 
Q 959 2388 959 1747 
Q 959 1106 1268 751 
Q 1578 397 2138 397 
Q 2388 397 2633 464 
Q 2878 531 3122 666 
L 3122 134 
Q 2881 22 2623 -34 
Q 2366 -91 2075 -91 
Q 1284 -91 818 406 
Q 353 903 353 1747 
Q 353 2603 823 3093 
Q 1294 3584 2113 3584 
Q 2378 3584 2631 3529 
Q 2884 3475 3122 3366 
z
" id="DejaVuSans-63" transform="scale(0.015625)"/>
       <path d="M 3513 2113 
L 3513 0 
L 2938 0 
L 2938 2094 
Q 2938 2591 2744 2837 
Q 2550 3084 2163 3084 
Q 1697 3084 1428 2787 
Q 1159 2491 1159 1978 
L 1159 0 
L 581 0 
L 581 3500 
L 1159 3500 
L 1159 2956 
Q 1366 3272 1645 3428 
Q 1925 3584 2291 3584 
Q 2894 3584 3203 3211 
Q 3513 2838 3513 2113 
z
" id="DejaVuSans-6e" transform="scale(0.015625)"/>
       <path d="M 1172 4494 
L 1172 3500 
L 2356 3500 
L 2356 3053 
L 1172 3053 
L 1172 1153 
Q 1172 725 1289 603 
Q 1406 481 1766 481 
L 2356 481 
L 2356 0 
L 1766 0 
Q 1100 0 847 248 
Q 594 497 594 1153 
L 594 3053 
L 172 3053 
L 172 3500 
L 594 3500 
L 594 4494 
L 1172 4494 
z
" id="DejaVuSans-74" transform="scale(0.015625)"/>
       <path d="M 2194 1759 
Q 1497 1759 1228 1600 
Q 959 1441 959 1056 
Q 959 750 1161 570 
Q 1363 391 1709 391 
Q 2188 391 2477 730 
Q 2766 1069 2766 1631 
L 2766 1759 
L 2194 1759 
z
M 3341 1997 
L 3341 0 
L 2766 0 
L 2766 531 
Q 2569 213 2275 61 
Q 1981 -91 1556 -91 
Q 1019 -91 701 211 
Q 384 513 384 1019 
Q 384 1609 779 1909 
Q 1175 2209 1959 2209 
L 2766 2209 
L 2766 2266 
Q 2766 2663 2505 2880 
Q 2244 3097 1772 3097 
Q 1472 3097 1187 3025 
Q 903 2953 641 2809 
L 641 3341 
Q 956 3463 1253 3523 
Q 1550 3584 1831 3584 
Q 2591 3584 2966 3190 
Q 3341 2797 3341 1997 
z
" id="DejaVuSans-61" transform="scale(0.015625)"/>
       <path d="M 2906 1791 
Q 2906 2416 2648 2759 
Q 2391 3103 1925 3103 
Q 1463 3103 1205 2759 
Q 947 2416 947 1791 
Q 947 1169 1205 825 
Q 1463 481 1925 481 
Q 2391 481 2648 825 
Q 2906 1169 2906 1791 
z
M 3481 434 
Q 3481 -459 3084 -895 
Q 2688 -1331 1869 -1331 
Q 1566 -1331 1297 -1286 
Q 1028 -1241 775 -1147 
L 775 -588 
Q 1028 -725 1275 -790 
Q 1522 -856 1778 -856 
Q 2344 -856 2625 -561 
Q 2906 -266 2906 331 
L 2906 616 
Q 2728 306 2450 153 
Q 2172 0 1784 0 
Q 1141 0 747 490 
Q 353 981 353 1791 
Q 353 2603 747 3093 
Q 1141 3584 1784 3584 
Q 2172 3584 2450 3431 
Q 2728 3278 2906 2969 
L 2906 3500 
L 3481 3500 
L 3481 434 
z
" id="DejaVuSans-67" transform="scale(0.015625)"/>
       <path id="DejaVuSans-20" transform="scale(0.015625)"/>
       <path d="M 1959 3097 
Q 1497 3097 1228 2736 
Q 959 2375 959 1747 
Q 959 1119 1226 758 
Q 1494 397 1959 397 
Q 2419 397 2687 759 
Q 2956 1122 2956 1747 
Q 2956 2369 2687 2733 
Q 2419 3097 1959 3097 
z
M 1959 3584 
Q 2709 3584 3137 3096 
Q 3566 2609 3566 1747 
Q 3566 888 3137 398 
Q 2709 -91 1959 -91 
Q 1206 -91 779 398 
Q 353 888 353 1747 
Q 353 2609 779 3096 
Q 1206 3584 1959 3584 
z
" id="DejaVuSans-6f" transform="scale(0.015625)"/>
       <path d="M 2375 4863 
L 2375 4384 
L 1825 4384 
Q 1516 4384 1395 4259 
Q 1275 4134 1275 3809 
L 1275 3500 
L 2222 3500 
L 2222 3053 
L 1275 3053 
L 1275 0 
L 697 0 
L 697 3053 
L 147 3053 
L 147 3500 
L 697 3500 
L 697 3744 
Q 697 4328 969 4595 
Q 1241 4863 1831 4863 
L 2375 4863 
z
" id="DejaVuSans-66" transform="scale(0.015625)"/>
       <path d="M 359 4666 
L 4025 4666 
L 4025 4184 
L 1075 531 
L 4097 531 
L 4097 0 
L 288 0 
L 288 481 
L 3238 4134 
L 359 4134 
L 359 4666 
z
" id="DejaVuSans-5a" transform="scale(0.015625)"/>
       <path d="M 313 2009 
L 1997 2009 
L 1997 1497 
L 313 1497 
L 313 2009 
z
" id="DejaVuSans-2d" transform="scale(0.015625)"/>
       <path d="M 4122 4306 
L 4122 3641 
Q 3803 3938 3442 4084 
Q 3081 4231 2675 4231 
Q 1875 4231 1450 3742 
Q 1025 3253 1025 2328 
Q 1025 1406 1450 917 
Q 1875 428 2675 428 
Q 3081 428 3442 575 
Q 3803 722 4122 1019 
L 4122 359 
Q 3791 134 3420 21 
Q 3050 -91 2638 -91 
Q 1578 -91 968 557 
Q 359 1206 359 2328 
Q 359 3453 968 4101 
Q 1578 4750 2638 4750 
Q 3056 4750 3426 4639 
Q 3797 4528 4122 4306 
z
" id="DejaVuSans-43" transform="scale(0.015625)"/>
       <path d="M 628 4666 
L 1259 4666 
L 1259 2753 
L 3553 2753 
L 3553 4666 
L 4184 4666 
L 4184 0 
L 3553 0 
L 3553 2222 
L 1259 2222 
L 1259 0 
L 628 0 
L 628 4666 
z
" id="DejaVuSans-48" transform="scale(0.015625)"/>
       <path d="M 544 1381 
L 544 3500 
L 1119 3500 
L 1119 1403 
Q 1119 906 1312 657 
Q 1506 409 1894 409 
Q 2359 409 2629 706 
Q 2900 1003 2900 1516 
L 2900 3500 
L 3475 3500 
L 3475 0 
L 2900 0 
L 2900 538 
Q 2691 219 2414 64 
Q 2138 -91 1772 -91 
Q 1169 -91 856 284 
Q 544 659 544 1381 
z
M 1991 3584 
L 1991 3584 
z
" id="DejaVuSans-75" transform="scale(0.015625)"/>
       <path d="M 2834 3397 
L 2834 2853 
Q 2591 2978 2328 3040 
Q 2066 3103 1784 3103 
Q 1356 3103 1142 2972 
Q 928 2841 928 2578 
Q 928 2378 1081 2264 
Q 1234 2150 1697 2047 
L 1894 2003 
Q 2506 1872 2764 1633 
Q 3022 1394 3022 966 
Q 3022 478 2636 193 
Q 2250 -91 1575 -91 
Q 1294 -91 989 -36 
Q 684 19 347 128 
L 347 722 
Q 666 556 975 473 
Q 1284 391 1588 391 
Q 1994 391 2212 530 
Q 2431 669 2431 922 
Q 2431 1156 2273 1281 
Q 2116 1406 1581 1522 
L 1381 1569 
Q 847 1681 609 1914 
Q 372 2147 372 2553 
Q 372 3047 722 3315 
Q 1072 3584 1716 3584 
Q 2034 3584 2315 3537 
Q 2597 3491 2834 3397 
z
" id="DejaVuSans-73" transform="scale(0.015625)"/>
       <path d="M 3513 2113 
L 3513 0 
L 2938 0 
L 2938 2094 
Q 2938 2591 2744 2837 
Q 2550 3084 2163 3084 
Q 1697 3084 1428 2787 
Q 1159 2491 1159 1978 
L 1159 0 
L 581 0 
L 581 4863 
L 1159 4863 
L 1159 2956 
Q 1366 3272 1645 3428 
Q 1925 3584 2291 3584 
Q 2894 3584 3203 3211 
Q 3513 2838 3513 2113 
z
" id="DejaVuSans-68" transform="scale(0.015625)"/>
       <path d="M 603 4863 
L 1178 4863 
L 1178 0 
L 603 0 
L 603 4863 
z
" id="DejaVuSans-6c" transform="scale(0.015625)"/>
       <path d="M 2906 2969 
L 2906 4863 
L 3481 4863 
L 3481 0 
L 2906 0 
L 2906 525 
Q 2725 213 2448 61 
Q 2172 -91 1784 -91 
Q 1150 -91 751 415 
Q 353 922 353 1747 
Q 353 2572 751 3078 
Q 1150 3584 1784 3584 
Q 2172 3584 2448 3432 
Q 2725 3281 2906 2969 
z
M 947 1747 
Q 947 1113 1208 752 
Q 1469 391 1925 391 
Q 2381 391 2643 752 
Q 2906 1113 2906 1747 
Q 2906 2381 2643 2742 
Q 2381 3103 1925 3103 
Q 1469 3103 1208 2742 
Q 947 2381 947 1747 
z
" id="DejaVuSans-64" transform="scale(0.015625)"/>
      </defs>
      <use xlink:href="#DejaVuSans-50"/>
      <use x="56.677734" xlink:href="#DejaVuSans-65"/>
      <use x="118.201172" xlink:href="#DejaVuSans-72"/>
      <use x="157.064453" xlink:href="#DejaVuSans-63"/>
      <use x="212.044922" xlink:href="#DejaVuSans-65"/>
      <use x="273.568359" xlink:href="#DejaVuSans-6e"/>
      <use x="336.947266" xlink:href="#DejaVuSans-74"/>
      <use x="376.15625" xlink:href="#DejaVuSans-61"/>
      <use x="437.435547" xlink:href="#DejaVuSans-67"/>
      <use x="500.912109" xlink:href="#DejaVuSans-65"/>
      <use x="562.435547" xlink:href="#DejaVuSans-20"/>
      <use x="594.222656" xlink:href="#DejaVuSans-6f"/>
      <use x="655.404297" xlink:href="#DejaVuSans-66"/>
      <use x="690.609375" xlink:href="#DejaVuSans-20"/>
      <use x="722.396484" xlink:href="#DejaVuSans-5a"/>
      <use x="790.902344" xlink:href="#DejaVuSans-65"/>
      <use x="852.425781" xlink:href="#DejaVuSans-72"/>
      <use x="891.289062" xlink:href="#DejaVuSans-6f"/>
      <use x="954.345703" xlink:href="#DejaVuSans-2d"/>
      <use x="990.429688" xlink:href="#DejaVuSans-43"/>
      <use x="1060.253906" xlink:href="#DejaVuSans-61"/>
      <use x="1121.533203" xlink:href="#DejaVuSans-72"/>
      <use x="1162.646484" xlink:href="#DejaVuSans-20"/>
      <use x="1194.433594" xlink:href="#DejaVuSans-48"/>
      <use x="1269.628906" xlink:href="#DejaVuSans-6f"/>
      <use x="1330.810547" xlink:href="#DejaVuSans-75"/>
      <use x="1394.189453" xlink:href="#DejaVuSans-73"/>
      <use x="1446.289062" xlink:href="#DejaVuSans-65"/>
      <use x="1507.8125" xlink:href="#DejaVuSans-68"/>
      <use x="1571.191406" xlink:href="#DejaVuSans-6f"/>
      <use x="1632.373047" xlink:href="#DejaVuSans-6c"/>
      <use x="1660.15625" xlink:href="#DejaVuSans-64"/>
      <use x="1723.632812" xlink:href="#DejaVuSans-73"/>
     </g>
    </g>
   </g>
   <g id="matplotlib.axis_2">
    <g id="ytick_1">
     <g id="line2d_13">
      <path clip-path="url(#p318170cd83)" d="M 47.72 387.57014 
L 421.2 387.57014 
" style="fill:none;stroke:#b0b0b0;stroke-dasharray:2.96,1.28;stroke-dashoffset:0;stroke-opacity:0.5;stroke-width:0.8;"/>
     </g>
     <g id="line2d_14">
      <defs>
       <path d="M 0 0 
L -3.5 0 
" id="m4ce4a21a2e" style="stroke:#000000;stroke-width:0.8;"/>
      </defs>
      <g>
       <use style="stroke:#000000;stroke-width:0.8;" x="47.72" xlink:href="#m4ce4a21a2e" y="387.57014"/>
      </g>
     </g>
     <g id="text_8">
      <!-- 0.0 -->
      <g transform="translate(24.816875 391.369359)scale(0.1 -0.1)">
       <use xlink:href="#DejaVuSans-30"/>
       <use x="63.623047" xlink:href="#DejaVuSans-2e"/>
       <use x="95.410156" xlink:href="#DejaVuSans-30"/>
      </g>
     </g>
    </g>
    <g id="ytick_2">
     <g id="line2d_15">
      <path clip-path="url(#p318170cd83)" d="M 47.72 334.660844 
L 421.2 334.660844 
" style="fill:none;stroke:#b0b0b0;stroke-dasharray:2.96,1.28;stroke-dashoffset:0;stroke-opacity:0.5;stroke-width:0.8;"/>
     </g>
     <g id="line2d_16">
      <g>
       <use style="stroke:#000000;stroke-width:0.8;" x="47.72" xlink:href="#m4ce4a21a2e" y="334.660844"/>
      </g>
     </g>
     <g id="text_9">
      <!-- 0.2 -->
      <g transform="translate(24.816875 338.460063)scale(0.1 -0.1)">
       <use xlink:href="#DejaVuSans-30"/>
       <use x="63.623047" xlink:href="#DejaVuSans-2e"/>
       <use x="95.410156" xlink:href="#DejaVuSans-32"/>
      </g>
     </g>
    </g>
    <g id="ytick_3">
     <g id="line2d_17">
      <path clip-path="url(#p318170cd83)" d="M 47.72 281.751548 
L 421.2 281.751548 
" style="fill:none;stroke:#b0b0b0;stroke-dasharray:2.96,1.28;stroke-dashoffset:0;stroke-opacity:0.5;stroke-width:0.8;"/>
     </g>
     <g id="line2d_18">
      <g>
       <use style="stroke:#000000;stroke-width:0.8;" x="47.72" xlink:href="#m4ce4a21a2e" y="281.751548"/>
      </g>
     </g>
     <g id="text_10">
      <!-- 0.4 -->
      <g transform="translate(24.816875 285.550767)scale(0.1 -0.1)">
       <use xlink:href="#DejaVuSans-30"/>
       <use x="63.623047" xlink:href="#DejaVuSans-2e"/>
       <use x="95.410156" xlink:href="#DejaVuSans-34"/>
      </g>
     </g>
    </g>
    <g id="ytick_4">
     <g id="line2d_19">
      <path clip-path="url(#p318170cd83)" d="M 47.72 228.842252 
L 421.2 228.842252 
" style="fill:none;stroke:#b0b0b0;stroke-dasharray:2.96,1.28;stroke-dashoffset:0;stroke-opacity:0.5;stroke-width:0.8;"/>
     </g>
     <g id="line2d_20">
      <g>
       <use style="stroke:#000000;stroke-width:0.8;" x="47.72" xlink:href="#m4ce4a21a2e" y="228.842252"/>
      </g>
     </g>
     <g id="text_11">
      <!-- 0.6 -->
      <g transform="translate(24.816875 232.641471)scale(0.1 -0.1)">
       <defs>
        <path d="M 2113 2584 
Q 1688 2584 1439 2293 
Q 1191 2003 1191 1497 
Q 1191 994 1439 701 
Q 1688 409 2113 409 
Q 2538 409 2786 701 
Q 3034 994 3034 1497 
Q 3034 2003 2786 2293 
Q 2538 2584 2113 2584 
z
M 3366 4563 
L 3366 3988 
Q 3128 4100 2886 4159 
Q 2644 4219 2406 4219 
Q 1781 4219 1451 3797 
Q 1122 3375 1075 2522 
Q 1259 2794 1537 2939 
Q 1816 3084 2150 3084 
Q 2853 3084 3261 2657 
Q 3669 2231 3669 1497 
Q 3669 778 3244 343 
Q 2819 -91 2113 -91 
Q 1303 -91 875 529 
Q 447 1150 447 2328 
Q 447 3434 972 4092 
Q 1497 4750 2381 4750 
Q 2619 4750 2861 4703 
Q 3103 4656 3366 4563 
z
" id="DejaVuSans-36" transform="scale(0.015625)"/>
       </defs>
       <use xlink:href="#DejaVuSans-30"/>
       <use x="63.623047" xlink:href="#DejaVuSans-2e"/>
       <use x="95.410156" xlink:href="#DejaVuSans-36"/>
      </g>
     </g>
    </g>
    <g id="ytick_5">
     <g id="line2d_21">
      <path clip-path="url(#p318170cd83)" d="M 47.72 175.932956 
L 421.2 175.932956 
" style="fill:none;stroke:#b0b0b0;stroke-dasharray:2.96,1.28;stroke-dashoffset:0;stroke-opacity:0.5;stroke-width:0.8;"/>
     </g>
     <g id="line2d_22">
      <g>
       <use style="stroke:#000000;stroke-width:0.8;" x="47.72" xlink:href="#m4ce4a21a2e" y="175.932956"/>
      </g>
     </g>
     <g id="text_12">
      <!-- 0.8 -->
      <g transform="translate(24.816875 179.732175)scale(0.1 -0.1)">
       <defs>
        <path d="M 2034 2216 
Q 1584 2216 1326 1975 
Q 1069 1734 1069 1313 
Q 1069 891 1326 650 
Q 1584 409 2034 409 
Q 2484 409 2743 651 
Q 3003 894 3003 1313 
Q 3003 1734 2745 1975 
Q 2488 2216 2034 2216 
z
M 1403 2484 
Q 997 2584 770 2862 
Q 544 3141 544 3541 
Q 544 4100 942 4425 
Q 1341 4750 2034 4750 
Q 2731 4750 3128 4425 
Q 3525 4100 3525 3541 
Q 3525 3141 3298 2862 
Q 3072 2584 2669 2484 
Q 3125 2378 3379 2068 
Q 3634 1759 3634 1313 
Q 3634 634 3220 271 
Q 2806 -91 2034 -91 
Q 1263 -91 848 271 
Q 434 634 434 1313 
Q 434 1759 690 2068 
Q 947 2378 1403 2484 
z
M 1172 3481 
Q 1172 3119 1398 2916 
Q 1625 2713 2034 2713 
Q 2441 2713 2670 2916 
Q 2900 3119 2900 3481 
Q 2900 3844 2670 4047 
Q 2441 4250 2034 4250 
Q 1625 4250 1398 4047 
Q 1172 3844 1172 3481 
z
" id="DejaVuSans-38" transform="scale(0.015625)"/>
       </defs>
       <use xlink:href="#DejaVuSans-30"/>
       <use x="63.623047" xlink:href="#DejaVuSans-2e"/>
       <use x="95.410156" xlink:href="#DejaVuSans-38"/>
      </g>
     </g>
    </g>
    <g id="ytick_6">
     <g id="line2d_23">
      <path clip-path="url(#p318170cd83)" d="M 47.72 123.02366 
L 421.2 123.02366 
" style="fill:none;stroke:#b0b0b0;stroke-dasharray:2.96,1.28;stroke-dashoffset:0;stroke-opacity:0.5;stroke-width:0.8;"/>
     </g>
     <g id="line2d_24">
      <g>
       <use style="stroke:#000000;stroke-width:0.8;" x="47.72" xlink:href="#m4ce4a21a2e" y="123.02366"/>
      </g>
     </g>
     <g id="text_13">
      <!-- 1.0 -->
      <g transform="translate(24.816875 126.822879)scale(0.1 -0.1)">
       <use xlink:href="#DejaVuSans-31"/>
       <use x="63.623047" xlink:href="#DejaVuSans-2e"/>
       <use x="95.410156" xlink:href="#DejaVuSans-30"/>
      </g>
     </g>
    </g>
    <g id="ytick_7">
     <g id="line2d_25">
      <path clip-path="url(#p318170cd83)" d="M 47.72 70.114364 
L 421.2 70.114364 
" style="fill:none;stroke:#b0b0b0;stroke-dasharray:2.96,1.28;stroke-dashoffset:0;stroke-opacity:0.5;stroke-width:0.8;"/>
     </g>
     <g id="line2d_26">
      <g>
       <use style="stroke:#000000;stroke-width:0.8;" x="47.72" xlink:href="#m4ce4a21a2e" y="70.114364"/>
      </g>
     </g>
     <g id="text_14">
      <!-- 1.2 -->
      <g transform="translate(24.816875 73.913583)scale(0.1 -0.1)">
       <use xlink:href="#DejaVuSans-31"/>
       <use x="63.623047" xlink:href="#DejaVuSans-2e"/>
       <use x="95.410156" xlink:href="#DejaVuSans-32"/>
      </g>
     </g>
    </g>
    <g id="text_15">
     <!-- Percentage of Residents Who Are BIPOC -->
     <g transform="translate(18.737188 308.610781)rotate(-90)scale(0.1 -0.1)">
      <defs>
       <path d="M 2841 2188 
Q 3044 2119 3236 1894 
Q 3428 1669 3622 1275 
L 4263 0 
L 3584 0 
L 2988 1197 
Q 2756 1666 2539 1819 
Q 2322 1972 1947 1972 
L 1259 1972 
L 1259 0 
L 628 0 
L 628 4666 
L 2053 4666 
Q 2853 4666 3247 4331 
Q 3641 3997 3641 3322 
Q 3641 2881 3436 2590 
Q 3231 2300 2841 2188 
z
M 1259 4147 
L 1259 2491 
L 2053 2491 
Q 2509 2491 2742 2702 
Q 2975 2913 2975 3322 
Q 2975 3731 2742 3939 
Q 2509 4147 2053 4147 
L 1259 4147 
z
" id="DejaVuSans-52" transform="scale(0.015625)"/>
       <path d="M 603 3500 
L 1178 3500 
L 1178 0 
L 603 0 
L 603 3500 
z
M 603 4863 
L 1178 4863 
L 1178 4134 
L 603 4134 
L 603 4863 
z
" id="DejaVuSans-69" transform="scale(0.015625)"/>
       <path d="M 213 4666 
L 850 4666 
L 1831 722 
L 2809 4666 
L 3519 4666 
L 4500 722 
L 5478 4666 
L 6119 4666 
L 4947 0 
L 4153 0 
L 3169 4050 
L 2175 0 
L 1381 0 
L 213 4666 
z
" id="DejaVuSans-57" transform="scale(0.015625)"/>
       <path d="M 2188 4044 
L 1331 1722 
L 3047 1722 
L 2188 4044 
z
M 1831 4666 
L 2547 4666 
L 4325 0 
L 3669 0 
L 3244 1197 
L 1141 1197 
L 716 0 
L 50 0 
L 1831 4666 
z
" id="DejaVuSans-41" transform="scale(0.015625)"/>
       <path d="M 1259 2228 
L 1259 519 
L 2272 519 
Q 2781 519 3026 730 
Q 3272 941 3272 1375 
Q 3272 1813 3026 2020 
Q 2781 2228 2272 2228 
L 1259 2228 
z
M 1259 4147 
L 1259 2741 
L 2194 2741 
Q 2656 2741 2882 2914 
Q 3109 3088 3109 3444 
Q 3109 3797 2882 3972 
Q 2656 4147 2194 4147 
L 1259 4147 
z
M 628 4666 
L 2241 4666 
Q 2963 4666 3353 4366 
Q 3744 4066 3744 3513 
Q 3744 3084 3544 2831 
Q 3344 2578 2956 2516 
Q 3422 2416 3680 2098 
Q 3938 1781 3938 1306 
Q 3938 681 3513 340 
Q 3088 0 2303 0 
L 628 0 
L 628 4666 
z
" id="DejaVuSans-42" transform="scale(0.015625)"/>
       <path d="M 628 4666 
L 1259 4666 
L 1259 0 
L 628 0 
L 628 4666 
z
" id="DejaVuSans-49" transform="scale(0.015625)"/>
       <path d="M 2522 4238 
Q 1834 4238 1429 3725 
Q 1025 3213 1025 2328 
Q 1025 1447 1429 934 
Q 1834 422 2522 422 
Q 3209 422 3611 934 
Q 4013 1447 4013 2328 
Q 4013 3213 3611 3725 
Q 3209 4238 2522 4238 
z
M 2522 4750 
Q 3503 4750 4090 4092 
Q 4678 3434 4678 2328 
Q 4678 1225 4090 567 
Q 3503 -91 2522 -91 
Q 1538 -91 948 565 
Q 359 1222 359 2328 
Q 359 3434 948 4092 
Q 1538 4750 2522 4750 
z
" id="DejaVuSans-4f" transform="scale(0.015625)"/>
      </defs>
      <use xlink:href="#DejaVuSans-50"/>
      <use x="56.677734" xlink:href="#DejaVuSans-65"/>
      <use x="118.201172" xlink:href="#DejaVuSans-72"/>
      <use x="157.064453" xlink:href="#DejaVuSans-63"/>
      <use x="212.044922" xlink:href="#DejaVuSans-65"/>
      <use x="273.568359" xlink:href="#DejaVuSans-6e"/>
      <use x="336.947266" xlink:href="#DejaVuSans-74"/>
      <use x="376.15625" xlink:href="#DejaVuSans-61"/>
      <use x="437.435547" xlink:href="#DejaVuSans-67"/>
      <use x="500.912109" xlink:href="#DejaVuSans-65"/>
      <use x="562.435547" xlink:href="#DejaVuSans-20"/>
      <use x="594.222656" xlink:href="#DejaVuSans-6f"/>
      <use x="655.404297" xlink:href="#DejaVuSans-66"/>
      <use x="690.609375" xlink:href="#DejaVuSans-20"/>
      <use x="722.396484" xlink:href="#DejaVuSans-52"/>
      <use x="787.378906" xlink:href="#DejaVuSans-65"/>
      <use x="848.902344" xlink:href="#DejaVuSans-73"/>
      <use x="901.001953" xlink:href="#DejaVuSans-69"/>
      <use x="928.785156" xlink:href="#DejaVuSans-64"/>
      <use x="992.261719" xlink:href="#DejaVuSans-65"/>
      <use x="1053.785156" xlink:href="#DejaVuSans-6e"/>
      <use x="1117.164062" xlink:href="#DejaVuSans-74"/>
      <use x="1156.373047" xlink:href="#DejaVuSans-73"/>
      <use x="1208.472656" xlink:href="#DejaVuSans-20"/>
      <use x="1240.259766" xlink:href="#DejaVuSans-57"/>
      <use x="1339.136719" xlink:href="#DejaVuSans-68"/>
      <use x="1402.515625" xlink:href="#DejaVuSans-6f"/>
      <use x="1463.697266" xlink:href="#DejaVuSans-20"/>
      <use x="1495.484375" xlink:href="#DejaVuSans-41"/>
      <use x="1563.892578" xlink:href="#DejaVuSans-72"/>
      <use x="1602.755859" xlink:href="#DejaVuSans-65"/>
      <use x="1664.279297" xlink:href="#DejaVuSans-20"/>
      <use x="1696.066406" xlink:href="#DejaVuSans-42"/>
      <use x="1764.669922" xlink:href="#DejaVuSans-49"/>
      <use x="1794.162109" xlink:href="#DejaVuSans-50"/>
      <use x="1854.464844" xlink:href="#DejaVuSans-4f"/>
      <use x="1933.175781" xlink:href="#DejaVuSans-43"/>
     </g>
    </g>
   </g>
   <g id="line2d_27">
    <path clip-path="url(#p318170cd83)" d="M 64.696364 324.54478 
L 68.125932 321.973644 
L 71.5555 319.402508 
L 74.985069 316.831372 
L 78.414637 314.260236 
L 81.844206 311.6891 
L 85.273774 309.117964 
L 88.703343 306.546828 
L 92.132911 303.975692 
L 95.562479 301.404556 
L 98.992048 298.83342 
L 102.421616 296.262283 
L 105.851185 293.691147 
L 109.280753 291.120011 
L 112.710321 288.548875 
L 116.13989 285.977739 
L 119.569458 283.406603 
L 122.999027 280.835467 
L 126.428595 278.264331 
L 129.858163 275.693195 
L 133.287732 273.122059 
L 136.7173 270.550923 
L 140.146869 267.979787 
L 143.576437 265.408651 
L 147.006006 262.837515 
L 150.435574 260.266379 
L 153.865142 257.695243 
L 157.294711 255.124107 
L 160.724279 252.552971 
L 164.153848 249.981834 
L 167.583416 247.410698 
L 171.012984 244.839562 
L 174.442553 242.268426 
L 177.872121 239.69729 
L 181.30169 237.126154 
L 184.731258 234.555018 
L 188.160826 231.983882 
L 191.590395 229.412746 
L 195.019963 226.84161 
L 198.449532 224.270474 
L 201.8791 221.699338 
L 205.308669 219.128202 
L 208.738237 216.557066 
L 212.167805 213.98593 
L 215.597374 211.414794 
L 219.026942 208.843658 
L 222.456511 206.272521 
L 225.886079 203.701385 
L 229.315647 201.130249 
L 232.745216 198.559113 
L 236.174784 195.987977 
L 239.604353 193.416841 
L 243.033921 190.845705 
L 246.463489 188.274569 
L 249.893058 185.703433 
L 253.322626 183.132297 
L 256.752195 180.561161 
L 260.181763 177.990025 
L 263.611331 175.418889 
L 267.0409 172.847753 
L 270.470468 170.276617 
L 273.900037 167.705481 
L 277.329605 165.134345 
L 280.759174 162.563209 
L 284.188742 159.992072 
L 287.61831 157.420936 
L 291.047879 154.8498 
L 294.477447 152.278664 
L 297.907016 149.707528 
L 301.336584 147.136392 
L 304.766152 144.565256 
L 308.195721 141.99412 
L 311.625289 139.422984 
L 315.054858 136.851848 
L 318.484426 134.280712 
L 321.913994 131.709576 
L 325.343563 129.13844 
L 328.773131 126.567304 
L 332.2027 123.996168 
L 335.632268 121.425032 
L 339.061837 118.853896 
L 342.491405 116.282759 
L 345.920973 113.711623 
L 349.350542 111.140487 
L 352.78011 108.569351 
L 356.209679 105.998215 
L 359.639247 103.427079 
L 363.068815 100.855943 
L 366.498384 98.284807 
L 369.927952 95.713671 
L 373.357521 93.142535 
L 376.787089 90.571399 
L 380.216657 88.000263 
L 383.646226 85.429127 
L 387.075794 82.857991 
L 390.505363 80.286855 
L 393.934931 77.715719 
L 397.3645 75.144583 
L 400.794068 72.573447 
L 404.223636 70.00231 
" style="fill:none;stroke:#1f77b4;stroke-linecap:square;stroke-width:2.25;"/>
   </g>
   <g id="patch_3">
    <path d="M 47.72 390.04 
L 47.72 26.88 
" style="fill:none;stroke:#000000;stroke-linecap:square;stroke-linejoin:miter;stroke-width:0.8;"/>
   </g>
   <g id="patch_4">
    <path d="M 421.2 390.04 
L 421.2 26.88 
" style="fill:none;stroke:#000000;stroke-linecap:square;stroke-linejoin:miter;stroke-width:0.8;"/>
   </g>
   <g id="patch_5">
    <path d="M 47.72 390.04 
L 421.2 390.04 
" style="fill:none;stroke:#000000;stroke-linecap:square;stroke-linejoin:miter;stroke-width:0.8;"/>
   </g>
   <g id="patch_6">
    <path d="M 47.72 26.88 
L 421.2 26.88 
" style="fill:none;stroke:#000000;stroke-linecap:square;stroke-linejoin:miter;stroke-width:0.8;"/>
   </g>
   <g id="text_16">
    <!-- PCC: 0.76 -->
    <g transform="translate(66.394 45.038)scale(0.1 -0.1)">
     <defs>
      <path d="M 750 794 
L 1409 794 
L 1409 0 
L 750 0 
L 750 794 
z
M 750 3309 
L 1409 3309 
L 1409 2516 
L 750 2516 
L 750 3309 
z
" id="DejaVuSans-3a" transform="scale(0.015625)"/>
      <path d="M 525 4666 
L 3525 4666 
L 3525 4397 
L 1831 0 
L 1172 0 
L 2766 4134 
L 525 4134 
L 525 4666 
z
" id="DejaVuSans-37" transform="scale(0.015625)"/>
     </defs>
     <use xlink:href="#DejaVuSans-50"/>
     <use x="60.302734" xlink:href="#DejaVuSans-43"/>
     <use x="130.126953" xlink:href="#DejaVuSans-43"/>
     <use x="199.951172" xlink:href="#DejaVuSans-3a"/>
     <use x="233.642578" xlink:href="#DejaVuSans-20"/>
     <use x="265.429688" xlink:href="#DejaVuSans-30"/>
     <use x="329.052734" xlink:href="#DejaVuSans-2e"/>
     <use x="360.839844" xlink:href="#DejaVuSans-37"/>
     <use x="424.462891" xlink:href="#DejaVuSans-36"/>
    </g>
   </g>
   <g id="text_17">
    <!-- Zero-Car Households and BIPOC Residents, St. Louis City Census Tracts -->
    <g transform="translate(20.456875 20.88)scale(0.12 -0.12)">
     <defs>
      <path d="M 750 794 
L 1409 794 
L 1409 256 
L 897 -744 
L 494 -744 
L 750 256 
L 750 794 
z
" id="DejaVuSans-2c" transform="scale(0.015625)"/>
      <path d="M 3425 4513 
L 3425 3897 
Q 3066 4069 2747 4153 
Q 2428 4238 2131 4238 
Q 1616 4238 1336 4038 
Q 1056 3838 1056 3469 
Q 1056 3159 1242 3001 
Q 1428 2844 1947 2747 
L 2328 2669 
Q 3034 2534 3370 2195 
Q 3706 1856 3706 1288 
Q 3706 609 3251 259 
Q 2797 -91 1919 -91 
Q 1588 -91 1214 -16 
Q 841 59 441 206 
L 441 856 
Q 825 641 1194 531 
Q 1563 422 1919 422 
Q 2459 422 2753 634 
Q 3047 847 3047 1241 
Q 3047 1584 2836 1778 
Q 2625 1972 2144 2069 
L 1759 2144 
Q 1053 2284 737 2584 
Q 422 2884 422 3419 
Q 422 4038 858 4394 
Q 1294 4750 2059 4750 
Q 2388 4750 2728 4690 
Q 3069 4631 3425 4513 
z
" id="DejaVuSans-53" transform="scale(0.015625)"/>
      <path d="M 628 4666 
L 1259 4666 
L 1259 531 
L 3531 531 
L 3531 0 
L 628 0 
L 628 4666 
z
" id="DejaVuSans-4c" transform="scale(0.015625)"/>
      <path d="M 2059 -325 
Q 1816 -950 1584 -1140 
Q 1353 -1331 966 -1331 
L 506 -1331 
L 506 -850 
L 844 -850 
Q 1081 -850 1212 -737 
Q 1344 -625 1503 -206 
L 1606 56 
L 191 3500 
L 800 3500 
L 1894 763 
L 2988 3500 
L 3597 3500 
L 2059 -325 
z
" id="DejaVuSans-79" transform="scale(0.015625)"/>
      <path d="M -19 4666 
L 3928 4666 
L 3928 4134 
L 2272 4134 
L 2272 0 
L 1638 0 
L 1638 4134 
L -19 4134 
L -19 4666 
z
" id="DejaVuSans-54" transform="scale(0.015625)"/>
     </defs>
     <use xlink:href="#DejaVuSans-5a"/>
     <use x="68.505859" xlink:href="#DejaVuSans-65"/>
     <use x="130.029297" xlink:href="#DejaVuSans-72"/>
     <use x="168.892578" xlink:href="#DejaVuSans-6f"/>
     <use x="231.949219" xlink:href="#DejaVuSans-2d"/>
     <use x="268.033203" xlink:href="#DejaVuSans-43"/>
     <use x="337.857422" xlink:href="#DejaVuSans-61"/>
     <use x="399.136719" xlink:href="#DejaVuSans-72"/>
     <use x="440.25" xlink:href="#DejaVuSans-20"/>
     <use x="472.037109" xlink:href="#DejaVuSans-48"/>
     <use x="547.232422" xlink:href="#DejaVuSans-6f"/>
     <use x="608.414062" xlink:href="#DejaVuSans-75"/>
     <use x="671.792969" xlink:href="#DejaVuSans-73"/>
     <use x="723.892578" xlink:href="#DejaVuSans-65"/>
     <use x="785.416016" xlink:href="#DejaVuSans-68"/>
     <use x="848.794922" xlink:href="#DejaVuSans-6f"/>
     <use x="909.976562" xlink:href="#DejaVuSans-6c"/>
     <use x="937.759766" xlink:href="#DejaVuSans-64"/>
     <use x="1001.236328" xlink:href="#DejaVuSans-73"/>
     <use x="1053.335938" xlink:href="#DejaVuSans-20"/>
     <use x="1085.123047" xlink:href="#DejaVuSans-61"/>
     <use x="1146.402344" xlink:href="#DejaVuSans-6e"/>
     <use x="1209.78125" xlink:href="#DejaVuSans-64"/>
     <use x="1273.257812" xlink:href="#DejaVuSans-20"/>
     <use x="1305.044922" xlink:href="#DejaVuSans-42"/>
     <use x="1373.648438" xlink:href="#DejaVuSans-49"/>
     <use x="1403.140625" xlink:href="#DejaVuSans-50"/>
     <use x="1463.443359" xlink:href="#DejaVuSans-4f"/>
     <use x="1542.154297" xlink:href="#DejaVuSans-43"/>
     <use x="1611.978516" xlink:href="#DejaVuSans-20"/>
     <use x="1643.765625" xlink:href="#DejaVuSans-52"/>
     <use x="1708.748047" xlink:href="#DejaVuSans-65"/>
     <use x="1770.271484" xlink:href="#DejaVuSans-73"/>
     <use x="1822.371094" xlink:href="#DejaVuSans-69"/>
     <use x="1850.154297" xlink:href="#DejaVuSans-64"/>
     <use x="1913.630859" xlink:href="#DejaVuSans-65"/>
     <use x="1975.154297" xlink:href="#DejaVuSans-6e"/>
     <use x="2038.533203" xlink:href="#DejaVuSans-74"/>
     <use x="2077.742188" xlink:href="#DejaVuSans-73"/>
     <use x="2129.841797" xlink:href="#DejaVuSans-2c"/>
     <use x="2161.628906" xlink:href="#DejaVuSans-20"/>
     <use x="2193.416016" xlink:href="#DejaVuSans-53"/>
     <use x="2256.892578" xlink:href="#DejaVuSans-74"/>
     <use x="2296.101562" xlink:href="#DejaVuSans-2e"/>
     <use x="2327.888672" xlink:href="#DejaVuSans-20"/>
     <use x="2359.675781" xlink:href="#DejaVuSans-4c"/>
     <use x="2413.638672" xlink:href="#DejaVuSans-6f"/>
     <use x="2474.820312" xlink:href="#DejaVuSans-75"/>
     <use x="2538.199219" xlink:href="#DejaVuSans-69"/>
     <use x="2565.982422" xlink:href="#DejaVuSans-73"/>
     <use x="2618.082031" xlink:href="#DejaVuSans-20"/>
     <use x="2649.869141" xlink:href="#DejaVuSans-43"/>
     <use x="2719.693359" xlink:href="#DejaVuSans-69"/>
     <use x="2747.476562" xlink:href="#DejaVuSans-74"/>
     <use x="2786.685547" xlink:href="#DejaVuSans-79"/>
     <use x="2845.865234" xlink:href="#DejaVuSans-20"/>
     <use x="2877.652344" xlink:href="#DejaVuSans-43"/>
     <use x="2947.476562" xlink:href="#DejaVuSans-65"/>
     <use x="3009" xlink:href="#DejaVuSans-6e"/>
     <use x="3072.378906" xlink:href="#DejaVuSans-73"/>
     <use x="3124.478516" xlink:href="#DejaVuSans-75"/>
     <use x="3187.857422" xlink:href="#DejaVuSans-73"/>
     <use x="3239.957031" xlink:href="#DejaVuSans-20"/>
     <use x="3271.744141" xlink:href="#DejaVuSans-54"/>
     <use x="3318.078125" xlink:href="#DejaVuSans-72"/>
     <use x="3359.191406" xlink:href="#DejaVuSans-61"/>
     <use x="3420.470703" xlink:href="#DejaVuSans-63"/>
     <use x="3475.451172" xlink:href="#DejaVuSans-74"/>
     <use x="3514.660156" xlink:href="#DejaVuSans-73"/>
    </g>
   </g>
  </g>
 </g>
 <defs>
  <clipPath id="p318170cd83">
   <rect height="363.16" width="373.48" x="47.72" y="26.88"/>
  </clipPath>
 </defs>
</svg>
