<?xml version="1.0" encoding="utf-8" standalone="no"?>
<!DOCTYPE svg PUBLIC "-//W3C//DTD SVG 1.1//EN"
  "http://www.w3.org/Graphics/SVG/1.1/DTD/svg11.dtd">
<svg height="432pt" version="1.1" viewBox="0 0 432 432" width="432pt" xmlns="http://www.w3.org/2000/svg" xmlns:xlink="http://www.w3.org/1999/xlink">
 <metadata>
  <rdf:RDF xmlns:cc="http://creativecommons.org/ns#" xmlns:dc="http://purl.org/dc/elements/1.1/" xmlns:rdf="http://www.w3.org/1999/02/22-rdf-syntax-ns#">
   <cc:Work>
    <dc:type rdf:resource="http://purl.org/dc/dcmitype/StillImage"/>
    <dc:date>2025-03-30T22:20:29.014699</dc:date>
    <dc:format>image/svg+xml</dc:format>
    <dc:creator>
     <cc:Agent>
      <dc:title>Matplotlib v3.4.2, https://matplotlib.org/</dc:title>
     </cc:Agent>
    </dc:creator>
   </cc:Work>
  </rdf:RDF>
 </metadata>
 <defs>
  <style type="text/css">*{stroke-linecap:butt;stroke-linejoin:round;}</style>
 </defs>
 <g id="figure_1">
  <g id="patch_1">
   <path d="M 0 432 
L 432 432 
L 432 0 
L 0 0 
z
" style="fill:#ffffff;"/>
  </g>
  <g id="axes_1">
   <g id="patch_2">
    <path d="M 78.14 390.04 
L 421.2 390.04 
L 421.2 26.88 
L 78.14 26.88 
z
" style="fill:#ffffff;"/>
   </g>
   <g id="PathCollection_1">
    <defs>
     <path d="M 0 3 
C 0.795609 3 1.55874 2.683901 2.12132 2.12132 
C 2.683901 1.55874 3 0.795609 3 0 
C 3 -0.795609 2.683901 -1.55874 2.12132 -2.12132 
C 1.55874 -2.683901 0.795609 -3 0 -3 
C -0.795609 -3 -1.55874 -2.683901 -2.12132 -2.12132 
C -2.683901 -1.55874 -3 -0.795609 -3 0 
C -3 0.795609 -2.683901 1.55874 -2.12132 2.12132 
C -1.55874 2.683901 -0.795609 3 0 3 
z
" id="m33213d7053" style="stroke:#1f77b4;stroke-opacity:0.5;"/>
    </defs>
    <g clip-path="url(#p812eff4066)">
     <use style="fill:#1f77b4;fill-opacity:0.5;stroke:#1f77b4;stroke-opacity:0.5;" x="106.384382" xlink:href="#m33213d7053" y="65.829569"/>
     <use style="fill:#1f77b4;fill-opacity:0.5;stroke:#1f77b4;stroke-opacity:0.5;" x="107.160826" xlink:href="#m33213d7053" y="370.551957"/>
     <use style="fill:#1f77b4;fill-opacity:0.5;stroke:#1f77b4;stroke-opacity:0.5;" x="123.82125" xlink:href="#m33213d7053" y="60.092295"/>
     <use style="fill:#1f77b4;fill-opacity:0.5;stroke:#1f77b4;stroke-opacity:0.5;" x="151.293784" xlink:href="#m33213d7053" y="66.800031"/>
     <use style="fill:#1f77b4;fill-opacity:0.5;stroke:#1f77b4;stroke-opacity:0.5;" x="198.392532" xlink:href="#m33213d7053" y="66.482027"/>
     <use style="fill:#1f77b4;fill-opacity:0.5;stroke:#1f77b4;stroke-opacity:0.5;" x="198.153271" xlink:href="#m33213d7053" y="68.471873"/>
     <use style="fill:#1f77b4;fill-opacity:0.5;stroke:#1f77b4;stroke-opacity:0.5;" x="145.174324" xlink:href="#m33213d7053" y="66.3148"/>
     <use style="fill:#1f77b4;fill-opacity:0.5;stroke:#1f77b4;stroke-opacity:0.5;" x="120.164979" xlink:href="#m33213d7053" y="61.123962"/>
     <use style="fill:#1f77b4;fill-opacity:0.5;stroke:#1f77b4;stroke-opacity:0.5;" x="124.635161" xlink:href="#m33213d7053" y="65.654255"/>
     <use style="fill:#1f77b4;fill-opacity:0.5;stroke:#1f77b4;stroke-opacity:0.5;" x="141.592636" xlink:href="#m33213d7053" y="68.235384"/>
     <use style="fill:#1f77b4;fill-opacity:0.5;stroke:#1f77b4;stroke-opacity:0.5;" x="127.655307" xlink:href="#m33213d7053" y="67.003957"/>
     <use style="fill:#1f77b4;fill-opacity:0.5;stroke:#1f77b4;stroke-opacity:0.5;" x="148.928616" xlink:href="#m33213d7053" y="68.280231"/>
     <use style="fill:#1f77b4;fill-opacity:0.5;stroke:#1f77b4;stroke-opacity:0.5;" x="109.58011" xlink:href="#m33213d7053" y="65.882595"/>
     <use style="fill:#1f77b4;fill-opacity:0.5;stroke:#1f77b4;stroke-opacity:0.5;" x="93.733636" xlink:href="#m33213d7053" y="67.056952"/>
     <use style="fill:#1f77b4;fill-opacity:0.5;stroke:#1f77b4;stroke-opacity:0.5;" x="112.149117" xlink:href="#m33213d7053" y="67.354616"/>
     <use style="fill:#1f77b4;fill-opacity:0.5;stroke:#1f77b4;stroke-opacity:0.5;" x="119.642217" xlink:href="#m33213d7053" y="64.553295"/>
     <use style="fill:#1f77b4;fill-opacity:0.5;stroke:#1f77b4;stroke-opacity:0.5;" x="111.471494" xlink:href="#m33213d7053" y="65.328011"/>
     <use style="fill:#1f77b4;fill-opacity:0.5;stroke:#1f77b4;stroke-opacity:0.5;" x="106.724878" xlink:href="#m33213d7053" y="67.081428"/>
     <use style="fill:#1f77b4;fill-opacity:0.5;stroke:#1f77b4;stroke-opacity:0.5;" x="168.583407" xlink:href="#m33213d7053" y="69.136553"/>
     <use style="fill:#1f77b4;fill-opacity:0.5;stroke:#1f77b4;stroke-opacity:0.5;" x="180.646786" xlink:href="#m33213d7053" y="68.86744"/>
     <use style="fill:#1f77b4;fill-opacity:0.5;stroke:#1f77b4;stroke-opacity:0.5;" x="319.613611" xlink:href="#m33213d7053" y="66.543171"/>
     <use style="fill:#1f77b4;fill-opacity:0.5;stroke:#1f77b4;stroke-opacity:0.5;" x="253.271011" xlink:href="#m33213d7053" y="67.18742"/>
     <use style="fill:#1f77b4;fill-opacity:0.5;stroke:#1f77b4;stroke-opacity:0.5;" x="281.962276" xlink:href="#m33213d7053" y="66.995778"/>
     <use style="fill:#1f77b4;fill-opacity:0.5;stroke:#1f77b4;stroke-opacity:0.5;" x="321.337885" xlink:href="#m33213d7053" y="65.976364"/>
     <use style="fill:#1f77b4;fill-opacity:0.5;stroke:#1f77b4;stroke-opacity:0.5;" x="248.825496" xlink:href="#m33213d7053" y="66.278132"/>
     <use style="fill:#1f77b4;fill-opacity:0.5;stroke:#1f77b4;stroke-opacity:0.5;" x="328.446906" xlink:href="#m33213d7053" y="66.771512"/>
     <use style="fill:#1f77b4;fill-opacity:0.5;stroke:#1f77b4;stroke-opacity:0.5;" x="321.918508" xlink:href="#m33213d7053" y="66.881608"/>
     <use style="fill:#1f77b4;fill-opacity:0.5;stroke:#1f77b4;stroke-opacity:0.5;" x="263.852445" xlink:href="#m33213d7053" y="67.056952"/>
     <use style="fill:#1f77b4;fill-opacity:0.5;stroke:#1f77b4;stroke-opacity:0.5;" x="340.374638" xlink:href="#m33213d7053" y="68.043712"/>
     <use style="fill:#1f77b4;fill-opacity:0.5;stroke:#1f77b4;stroke-opacity:0.5;" x="236.632981" xlink:href="#m33213d7053" y="64.516597"/>
     <use style="fill:#1f77b4;fill-opacity:0.5;stroke:#1f77b4;stroke-opacity:0.5;" x="214.937525" xlink:href="#m33213d7053" y="67.342393"/>
     <use style="fill:#1f77b4;fill-opacity:0.5;stroke:#1f77b4;stroke-opacity:0.5;" x="192.469021" xlink:href="#m33213d7053" y="65.111893"/>
     <use style="fill:#1f77b4;fill-opacity:0.5;stroke:#1f77b4;stroke-opacity:0.5;" x="160.533645" xlink:href="#m33213d7053" y="66.00084"/>
     <use style="fill:#1f77b4;fill-opacity:0.5;stroke:#1f77b4;stroke-opacity:0.5;" x="324.124271" xlink:href="#m33213d7053" y="66.857162"/>
     <use style="fill:#1f77b4;fill-opacity:0.5;stroke:#1f77b4;stroke-opacity:0.5;" x="215.731841" xlink:href="#m33213d7053" y="66.783734"/>
     <use style="fill:#1f77b4;fill-opacity:0.5;stroke:#1f77b4;stroke-opacity:0.5;" x="138.413192" xlink:href="#m33213d7053" y="65.968246"/>
     <use style="fill:#1f77b4;fill-opacity:0.5;stroke:#1f77b4;stroke-opacity:0.5;" x="263.619252" xlink:href="#m33213d7053" y="68.60237"/>
     <use style="fill:#1f77b4;fill-opacity:0.5;stroke:#1f77b4;stroke-opacity:0.5;" x="241.974388" xlink:href="#m33213d7053" y="67.945869"/>
     <use style="fill:#1f77b4;fill-opacity:0.5;stroke:#1f77b4;stroke-opacity:0.5;" x="308.449604" xlink:href="#m33213d7053" y="66.926485"/>
     <use style="fill:#1f77b4;fill-opacity:0.5;stroke:#1f77b4;stroke-opacity:0.5;" x="244.320286" xlink:href="#m33213d7053" y="66.151678"/>
     <use style="fill:#1f77b4;fill-opacity:0.5;stroke:#1f77b4;stroke-opacity:0.5;" x="261.501945" xlink:href="#m33213d7053" y="67.941794"/>
     <use style="fill:#1f77b4;fill-opacity:0.5;stroke:#1f77b4;stroke-opacity:0.5;" x="333.205426" xlink:href="#m33213d7053" y="67.342393"/>
     <use style="fill:#1f77b4;fill-opacity:0.5;stroke:#1f77b4;stroke-opacity:0.5;" x="270.685457" xlink:href="#m33213d7053" y="67.819445"/>
     <use style="fill:#1f77b4;fill-opacity:0.5;stroke:#1f77b4;stroke-opacity:0.5;" x="359.377241" xlink:href="#m33213d7053" y="67.27304"/>
     <use style="fill:#1f77b4;fill-opacity:0.5;stroke:#1f77b4;stroke-opacity:0.5;" x="313.676194" xlink:href="#m33213d7053" y="68.480052"/>
     <use style="fill:#1f77b4;fill-opacity:0.5;stroke:#1f77b4;stroke-opacity:0.5;" x="302.64217" xlink:href="#m33213d7053" y="68.011118"/>
     <use style="fill:#1f77b4;fill-opacity:0.5;stroke:#1f77b4;stroke-opacity:0.5;" x="155.781209" xlink:href="#m33213d7053" y="68.700244"/>
     <use style="fill:#1f77b4;fill-opacity:0.5;stroke:#1f77b4;stroke-opacity:0.5;" x="296.165608" xlink:href="#m33213d7053" y="68.019296"/>
     <use style="fill:#1f77b4;fill-opacity:0.5;stroke:#1f77b4;stroke-opacity:0.5;" x="173.6938" xlink:href="#m33213d7053" y="67.958122"/>
     <use style="fill:#1f77b4;fill-opacity:0.5;stroke:#1f77b4;stroke-opacity:0.5;" x="269.714865" xlink:href="#m33213d7053" y="68.398506"/>
     <use style="fill:#1f77b4;fill-opacity:0.5;stroke:#1f77b4;stroke-opacity:0.5;" x="287.871161" xlink:href="#m33213d7053" y="66.791883"/>
     <use style="fill:#1f77b4;fill-opacity:0.5;stroke:#1f77b4;stroke-opacity:0.5;" x="140.101814" xlink:href="#m33213d7053" y="66.844909"/>
     <use style="fill:#1f77b4;fill-opacity:0.5;stroke:#1f77b4;stroke-opacity:0.5;" x="129.874432" xlink:href="#m33213d7053" y="61.034238"/>
     <use style="fill:#1f77b4;fill-opacity:0.5;stroke:#1f77b4;stroke-opacity:0.5;" x="167.063957" xlink:href="#m33213d7053" y="67.652279"/>
     <use style="fill:#1f77b4;fill-opacity:0.5;stroke:#1f77b4;stroke-opacity:0.5;" x="117.856009" xlink:href="#m33213d7053" y="66.755215"/>
     <use style="fill:#1f77b4;fill-opacity:0.5;stroke:#1f77b4;stroke-opacity:0.5;" x="117.801353" xlink:href="#m33213d7053" y="63.260633"/>
     <use style="fill:#1f77b4;fill-opacity:0.5;stroke:#1f77b4;stroke-opacity:0.5;" x="109.663689" xlink:href="#m33213d7053" y="62.967074"/>
     <use style="fill:#1f77b4;fill-opacity:0.5;stroke:#1f77b4;stroke-opacity:0.5;" x="192.446036" xlink:href="#m33213d7053" y="64.92837"/>
     <use style="fill:#1f77b4;fill-opacity:0.5;stroke:#1f77b4;stroke-opacity:0.5;" x="247.773829" xlink:href="#m33213d7053" y="66.657341"/>
     <use style="fill:#1f77b4;fill-opacity:0.5;stroke:#1f77b4;stroke-opacity:0.5;" x="174.505091" xlink:href="#m33213d7053" y="62.608206"/>
     <use style="fill:#1f77b4;fill-opacity:0.5;stroke:#1f77b4;stroke-opacity:0.5;" x="157.054088" xlink:href="#m33213d7053" y="64.557339"/>
     <use style="fill:#1f77b4;fill-opacity:0.5;stroke:#1f77b4;stroke-opacity:0.5;" x="213.254627" xlink:href="#m33213d7053" y="65.389216"/>
     <use style="fill:#1f77b4;fill-opacity:0.5;stroke:#1f77b4;stroke-opacity:0.5;" x="287.914249" xlink:href="#m33213d7053" y="64.903924"/>
     <use style="fill:#1f77b4;fill-opacity:0.5;stroke:#1f77b4;stroke-opacity:0.5;" x="258.998621" xlink:href="#m33213d7053" y="66.963154"/>
     <use style="fill:#1f77b4;fill-opacity:0.5;stroke:#1f77b4;stroke-opacity:0.5;" x="161.410416" xlink:href="#m33213d7053" y="65.04257"/>
     <use style="fill:#1f77b4;fill-opacity:0.5;stroke:#1f77b4;stroke-opacity:0.5;" x="125.768504" xlink:href="#m33213d7053" y="61.176958"/>
     <use style="fill:#1f77b4;fill-opacity:0.5;stroke:#1f77b4;stroke-opacity:0.5;" x="118.882162" xlink:href="#m33213d7053" y="66.592093"/>
     <use style="fill:#1f77b4;fill-opacity:0.5;stroke:#1f77b4;stroke-opacity:0.5;" x="268.224912" xlink:href="#m33213d7053" y="68.186462"/>
     <use style="fill:#1f77b4;fill-opacity:0.5;stroke:#1f77b4;stroke-opacity:0.5;" x="257.788119" xlink:href="#m33213d7053" y="67.003926"/>
     <use style="fill:#1f77b4;fill-opacity:0.5;stroke:#1f77b4;stroke-opacity:0.5;" x="169.494621" xlink:href="#m33213d7053" y="66.119084"/>
     <use style="fill:#1f77b4;fill-opacity:0.5;stroke:#1f77b4;stroke-opacity:0.5;" x="140.255105" xlink:href="#m33213d7053" y="67.379092"/>
     <use style="fill:#1f77b4;fill-opacity:0.5;stroke:#1f77b4;stroke-opacity:0.5;" x="119.676604" xlink:href="#m33213d7053" y="63.244306"/>
     <use style="fill:#1f77b4;fill-opacity:0.5;stroke:#1f77b4;stroke-opacity:0.5;" x="184.844886" xlink:href="#m33213d7053" y="61.809014"/>
     <use style="fill:#1f77b4;fill-opacity:0.5;stroke:#1f77b4;stroke-opacity:0.5;" x="171.018848" xlink:href="#m33213d7053" y="373.532727"/>
     <use style="fill:#1f77b4;fill-opacity:0.5;stroke:#1f77b4;stroke-opacity:0.5;" x="213.917226" xlink:href="#m33213d7053" y="67.003926"/>
     <use style="fill:#1f77b4;fill-opacity:0.5;stroke:#1f77b4;stroke-opacity:0.5;" x="287.689547" xlink:href="#m33213d7053" y="68.272082"/>
     <use style="fill:#1f77b4;fill-opacity:0.5;stroke:#1f77b4;stroke-opacity:0.5;" x="236.424124" xlink:href="#m33213d7053" y="67.268996"/>
     <use style="fill:#1f77b4;fill-opacity:0.5;stroke:#1f77b4;stroke-opacity:0.5;" x="201.350129" xlink:href="#m33213d7053" y="68.386253"/>
     <use style="fill:#1f77b4;fill-opacity:0.5;stroke:#1f77b4;stroke-opacity:0.5;" x="282.913127" xlink:href="#m33213d7053" y="67.542184"/>
     <use style="fill:#1f77b4;fill-opacity:0.5;stroke:#1f77b4;stroke-opacity:0.5;" x="247.649087" xlink:href="#m33213d7053" y="69.988771"/>
     <use style="fill:#1f77b4;fill-opacity:0.5;stroke:#1f77b4;stroke-opacity:0.5;" x="270.857996" xlink:href="#m33213d7053" y="68.137541"/>
     <use style="fill:#1f77b4;fill-opacity:0.5;stroke:#1f77b4;stroke-opacity:0.5;" x="180.524956" xlink:href="#m33213d7053" y="64.141431"/>
     <use style="fill:#1f77b4;fill-opacity:0.5;stroke:#1f77b4;stroke-opacity:0.5;" x="235.605159" xlink:href="#m33213d7053" y="65.136369"/>
     <use style="fill:#1f77b4;fill-opacity:0.5;stroke:#1f77b4;stroke-opacity:0.5;" x="106.756825" xlink:href="#m33213d7053" y="67.232267"/>
     <use style="fill:#1f77b4;fill-opacity:0.5;stroke:#1f77b4;stroke-opacity:0.5;" x="305.396563" xlink:href="#m33213d7053" y="66.033434"/>
     <use style="fill:#1f77b4;fill-opacity:0.5;stroke:#1f77b4;stroke-opacity:0.5;" x="236.221656" xlink:href="#m33213d7053" y="66.775586"/>
     <use style="fill:#1f77b4;fill-opacity:0.5;stroke:#1f77b4;stroke-opacity:0.5;" x="122.775347" xlink:href="#m33213d7053" y="66.245508"/>
     <use style="fill:#1f77b4;fill-opacity:0.5;stroke:#1f77b4;stroke-opacity:0.5;" x="298.228524" xlink:href="#m33213d7053" y="68.4311"/>
     <use style="fill:#1f77b4;fill-opacity:0.5;stroke:#1f77b4;stroke-opacity:0.5;" x="193.699781" xlink:href="#m33213d7053" y="68.728763"/>
     <use style="fill:#1f77b4;fill-opacity:0.5;stroke:#1f77b4;stroke-opacity:0.5;" x="193.598938" xlink:href="#m33213d7053" y="68.45965"/>
     <use style="fill:#1f77b4;fill-opacity:0.5;stroke:#1f77b4;stroke-opacity:0.5;" x="353.232819" xlink:href="#m33213d7053" y="68.369956"/>
     <use style="fill:#1f77b4;fill-opacity:0.5;stroke:#1f77b4;stroke-opacity:0.5;" x="363.227323" xlink:href="#m33213d7053" y="69.279274"/>
     <use style="fill:#1f77b4;fill-opacity:0.5;stroke:#1f77b4;stroke-opacity:0.5;" x="218.860157" xlink:href="#m33213d7053" y="66.910127"/>
     <use style="fill:#1f77b4;fill-opacity:0.5;stroke:#1f77b4;stroke-opacity:0.5;" x="150.554375" xlink:href="#m33213d7053" y="63.550148"/>
     <use style="fill:#1f77b4;fill-opacity:0.5;stroke:#1f77b4;stroke-opacity:0.5;" x="226.690847" xlink:href="#m33213d7053" y="63.782593"/>
     <use style="fill:#1f77b4;fill-opacity:0.5;stroke:#1f77b4;stroke-opacity:0.5;" x="264.074441" xlink:href="#m33213d7053" y="64.638885"/>
     <use style="fill:#1f77b4;fill-opacity:0.5;stroke:#1f77b4;stroke-opacity:0.5;" x="405.606364" xlink:href="#m33213d7053" y="67.024328"/>
     <use style="fill:#1f77b4;fill-opacity:0.5;stroke:#1f77b4;stroke-opacity:0.5;" x="160.752969" xlink:href="#m33213d7053" y="66.946857"/>
     <use style="fill:#1f77b4;fill-opacity:0.5;stroke:#1f77b4;stroke-opacity:0.5;" x="250.036934" xlink:href="#m33213d7053" y="62.591909"/>
     <use style="fill:#1f77b4;fill-opacity:0.5;stroke:#1f77b4;stroke-opacity:0.5;" x="223.175117" xlink:href="#m33213d7053" y="68.043742"/>
     <use style="fill:#1f77b4;fill-opacity:0.5;stroke:#1f77b4;stroke-opacity:0.5;" x="291.276239" xlink:href="#m33213d7053" y="69.075379"/>
     <use style="fill:#1f77b4;fill-opacity:0.5;stroke:#1f77b4;stroke-opacity:0.5;" x="165.518041" xlink:href="#m33213d7053" y="67.142573"/>
    </g>
   </g>
   <g id="PolyCollection_1">
    <path clip-path="url(#p812eff4066)" d="M 93.733636 64.800649 
L 93.733636 103.552142 
L 96.883866 102.98065 
L 100.034096 102.409159 
L 103.184325 101.837668 
L 106.334555 101.266176 
L 109.484784 100.694685 
L 112.635014 100.076557 
L 115.785243 99.404772 
L 118.935473 98.732988 
L 122.085702 98.061179 
L 125.235932 97.389278 
L 128.386162 96.717377 
L 131.536391 96.045476 
L 134.686621 95.386562 
L 137.83685 94.82197 
L 140.98708 94.326197 
L 144.137309 93.830425 
L 147.287539 93.334653 
L 150.437769 92.83888 
L 153.587998 92.343108 
L 156.738228 91.847336 
L 159.888457 91.351564 
L 163.038687 90.854383 
L 166.188916 90.226495 
L 169.339146 89.58877 
L 172.489376 88.951044 
L 175.639605 88.312744 
L 178.789835 87.673086 
L 181.940064 87.033427 
L 185.090294 86.488931 
L 188.240523 85.979419 
L 191.390753 85.362838 
L 194.540983 84.727554 
L 197.691212 84.168309 
L 200.841442 83.667009 
L 203.991671 83.173232 
L 207.141901 82.670208 
L 210.29213 82.168204 
L 213.44236 81.666201 
L 216.59259 81.127303 
L 219.742819 80.553154 
L 222.893049 79.975725 
L 226.043278 79.398329 
L 229.193508 78.938217 
L 232.343737 78.29013 
L 235.493967 77.670376 
L 238.644197 77.046906 
L 241.794426 76.661003 
L 244.944656 76.210521 
L 248.094885 75.810356 
L 251.245115 75.401535 
L 254.395344 75.089374 
L 257.545574 74.81068 
L 260.695803 74.313575 
L 263.846033 73.838316 
L 266.996263 73.555061 
L 270.146492 73.13651 
L 273.296722 72.624307 
L 276.446951 72.416389 
L 279.597181 72.142591 
L 282.74741 71.865276 
L 285.89764 71.521155 
L 289.04787 71.337056 
L 292.198099 71.075002 
L 295.348329 70.668461 
L 298.498558 70.400915 
L 301.648788 70.234697 
L 304.799017 70.148907 
L 307.949247 69.993214 
L 311.099477 69.923271 
L 314.249706 69.80902 
L 317.399936 69.688593 
L 320.550165 69.511183 
L 323.700395 69.297569 
L 326.850624 69.185111 
L 330.000854 69.08397 
L 333.151084 68.911781 
L 336.301313 68.78995 
L 339.451543 68.69947 
L 342.601772 68.618049 
L 345.752002 68.533745 
L 348.902231 68.46294 
L 352.052461 68.46014 
L 355.202691 68.417339 
L 358.35292 68.432629 
L 361.50315 68.427015 
L 364.653379 68.443592 
L 367.803609 68.426043 
L 370.953838 68.459145 
L 374.104068 68.497032 
L 377.254298 68.532685 
L 380.404527 68.565377 
L 383.554757 68.600509 
L 386.704986 68.613017 
L 389.855216 68.648761 
L 393.005445 68.673074 
L 396.155675 68.711025 
L 399.305904 68.753932 
L 402.456134 68.796839 
L 405.606364 68.83463 
L 405.606364 43.387273 
L 405.606364 43.387273 
L 402.456134 43.979009 
L 399.305904 44.582664 
L 396.155675 45.18632 
L 393.005445 45.742378 
L 389.855216 46.256 
L 386.704986 46.794625 
L 383.554757 47.348747 
L 380.404527 47.866184 
L 377.254298 48.455952 
L 374.104068 49.064349 
L 370.953838 49.599567 
L 367.803609 50.085692 
L 364.653379 50.764733 
L 361.50315 51.335048 
L 358.35292 51.905599 
L 355.202691 52.528302 
L 352.052461 53.197714 
L 348.902231 53.859539 
L 345.752002 54.342643 
L 342.601772 54.808625 
L 339.451543 55.33031 
L 336.301313 55.998058 
L 333.151084 56.517965 
L 330.000854 57.125583 
L 326.850624 57.780683 
L 323.700395 58.235963 
L 320.550165 58.739677 
L 317.399936 59.287672 
L 314.249706 59.857757 
L 311.099477 60.49323 
L 307.949247 60.957063 
L 304.799017 61.348471 
L 301.648788 61.856917 
L 298.498558 62.367563 
L 295.348329 62.823357 
L 292.198099 63.28083 
L 289.04787 63.659913 
L 285.89764 64.110234 
L 282.74741 64.588917 
L 279.597181 65.009823 
L 276.446951 65.337155 
L 273.296722 65.64359 
L 270.146492 65.925684 
L 266.996263 66.233461 
L 263.846033 66.529431 
L 260.695803 66.657123 
L 257.545574 66.686861 
L 254.395344 66.673841 
L 251.245115 66.699657 
L 248.094885 66.665487 
L 244.944656 66.626868 
L 241.794426 66.584072 
L 238.644197 66.553906 
L 235.493967 66.522226 
L 232.343737 66.493209 
L 229.193508 66.463593 
L 226.043278 66.425298 
L 222.893049 66.385398 
L 219.742819 66.343203 
L 216.59259 66.305924 
L 213.44236 66.267436 
L 210.29213 66.228199 
L 207.141901 66.189054 
L 203.991671 66.155609 
L 200.841442 66.119725 
L 197.691212 66.080495 
L 194.540983 66.051774 
L 191.390753 66.014188 
L 188.240523 65.987242 
L 185.090294 65.945601 
L 181.940064 65.904231 
L 178.789835 65.865142 
L 175.639605 65.822217 
L 172.489376 65.779467 
L 169.339146 65.739445 
L 166.188916 65.696327 
L 163.038687 65.651569 
L 159.888457 65.606598 
L 156.738228 65.567947 
L 153.587998 65.529724 
L 150.437769 65.488163 
L 147.287539 65.446603 
L 144.137309 65.405042 
L 140.98708 65.365213 
L 137.83685 65.326002 
L 134.686621 65.288867 
L 131.536391 65.252641 
L 128.386162 65.212308 
L 125.235932 65.173998 
L 122.085702 65.136201 
L 118.935473 65.098404 
L 115.785243 65.061178 
L 112.635014 65.023959 
L 109.484784 64.986741 
L 106.334555 64.949523 
L 103.184325 64.912304 
L 100.034096 64.875086 
L 96.883866 64.837868 
L 93.733636 64.800649 
z
" style="fill:#1f77b4;fill-opacity:0.15;"/>
   </g>
   <g id="matplotlib.axis_1">
    <g id="xtick_1">
     <g id="line2d_1">
      <path clip-path="url(#p812eff4066)" d="M 93.733636 390.04 
L 93.733636 26.88 
" style="fill:none;stroke:#b0b0b0;stroke-dasharray:2.96,1.28;stroke-dashoffset:0;stroke-opacity:0.5;stroke-width:0.8;"/>
     </g>
     <g id="line2d_2">
      <defs>
       <path d="M 0 0 
L 0 3.5 
" id="m8b20dc9634" style="stroke:#000000;stroke-width:0.8;"/>
      </defs>
      <g>
       <use style="stroke:#000000;stroke-width:0.8;" x="93.733636" xlink:href="#m8b20dc9634" y="390.04"/>
      </g>
     </g>
     <g id="text_1">
      <!-- 0.0 -->
      <g transform="translate(85.782074 404.638438)scale(0.1 -0.1)">
       <defs>
        <path d="M 2034 4250 
Q 1547 4250 1301 3770 
Q 1056 3291 1056 2328 
Q 1056 1369 1301 889 
Q 1547 409 2034 409 
Q 2525 409 2770 889 
Q 3016 1369 3016 2328 
Q 3016 3291 2770 3770 
Q 2525 4250 2034 4250 
z
M 2034 4750 
Q 2819 4750 3233 4129 
Q 3647 3509 3647 2328 
Q 3647 1150 3233 529 
Q 2819 -91 2034 -91 
Q 1250 -91 836 529 
Q 422 1150 422 2328 
Q 422 3509 836 4129 
Q 1250 4750 2034 4750 
z
" id="DejaVuSans-30" transform="scale(0.015625)"/>
        <path d="M 684 794 
L 1344 794 
L 1344 0 
L 684 0 
L 684 794 
z
" id="DejaVuSans-2e" transform="scale(0.015625)"/>
       </defs>
       <use xlink:href="#DejaVuSans-30"/>
       <use x="63.623047" xlink:href="#DejaVuSans-2e"/>
       <use x="95.410156" xlink:href="#DejaVuSans-30"/>
      </g>
     </g>
    </g>
    <g id="xtick_2">
     <g id="line2d_3">
      <path clip-path="url(#p812eff4066)" d="M 151.817058 390.04 
L 151.817058 26.88 
" style="fill:none;stroke:#b0b0b0;stroke-dasharray:2.96,1.28;stroke-dashoffset:0;stroke-opacity:0.5;stroke-width:0.8;"/>
     </g>
     <g id="line2d_4">
      <g>
       <use style="stroke:#000000;stroke-width:0.8;" x="151.817058" xlink:href="#m8b20dc9634" y="390.04"/>
      </g>
     </g>
     <g id="text_2">
      <!-- 0.1 -->
      <g transform="translate(143.865496 404.638438)scale(0.1 -0.1)">
       <defs>
        <path d="M 794 531 
L 1825 531 
L 1825 4091 
L 703 3866 
L 703 4441 
L 1819 4666 
L 2450 4666 
L 2450 531 
L 3481 531 
L 3481 0 
L 794 0 
L 794 531 
z
" id="DejaVuSans-31" transform="scale(0.015625)"/>
       </defs>
       <use xlink:href="#DejaVuSans-30"/>
       <use x="63.623047" xlink:href="#DejaVuSans-2e"/>
       <use x="95.410156" xlink:href="#DejaVuSans-31"/>
      </g>
     </g>
    </g>
    <g id="xtick_3">
     <g id="line2d_5">
      <path clip-path="url(#p812eff4066)" d="M 209.90048 390.04 
L 209.90048 26.88 
" style="fill:none;stroke:#b0b0b0;stroke-dasharray:2.96,1.28;stroke-dashoffset:0;stroke-opacity:0.5;stroke-width:0.8;"/>
     </g>
     <g id="line2d_6">
      <g>
       <use style="stroke:#000000;stroke-width:0.8;" x="209.90048" xlink:href="#m8b20dc9634" y="390.04"/>
      </g>
     </g>
     <g id="text_3">
      <!-- 0.2 -->
      <g transform="translate(201.948918 404.638438)scale(0.1 -0.1)">
       <defs>
        <path d="M 1228 531 
L 3431 531 
L 3431 0 
L 469 0 
L 469 531 
Q 828 903 1448 1529 
Q 2069 2156 2228 2338 
Q 2531 2678 2651 2914 
Q 2772 3150 2772 3378 
Q 2772 3750 2511 3984 
Q 2250 4219 1831 4219 
Q 1534 4219 1204 4116 
Q 875 4013 500 3803 
L 500 4441 
Q 881 4594 1212 4672 
Q 1544 4750 1819 4750 
Q 2544 4750 2975 4387 
Q 3406 4025 3406 3419 
Q 3406 3131 3298 2873 
Q 3191 2616 2906 2266 
Q 2828 2175 2409 1742 
Q 1991 1309 1228 531 
z
" id="DejaVuSans-32" transform="scale(0.015625)"/>
       </defs>
       <use xlink:href="#DejaVuSans-30"/>
       <use x="63.623047" xlink:href="#DejaVuSans-2e"/>
       <use x="95.410156" xlink:href="#DejaVuSans-32"/>
      </g>
     </g>
    </g>
    <g id="xtick_4">
     <g id="line2d_7">
      <path clip-path="url(#p812eff4066)" d="M 267.983902 390.04 
L 267.983902 26.88 
" style="fill:none;stroke:#b0b0b0;stroke-dasharray:2.96,1.28;stroke-dashoffset:0;stroke-opacity:0.5;stroke-width:0.8;"/>
     </g>
     <g id="line2d_8">
      <g>
       <use style="stroke:#000000;stroke-width:0.8;" x="267.983902" xlink:href="#m8b20dc9634" y="390.04"/>
      </g>
     </g>
     <g id="text_4">
      <!-- 0.3 -->
      <g transform="translate(260.03234 404.638438)scale(0.1 -0.1)">
       <defs>
        <path d="M 2597 2516 
Q 3050 2419 3304 2112 
Q 3559 1806 3559 1356 
Q 3559 666 3084 287 
Q 2609 -91 1734 -91 
Q 1441 -91 1130 -33 
Q 819 25 488 141 
L 488 750 
Q 750 597 1062 519 
Q 1375 441 1716 441 
Q 2309 441 2620 675 
Q 2931 909 2931 1356 
Q 2931 1769 2642 2001 
Q 2353 2234 1838 2234 
L 1294 2234 
L 1294 2753 
L 1863 2753 
Q 2328 2753 2575 2939 
Q 2822 3125 2822 3475 
Q 2822 3834 2567 4026 
Q 2313 4219 1838 4219 
Q 1578 4219 1281 4162 
Q 984 4106 628 3988 
L 628 4550 
Q 988 4650 1302 4700 
Q 1616 4750 1894 4750 
Q 2613 4750 3031 4423 
Q 3450 4097 3450 3541 
Q 3450 3153 3228 2886 
Q 3006 2619 2597 2516 
z
" id="DejaVuSans-33" transform="scale(0.015625)"/>
       </defs>
       <use xlink:href="#DejaVuSans-30"/>
       <use x="63.623047" xlink:href="#DejaVuSans-2e"/>
       <use x="95.410156" xlink:href="#DejaVuSans-33"/>
      </g>
     </g>
    </g>
    <g id="xtick_5">
     <g id="line2d_9">
      <path clip-path="url(#p812eff4066)" d="M 326.067324 390.04 
L 326.067324 26.88 
" style="fill:none;stroke:#b0b0b0;stroke-dasharray:2.96,1.28;stroke-dashoffset:0;stroke-opacity:0.5;stroke-width:0.8;"/>
     </g>
     <g id="line2d_10">
      <g>
       <use style="stroke:#000000;stroke-width:0.8;" x="326.067324" xlink:href="#m8b20dc9634" y="390.04"/>
      </g>
     </g>
     <g id="text_5">
      <!-- 0.4 -->
      <g transform="translate(318.115762 404.638438)scale(0.1 -0.1)">
       <defs>
        <path d="M 2419 4116 
L 825 1625 
L 2419 1625 
L 2419 4116 
z
M 2253 4666 
L 3047 4666 
L 3047 1625 
L 3713 1625 
L 3713 1100 
L 3047 1100 
L 3047 0 
L 2419 0 
L 2419 1100 
L 313 1100 
L 313 1709 
L 2253 4666 
z
" id="DejaVuSans-34" transform="scale(0.015625)"/>
       </defs>
       <use xlink:href="#DejaVuSans-30"/>
       <use x="63.623047" xlink:href="#DejaVuSans-2e"/>
       <use x="95.410156" xlink:href="#DejaVuSans-34"/>
      </g>
     </g>
    </g>
    <g id="xtick_6">
     <g id="line2d_11">
      <path clip-path="url(#p812eff4066)" d="M 384.150746 390.04 
L 384.150746 26.88 
" style="fill:none;stroke:#b0b0b0;stroke-dasharray:2.96,1.28;stroke-dashoffset:0;stroke-opacity:0.5;stroke-width:0.8;"/>
     </g>
     <g id="line2d_12">
      <g>
       <use style="stroke:#000000;stroke-width:0.8;" x="384.150746" xlink:href="#m8b20dc9634" y="390.04"/>
      </g>
     </g>
     <g id="text_6">
      <!-- 0.5 -->
      <g transform="translate(376.199184 404.638438)scale(0.1 -0.1)">
       <defs>
        <path d="M 691 4666 
L 3169 4666 
L 3169 4134 
L 1269 4134 
L 1269 2991 
Q 1406 3038 1543 3061 
Q 1681 3084 1819 3084 
Q 2600 3084 3056 2656 
Q 3513 2228 3513 1497 
Q 3513 744 3044 326 
Q 2575 -91 1722 -91 
Q 1428 -91 1123 -41 
Q 819 9 494 109 
L 494 744 
Q 775 591 1075 516 
Q 1375 441 1709 441 
Q 2250 441 2565 725 
Q 2881 1009 2881 1497 
Q 2881 1984 2565 2268 
Q 2250 2553 1709 2553 
Q 1456 2553 1204 2497 
Q 953 2441 691 2322 
L 691 4666 
z
" id="DejaVuSans-35" transform="scale(0.015625)"/>
       </defs>
       <use xlink:href="#DejaVuSans-30"/>
       <use x="63.623047" xlink:href="#DejaVuSans-2e"/>
       <use x="95.410156" xlink:href="#DejaVuSans-35"/>
      </g>
     </g>
    </g>
    <g id="text_7">
     <!-- Percentage of Zero-Car Households -->
     <g transform="translate(160.8825 418.316562)scale(0.1 -0.1)">
      <defs>
       <path d="M 1259 4147 
L 1259 2394 
L 2053 2394 
Q 2494 2394 2734 2622 
Q 2975 2850 2975 3272 
Q 2975 3691 2734 3919 
Q 2494 4147 2053 4147 
L 1259 4147 
z
M 628 4666 
L 2053 4666 
Q 2838 4666 3239 4311 
Q 3641 3956 3641 3272 
Q 3641 2581 3239 2228 
Q 2838 1875 2053 1875 
L 1259 1875 
L 1259 0 
L 628 0 
L 628 4666 
z
" id="DejaVuSans-50" transform="scale(0.015625)"/>
       <path d="M 3597 1894 
L 3597 1613 
L 953 1613 
Q 991 1019 1311 708 
Q 1631 397 2203 397 
Q 2534 397 2845 478 
Q 3156 559 3463 722 
L 3463 178 
Q 3153 47 2828 -22 
Q 2503 -91 2169 -91 
Q 1331 -91 842 396 
Q 353 884 353 1716 
Q 353 2575 817 3079 
Q 1281 3584 2069 3584 
Q 2775 3584 3186 3129 
Q 3597 2675 3597 1894 
z
M 3022 2063 
Q 3016 2534 2758 2815 
Q 2500 3097 2075 3097 
Q 1594 3097 1305 2825 
Q 1016 2553 972 2059 
L 3022 2063 
z
" id="DejaVuSans-65" transform="scale(0.015625)"/>
       <path d="M 2631 2963 
Q 2534 3019 2420 3045 
Q 2306 3072 2169 3072 
Q 1681 3072 1420 2755 
Q 1159 2438 1159 1844 
L 1159 0 
L 581 0 
L 581 3500 
L 1159 3500 
L 1159 2956 
Q 1341 3275 1631 3429 
Q 1922 3584 2338 3584 
Q 2397 3584 2469 3576 
Q 2541 3569 2628 3553 
L 2631 2963 
z
" id="DejaVuSans-72" transform="scale(0.015625)"/>
       <path d="M 3122 3366 
L 3122 2828 
Q 2878 2963 2633 3030 
Q 2388 3097 2138 3097 
Q 1578 3097 1268 2742 
Q 959 2388 959 1747 
Q 959 1106 1268 751 
Q 1578 397 2138 397 
Q 2388 397 2633 464 
Q 2878 531 3122 666 
L 3122 134 
Q 2881 22 2623 -34 
Q 2366 -91 2075 -91 
Q 1284 -91 818 406 
Q 353 903 353 1747 
Q 353 2603 823 3093 
Q 1294 3584 2113 3584 
Q 2378 3584 2631 3529 
Q 2884 3475 3122 3366 
z
" id="DejaVuSans-63" transform="scale(0.015625)"/>
       <path d="M 3513 2113 
L 3513 0 
L 2938 0 
L 2938 2094 
Q 2938 2591 2744 2837 
Q 2550 3084 2163 3084 
Q 1697 3084 1428 2787 
Q 1159 2491 1159 1978 
L 1159 0 
L 581 0 
L 581 3500 
L 1159 3500 
L 1159 2956 
Q 1366 3272 1645 3428 
Q 1925 3584 2291 3584 
Q 2894 3584 3203 3211 
Q 3513 2838 3513 2113 
z
" id="DejaVuSans-6e" transform="scale(0.015625)"/>
       <path d="M 1172 4494 
L 1172 3500 
L 2356 3500 
L 2356 3053 
L 1172 3053 
L 1172 1153 
Q 1172 725 1289 603 
Q 1406 481 1766 481 
L 2356 481 
L 2356 0 
L 1766 0 
Q 1100 0 847 248 
Q 594 497 594 1153 
L 594 3053 
L 172 3053 
L 172 3500 
L 594 3500 
L 594 4494 
L 1172 4494 
z
" id="DejaVuSans-74" transform="scale(0.015625)"/>
       <path d="M 2194 1759 
Q 1497 1759 1228 1600 
Q 959 1441 959 1056 
Q 959 750 1161 570 
Q 1363 391 1709 391 
Q 2188 391 2477 730 
Q 2766 1069 2766 1631 
L 2766 1759 
L 2194 1759 
z
M 3341 1997 
L 3341 0 
L 2766 0 
L 2766 531 
Q 2569 213 2275 61 
Q 1981 -91 1556 -91 
Q 1019 -91 701 211 
Q 384 513 384 1019 
Q 384 1609 779 1909 
Q 1175 2209 1959 2209 
L 2766 2209 
L 2766 2266 
Q 2766 2663 2505 2880 
Q 2244 3097 1772 3097 
Q 1472 3097 1187 3025 
Q 903 2953 641 2809 
L 641 3341 
Q 956 3463 1253 3523 
Q 1550 3584 1831 3584 
Q 2591 3584 2966 3190 
Q 3341 2797 3341 1997 
z
" id="DejaVuSans-61" transform="scale(0.015625)"/>
       <path d="M 2906 1791 
Q 2906 2416 2648 2759 
Q 2391 3103 1925 3103 
Q 1463 3103 1205 2759 
Q 947 2416 947 1791 
Q 947 1169 1205 825 
Q 1463 481 1925 481 
Q 2391 481 2648 825 
Q 2906 1169 2906 1791 
z
M 3481 434 
Q 3481 -459 3084 -895 
Q 2688 -1331 1869 -1331 
Q 1566 -1331 1297 -1286 
Q 1028 -1241 775 -1147 
L 775 -588 
Q 1028 -725 1275 -790 
Q 1522 -856 1778 -856 
Q 2344 -856 2625 -561 
Q 2906 -266 2906 331 
L 2906 616 
Q 2728 306 2450 153 
Q 2172 0 1784 0 
Q 1141 0 747 490 
Q 353 981 353 1791 
Q 353 2603 747 3093 
Q 1141 3584 1784 3584 
Q 2172 3584 2450 3431 
Q 2728 3278 2906 2969 
L 2906 3500 
L 3481 3500 
L 3481 434 
z
" id="DejaVuSans-67" transform="scale(0.015625)"/>
       <path id="DejaVuSans-20" transform="scale(0.015625)"/>
       <path d="M 1959 3097 
Q 1497 3097 1228 2736 
Q 959 2375 959 1747 
Q 959 1119 1226 758 
Q 1494 397 1959 397 
Q 2419 397 2687 759 
Q 2956 1122 2956 1747 
Q 2956 2369 2687 2733 
Q 2419 3097 1959 3097 
z
M 1959 3584 
Q 2709 3584 3137 3096 
Q 3566 2609 3566 1747 
Q 3566 888 3137 398 
Q 2709 -91 1959 -91 
Q 1206 -91 779 398 
Q 353 888 353 1747 
Q 353 2609 779 3096 
Q 1206 3584 1959 3584 
z
" id="DejaVuSans-6f" transform="scale(0.015625)"/>
       <path d="M 2375 4863 
L 2375 4384 
L 1825 4384 
Q 1516 4384 1395 4259 
Q 1275 4134 1275 3809 
L 1275 3500 
L 2222 3500 
L 2222 3053 
L 1275 3053 
L 1275 0 
L 697 0 
L 697 3053 
L 147 3053 
L 147 3500 
L 697 3500 
L 697 3744 
Q 697 4328 969 4595 
Q 1241 4863 1831 4863 
L 2375 4863 
z
" id="DejaVuSans-66" transform="scale(0.015625)"/>
       <path d="M 359 4666 
L 4025 4666 
L 4025 4184 
L 1075 531 
L 4097 531 
L 4097 0 
L 288 0 
L 288 481 
L 3238 4134 
L 359 4134 
L 359 4666 
z
" id="DejaVuSans-5a" transform="scale(0.015625)"/>
       <path d="M 313 2009 
L 1997 2009 
L 1997 1497 
L 313 1497 
L 313 2009 
z
" id="DejaVuSans-2d" transform="scale(0.015625)"/>
       <path d="M 4122 4306 
L 4122 3641 
Q 3803 3938 3442 4084 
Q 3081 4231 2675 4231 
Q 1875 4231 1450 3742 
Q 1025 3253 1025 2328 
Q 1025 1406 1450 917 
Q 1875 428 2675 428 
Q 3081 428 3442 575 
Q 3803 722 4122 1019 
L 4122 359 
Q 3791 134 3420 21 
Q 3050 -91 2638 -91 
Q 1578 -91 968 557 
Q 359 1206 359 2328 
Q 359 3453 968 4101 
Q 1578 4750 2638 4750 
Q 3056 4750 3426 4639 
Q 3797 4528 4122 4306 
z
" id="DejaVuSans-43" transform="scale(0.015625)"/>
       <path d="M 628 4666 
L 1259 4666 
L 1259 2753 
L 3553 2753 
L 3553 4666 
L 4184 4666 
L 4184 0 
L 3553 0 
L 3553 2222 
L 1259 2222 
L 1259 0 
L 628 0 
L 628 4666 
z
" id="DejaVuSans-48" transform="scale(0.015625)"/>
       <path d="M 544 1381 
L 544 3500 
L 1119 3500 
L 1119 1403 
Q 1119 906 1312 657 
Q 1506 409 1894 409 
Q 2359 409 2629 706 
Q 2900 1003 2900 1516 
L 2900 3500 
L 3475 3500 
L 3475 0 
L 2900 0 
L 2900 538 
Q 2691 219 2414 64 
Q 2138 -91 1772 -91 
Q 1169 -91 856 284 
Q 544 659 544 1381 
z
M 1991 3584 
L 1991 3584 
z
" id="DejaVuSans-75" transform="scale(0.015625)"/>
       <path d="M 2834 3397 
L 2834 2853 
Q 2591 2978 2328 3040 
Q 2066 3103 1784 3103 
Q 1356 3103 1142 2972 
Q 928 2841 928 2578 
Q 928 2378 1081 2264 
Q 1234 2150 1697 2047 
L 1894 2003 
Q 2506 1872 2764 1633 
Q 3022 1394 3022 966 
Q 3022 478 2636 193 
Q 2250 -91 1575 -91 
Q 1294 -91 989 -36 
Q 684 19 347 128 
L 347 722 
Q 666 556 975 473 
Q 1284 391 1588 391 
Q 1994 391 2212 530 
Q 2431 669 2431 922 
Q 2431 1156 2273 1281 
Q 2116 1406 1581 1522 
L 1381 1569 
Q 847 1681 609 1914 
Q 372 2147 372 2553 
Q 372 3047 722 3315 
Q 1072 3584 1716 3584 
Q 2034 3584 2315 3537 
Q 2597 3491 2834 3397 
z
" id="DejaVuSans-73" transform="scale(0.015625)"/>
       <path d="M 3513 2113 
L 3513 0 
L 2938 0 
L 2938 2094 
Q 2938 2591 2744 2837 
Q 2550 3084 2163 3084 
Q 1697 3084 1428 2787 
Q 1159 2491 1159 1978 
L 1159 0 
L 581 0 
L 581 4863 
L 1159 4863 
L 1159 2956 
Q 1366 3272 1645 3428 
Q 1925 3584 2291 3584 
Q 2894 3584 3203 3211 
Q 3513 2838 3513 2113 
z
" id="DejaVuSans-68" transform="scale(0.015625)"/>
       <path d="M 603 4863 
L 1178 4863 
L 1178 0 
L 603 0 
L 603 4863 
z
" id="DejaVuSans-6c" transform="scale(0.015625)"/>
       <path d="M 2906 2969 
L 2906 4863 
L 3481 4863 
L 3481 0 
L 2906 0 
L 2906 525 
Q 2725 213 2448 61 
Q 2172 -91 1784 -91 
Q 1150 -91 751 415 
Q 353 922 353 1747 
Q 353 2572 751 3078 
Q 1150 3584 1784 3584 
Q 2172 3584 2448 3432 
Q 2725 3281 2906 2969 
z
M 947 1747 
Q 947 1113 1208 752 
Q 1469 391 1925 391 
Q 2381 391 2643 752 
Q 2906 1113 2906 1747 
Q 2906 2381 2643 2742 
Q 2381 3103 1925 3103 
Q 1469 3103 1208 2742 
Q 947 2381 947 1747 
z
" id="DejaVuSans-64" transform="scale(0.015625)"/>
      </defs>
      <use xlink:href="#DejaVuSans-50"/>
      <use x="56.677734" xlink:href="#DejaVuSans-65"/>
      <use x="118.201172" xlink:href="#DejaVuSans-72"/>
      <use x="157.064453" xlink:href="#DejaVuSans-63"/>
      <use x="212.044922" xlink:href="#DejaVuSans-65"/>
      <use x="273.568359" xlink:href="#DejaVuSans-6e"/>
      <use x="336.947266" xlink:href="#DejaVuSans-74"/>
      <use x="376.15625" xlink:href="#DejaVuSans-61"/>
      <use x="437.435547" xlink:href="#DejaVuSans-67"/>
      <use x="500.912109" xlink:href="#DejaVuSans-65"/>
      <use x="562.435547" xlink:href="#DejaVuSans-20"/>
      <use x="594.222656" xlink:href="#DejaVuSans-6f"/>
      <use x="655.404297" xlink:href="#DejaVuSans-66"/>
      <use x="690.609375" xlink:href="#DejaVuSans-20"/>
      <use x="722.396484" xlink:href="#DejaVuSans-5a"/>
      <use x="790.902344" xlink:href="#DejaVuSans-65"/>
      <use x="852.425781" xlink:href="#DejaVuSans-72"/>
      <use x="891.289062" xlink:href="#DejaVuSans-6f"/>
      <use x="954.345703" xlink:href="#DejaVuSans-2d"/>
      <use x="990.429688" xlink:href="#DejaVuSans-43"/>
      <use x="1060.253906" xlink:href="#DejaVuSans-61"/>
      <use x="1121.533203" xlink:href="#DejaVuSans-72"/>
      <use x="1162.646484" xlink:href="#DejaVuSans-20"/>
      <use x="1194.433594" xlink:href="#DejaVuSans-48"/>
      <use x="1269.628906" xlink:href="#DejaVuSans-6f"/>
      <use x="1330.810547" xlink:href="#DejaVuSans-75"/>
      <use x="1394.189453" xlink:href="#DejaVuSans-73"/>
      <use x="1446.289062" xlink:href="#DejaVuSans-65"/>
      <use x="1507.8125" xlink:href="#DejaVuSans-68"/>
      <use x="1571.191406" xlink:href="#DejaVuSans-6f"/>
      <use x="1632.373047" xlink:href="#DejaVuSans-6c"/>
      <use x="1660.15625" xlink:href="#DejaVuSans-64"/>
      <use x="1723.632812" xlink:href="#DejaVuSans-73"/>
     </g>
    </g>
   </g>
   <g id="matplotlib.axis_2">
    <g id="ytick_1">
     <g id="line2d_13">
      <path clip-path="url(#p812eff4066)" d="M 78.14 374.351287 
L 421.2 374.351287 
" style="fill:none;stroke:#b0b0b0;stroke-dasharray:2.96,1.28;stroke-dashoffset:0;stroke-opacity:0.5;stroke-width:0.8;"/>
     </g>
     <g id="line2d_14">
      <defs>
       <path d="M 0 0 
L -3.5 0 
" id="m1e14915e82" style="stroke:#000000;stroke-width:0.8;"/>
      </defs>
      <g>
       <use style="stroke:#000000;stroke-width:0.8;" x="78.14" xlink:href="#m1e14915e82" y="374.351287"/>
      </g>
     </g>
     <g id="text_8">
      <!-- −100000 -->
      <g transform="translate(24.585313 378.150505)scale(0.1 -0.1)">
       <defs>
        <path d="M 678 2272 
L 4684 2272 
L 4684 1741 
L 678 1741 
L 678 2272 
z
" id="DejaVuSans-2212" transform="scale(0.015625)"/>
       </defs>
       <use xlink:href="#DejaVuSans-2212"/>
       <use x="83.789062" xlink:href="#DejaVuSans-31"/>
       <use x="147.412109" xlink:href="#DejaVuSans-30"/>
       <use x="211.035156" xlink:href="#DejaVuSans-30"/>
       <use x="274.658203" xlink:href="#DejaVuSans-30"/>
       <use x="338.28125" xlink:href="#DejaVuSans-30"/>
       <use x="401.904297" xlink:href="#DejaVuSans-30"/>
      </g>
     </g>
    </g>
    <g id="ytick_2">
     <g id="line2d_15">
      <path clip-path="url(#p812eff4066)" d="M 78.14 313.541582 
L 421.2 313.541582 
" style="fill:none;stroke:#b0b0b0;stroke-dasharray:2.96,1.28;stroke-dashoffset:0;stroke-opacity:0.5;stroke-width:0.8;"/>
     </g>
     <g id="line2d_16">
      <g>
       <use style="stroke:#000000;stroke-width:0.8;" x="78.14" xlink:href="#m1e14915e82" y="313.541582"/>
      </g>
     </g>
     <g id="text_9">
      <!-- −80000 -->
      <g transform="translate(30.947812 317.3408)scale(0.1 -0.1)">
       <defs>
        <path d="M 2034 2216 
Q 1584 2216 1326 1975 
Q 1069 1734 1069 1313 
Q 1069 891 1326 650 
Q 1584 409 2034 409 
Q 2484 409 2743 651 
Q 3003 894 3003 1313 
Q 3003 1734 2745 1975 
Q 2488 2216 2034 2216 
z
M 1403 2484 
Q 997 2584 770 2862 
Q 544 3141 544 3541 
Q 544 4100 942 4425 
Q 1341 4750 2034 4750 
Q 2731 4750 3128 4425 
Q 3525 4100 3525 3541 
Q 3525 3141 3298 2862 
Q 3072 2584 2669 2484 
Q 3125 2378 3379 2068 
Q 3634 1759 3634 1313 
Q 3634 634 3220 271 
Q 2806 -91 2034 -91 
Q 1263 -91 848 271 
Q 434 634 434 1313 
Q 434 1759 690 2068 
Q 947 2378 1403 2484 
z
M 1172 3481 
Q 1172 3119 1398 2916 
Q 1625 2713 2034 2713 
Q 2441 2713 2670 2916 
Q 2900 3119 2900 3481 
Q 2900 3844 2670 4047 
Q 2441 4250 2034 4250 
Q 1625 4250 1398 4047 
Q 1172 3844 1172 3481 
z
" id="DejaVuSans-38" transform="scale(0.015625)"/>
       </defs>
       <use xlink:href="#DejaVuSans-2212"/>
       <use x="83.789062" xlink:href="#DejaVuSans-38"/>
       <use x="147.412109" xlink:href="#DejaVuSans-30"/>
       <use x="211.035156" xlink:href="#DejaVuSans-30"/>
       <use x="274.658203" xlink:href="#DejaVuSans-30"/>
       <use x="338.28125" xlink:href="#DejaVuSans-30"/>
      </g>
     </g>
    </g>
    <g id="ytick_3">
     <g id="line2d_17">
      <path clip-path="url(#p812eff4066)" d="M 78.14 252.731877 
L 421.2 252.731877 
" style="fill:none;stroke:#b0b0b0;stroke-dasharray:2.96,1.28;stroke-dashoffset:0;stroke-opacity:0.5;stroke-width:0.8;"/>
     </g>
     <g id="line2d_18">
      <g>
       <use style="stroke:#000000;stroke-width:0.8;" x="78.14" xlink:href="#m1e14915e82" y="252.731877"/>
      </g>
     </g>
     <g id="text_10">
      <!-- −60000 -->
      <g transform="translate(30.947812 256.531095)scale(0.1 -0.1)">
       <defs>
        <path d="M 2113 2584 
Q 1688 2584 1439 2293 
Q 1191 2003 1191 1497 
Q 1191 994 1439 701 
Q 1688 409 2113 409 
Q 2538 409 2786 701 
Q 3034 994 3034 1497 
Q 3034 2003 2786 2293 
Q 2538 2584 2113 2584 
z
M 3366 4563 
L 3366 3988 
Q 3128 4100 2886 4159 
Q 2644 4219 2406 4219 
Q 1781 4219 1451 3797 
Q 1122 3375 1075 2522 
Q 1259 2794 1537 2939 
Q 1816 3084 2150 3084 
Q 2853 3084 3261 2657 
Q 3669 2231 3669 1497 
Q 3669 778 3244 343 
Q 2819 -91 2113 -91 
Q 1303 -91 875 529 
Q 447 1150 447 2328 
Q 447 3434 972 4092 
Q 1497 4750 2381 4750 
Q 2619 4750 2861 4703 
Q 3103 4656 3366 4563 
z
" id="DejaVuSans-36" transform="scale(0.015625)"/>
       </defs>
       <use xlink:href="#DejaVuSans-2212"/>
       <use x="83.789062" xlink:href="#DejaVuSans-36"/>
       <use x="147.412109" xlink:href="#DejaVuSans-30"/>
       <use x="211.035156" xlink:href="#DejaVuSans-30"/>
       <use x="274.658203" xlink:href="#DejaVuSans-30"/>
       <use x="338.28125" xlink:href="#DejaVuSans-30"/>
      </g>
     </g>
    </g>
    <g id="ytick_4">
     <g id="line2d_19">
      <path clip-path="url(#p812eff4066)" d="M 78.14 191.922172 
L 421.2 191.922172 
" style="fill:none;stroke:#b0b0b0;stroke-dasharray:2.96,1.28;stroke-dashoffset:0;stroke-opacity:0.5;stroke-width:0.8;"/>
     </g>
     <g id="line2d_20">
      <g>
       <use style="stroke:#000000;stroke-width:0.8;" x="78.14" xlink:href="#m1e14915e82" y="191.922172"/>
      </g>
     </g>
     <g id="text_11">
      <!-- −40000 -->
      <g transform="translate(30.947812 195.72139)scale(0.1 -0.1)">
       <use xlink:href="#DejaVuSans-2212"/>
       <use x="83.789062" xlink:href="#DejaVuSans-34"/>
       <use x="147.412109" xlink:href="#DejaVuSans-30"/>
       <use x="211.035156" xlink:href="#DejaVuSans-30"/>
       <use x="274.658203" xlink:href="#DejaVuSans-30"/>
       <use x="338.28125" xlink:href="#DejaVuSans-30"/>
      </g>
     </g>
    </g>
    <g id="ytick_5">
     <g id="line2d_21">
      <path clip-path="url(#p812eff4066)" d="M 78.14 131.112467 
L 421.2 131.112467 
" style="fill:none;stroke:#b0b0b0;stroke-dasharray:2.96,1.28;stroke-dashoffset:0;stroke-opacity:0.5;stroke-width:0.8;"/>
     </g>
     <g id="line2d_22">
      <g>
       <use style="stroke:#000000;stroke-width:0.8;" x="78.14" xlink:href="#m1e14915e82" y="131.112467"/>
      </g>
     </g>
     <g id="text_12">
      <!-- −20000 -->
      <g transform="translate(30.947812 134.911685)scale(0.1 -0.1)">
       <use xlink:href="#DejaVuSans-2212"/>
       <use x="83.789062" xlink:href="#DejaVuSans-32"/>
       <use x="147.412109" xlink:href="#DejaVuSans-30"/>
       <use x="211.035156" xlink:href="#DejaVuSans-30"/>
       <use x="274.658203" xlink:href="#DejaVuSans-30"/>
       <use x="338.28125" xlink:href="#DejaVuSans-30"/>
      </g>
     </g>
    </g>
    <g id="ytick_6">
     <g id="line2d_23">
      <path clip-path="url(#p812eff4066)" d="M 78.14 70.302762 
L 421.2 70.302762 
" style="fill:none;stroke:#b0b0b0;stroke-dasharray:2.96,1.28;stroke-dashoffset:0;stroke-opacity:0.5;stroke-width:0.8;"/>
     </g>
     <g id="line2d_24">
      <g>
       <use style="stroke:#000000;stroke-width:0.8;" x="78.14" xlink:href="#m1e14915e82" y="70.302762"/>
      </g>
     </g>
     <g id="text_13">
      <!-- 0 -->
      <g transform="translate(64.7775 74.10198)scale(0.1 -0.1)">
       <use xlink:href="#DejaVuSans-30"/>
      </g>
     </g>
    </g>
    <g id="text_14">
     <!-- Distance in meters to transit stop -->
     <g transform="translate(18.505625 292.489688)rotate(-90)scale(0.1 -0.1)">
      <defs>
       <path d="M 1259 4147 
L 1259 519 
L 2022 519 
Q 2988 519 3436 956 
Q 3884 1394 3884 2338 
Q 3884 3275 3436 3711 
Q 2988 4147 2022 4147 
L 1259 4147 
z
M 628 4666 
L 1925 4666 
Q 3281 4666 3915 4102 
Q 4550 3538 4550 2338 
Q 4550 1131 3912 565 
Q 3275 0 1925 0 
L 628 0 
L 628 4666 
z
" id="DejaVuSans-44" transform="scale(0.015625)"/>
       <path d="M 603 3500 
L 1178 3500 
L 1178 0 
L 603 0 
L 603 3500 
z
M 603 4863 
L 1178 4863 
L 1178 4134 
L 603 4134 
L 603 4863 
z
" id="DejaVuSans-69" transform="scale(0.015625)"/>
       <path d="M 3328 2828 
Q 3544 3216 3844 3400 
Q 4144 3584 4550 3584 
Q 5097 3584 5394 3201 
Q 5691 2819 5691 2113 
L 5691 0 
L 5113 0 
L 5113 2094 
Q 5113 2597 4934 2840 
Q 4756 3084 4391 3084 
Q 3944 3084 3684 2787 
Q 3425 2491 3425 1978 
L 3425 0 
L 2847 0 
L 2847 2094 
Q 2847 2600 2669 2842 
Q 2491 3084 2119 3084 
Q 1678 3084 1418 2786 
Q 1159 2488 1159 1978 
L 1159 0 
L 581 0 
L 581 3500 
L 1159 3500 
L 1159 2956 
Q 1356 3278 1631 3431 
Q 1906 3584 2284 3584 
Q 2666 3584 2933 3390 
Q 3200 3197 3328 2828 
z
" id="DejaVuSans-6d" transform="scale(0.015625)"/>
       <path d="M 1159 525 
L 1159 -1331 
L 581 -1331 
L 581 3500 
L 1159 3500 
L 1159 2969 
Q 1341 3281 1617 3432 
Q 1894 3584 2278 3584 
Q 2916 3584 3314 3078 
Q 3713 2572 3713 1747 
Q 3713 922 3314 415 
Q 2916 -91 2278 -91 
Q 1894 -91 1617 61 
Q 1341 213 1159 525 
z
M 3116 1747 
Q 3116 2381 2855 2742 
Q 2594 3103 2138 3103 
Q 1681 3103 1420 2742 
Q 1159 2381 1159 1747 
Q 1159 1113 1420 752 
Q 1681 391 2138 391 
Q 2594 391 2855 752 
Q 3116 1113 3116 1747 
z
" id="DejaVuSans-70" transform="scale(0.015625)"/>
      </defs>
      <use xlink:href="#DejaVuSans-44"/>
      <use x="77.001953" xlink:href="#DejaVuSans-69"/>
      <use x="104.785156" xlink:href="#DejaVuSans-73"/>
      <use x="156.884766" xlink:href="#DejaVuSans-74"/>
      <use x="196.09375" xlink:href="#DejaVuSans-61"/>
      <use x="257.373047" xlink:href="#DejaVuSans-6e"/>
      <use x="320.751953" xlink:href="#DejaVuSans-63"/>
      <use x="375.732422" xlink:href="#DejaVuSans-65"/>
      <use x="437.255859" xlink:href="#DejaVuSans-20"/>
      <use x="469.042969" xlink:href="#DejaVuSans-69"/>
      <use x="496.826172" xlink:href="#DejaVuSans-6e"/>
      <use x="560.205078" xlink:href="#DejaVuSans-20"/>
      <use x="591.992188" xlink:href="#DejaVuSans-6d"/>
      <use x="689.404297" xlink:href="#DejaVuSans-65"/>
      <use x="750.927734" xlink:href="#DejaVuSans-74"/>
      <use x="790.136719" xlink:href="#DejaVuSans-65"/>
      <use x="851.660156" xlink:href="#DejaVuSans-72"/>
      <use x="892.773438" xlink:href="#DejaVuSans-73"/>
      <use x="944.873047" xlink:href="#DejaVuSans-20"/>
      <use x="976.660156" xlink:href="#DejaVuSans-74"/>
      <use x="1015.869141" xlink:href="#DejaVuSans-6f"/>
      <use x="1077.050781" xlink:href="#DejaVuSans-20"/>
      <use x="1108.837891" xlink:href="#DejaVuSans-74"/>
      <use x="1148.046875" xlink:href="#DejaVuSans-72"/>
      <use x="1189.160156" xlink:href="#DejaVuSans-61"/>
      <use x="1250.439453" xlink:href="#DejaVuSans-6e"/>
      <use x="1313.818359" xlink:href="#DejaVuSans-73"/>
      <use x="1365.917969" xlink:href="#DejaVuSans-69"/>
      <use x="1393.701172" xlink:href="#DejaVuSans-74"/>
      <use x="1432.910156" xlink:href="#DejaVuSans-20"/>
      <use x="1464.697266" xlink:href="#DejaVuSans-73"/>
      <use x="1516.796875" xlink:href="#DejaVuSans-74"/>
      <use x="1556.005859" xlink:href="#DejaVuSans-6f"/>
      <use x="1617.1875" xlink:href="#DejaVuSans-70"/>
     </g>
    </g>
   </g>
   <g id="line2d_25">
    <path clip-path="url(#p812eff4066)" d="M 93.733636 80.372757 
L 96.883866 80.1625 
L 100.034096 79.952243 
L 103.184325 79.741985 
L 106.334555 79.531728 
L 109.484784 79.32147 
L 112.635014 79.111213 
L 115.785243 78.900955 
L 118.935473 78.690698 
L 122.085702 78.480441 
L 125.235932 78.270183 
L 128.386162 78.059926 
L 131.536391 77.849668 
L 134.686621 77.639411 
L 137.83685 77.429153 
L 140.98708 77.218896 
L 144.137309 77.008638 
L 147.287539 76.798381 
L 150.437769 76.588124 
L 153.587998 76.377866 
L 156.738228 76.167609 
L 159.888457 75.957351 
L 163.038687 75.747094 
L 166.188916 75.536836 
L 169.339146 75.326579 
L 172.489376 75.116322 
L 175.639605 74.906064 
L 178.789835 74.695807 
L 181.940064 74.485549 
L 185.090294 74.275292 
L 188.240523 74.065034 
L 191.390753 73.854777 
L 194.540983 73.644519 
L 197.691212 73.434262 
L 200.841442 73.224005 
L 203.991671 73.013747 
L 207.141901 72.80349 
L 210.29213 72.593232 
L 213.44236 72.382975 
L 216.59259 72.172717 
L 219.742819 71.96246 
L 222.893049 71.752203 
L 226.043278 71.541945 
L 229.193508 71.331688 
L 232.343737 71.12143 
L 235.493967 70.911173 
L 238.644197 70.700915 
L 241.794426 70.490658 
L 244.944656 70.280401 
L 248.094885 70.070143 
L 251.245115 69.859886 
L 254.395344 69.649628 
L 257.545574 69.439371 
L 260.695803 69.229113 
L 263.846033 69.018856 
L 266.996263 68.808598 
L 270.146492 68.598341 
L 273.296722 68.388084 
L 276.446951 68.177826 
L 279.597181 67.967569 
L 282.74741 67.757311 
L 285.89764 67.547054 
L 289.04787 67.336796 
L 292.198099 67.126539 
L 295.348329 66.916282 
L 298.498558 66.706024 
L 301.648788 66.495767 
L 304.799017 66.285509 
L 307.949247 66.075252 
L 311.099477 65.864994 
L 314.249706 65.654737 
L 317.399936 65.44448 
L 320.550165 65.234222 
L 323.700395 65.023965 
L 326.850624 64.813707 
L 330.000854 64.60345 
L 333.151084 64.393192 
L 336.301313 64.182935 
L 339.451543 63.972677 
L 342.601772 63.76242 
L 345.752002 63.552163 
L 348.902231 63.341905 
L 352.052461 63.131648 
L 355.202691 62.92139 
L 358.35292 62.711133 
L 361.50315 62.500875 
L 364.653379 62.290618 
L 367.803609 62.080361 
L 370.953838 61.870103 
L 374.104068 61.659846 
L 377.254298 61.449588 
L 380.404527 61.239331 
L 383.554757 61.029073 
L 386.704986 60.818816 
L 389.855216 60.608558 
L 393.005445 60.398301 
L 396.155675 60.188044 
L 399.305904 59.977786 
L 402.456134 59.767529 
L 405.606364 59.557271 
" style="fill:none;stroke:#1f77b4;stroke-linecap:square;stroke-width:2.25;"/>
   </g>
   <g id="patch_3">
    <path d="M 78.14 390.04 
L 78.14 26.88 
" style="fill:none;stroke:#000000;stroke-linecap:square;stroke-linejoin:miter;stroke-width:0.8;"/>
   </g>
   <g id="patch_4">
    <path d="M 421.2 390.04 
L 421.2 26.88 
" style="fill:none;stroke:#000000;stroke-linecap:square;stroke-linejoin:miter;stroke-width:0.8;"/>
   </g>
   <g id="patch_5">
    <path d="M 78.14 390.04 
L 421.2 390.04 
" style="fill:none;stroke:#000000;stroke-linecap:square;stroke-linejoin:miter;stroke-width:0.8;"/>
   </g>
   <g id="patch_6">
    <path d="M 78.14 26.88 
L 421.2 26.88 
" style="fill:none;stroke:#000000;stroke-linecap:square;stroke-linejoin:miter;stroke-width:0.8;"/>
   </g>
   <g id="text_15">
    <!-- PCC: 0.12 -->
    <g transform="translate(95.293 45.038)scale(0.1 -0.1)">
     <defs>
      <path d="M 750 794 
L 1409 794 
L 1409 0 
L 750 0 
L 750 794 
z
M 750 3309 
L 1409 3309 
L 1409 2516 
L 750 2516 
L 750 3309 
z
" id="DejaVuSans-3a" transform="scale(0.015625)"/>
     </defs>
     <use xlink:href="#DejaVuSans-50"/>
     <use x="60.302734" xlink:href="#DejaVuSans-43"/>
     <use x="130.126953" xlink:href="#DejaVuSans-43"/>
     <use x="199.951172" xlink:href="#DejaVuSans-3a"/>
     <use x="233.642578" xlink:href="#DejaVuSans-20"/>
     <use x="265.429688" xlink:href="#DejaVuSans-30"/>
     <use x="329.052734" xlink:href="#DejaVuSans-2e"/>
     <use x="360.839844" xlink:href="#DejaVuSans-31"/>
     <use x="424.462891" xlink:href="#DejaVuSans-32"/>
    </g>
   </g>
   <g id="text_16">
    <!-- Zero-Care Households and Avg. Distance to Public Transit, St. Louis City Census Tracts -->
    <g transform="translate(-8.93375 20.88)scale(0.12 -0.12)">
     <defs>
      <path d="M 2188 4044 
L 1331 1722 
L 3047 1722 
L 2188 4044 
z
M 1831 4666 
L 2547 4666 
L 4325 0 
L 3669 0 
L 3244 1197 
L 1141 1197 
L 716 0 
L 50 0 
L 1831 4666 
z
" id="DejaVuSans-41" transform="scale(0.015625)"/>
      <path d="M 191 3500 
L 800 3500 
L 1894 563 
L 2988 3500 
L 3597 3500 
L 2284 0 
L 1503 0 
L 191 3500 
z
" id="DejaVuSans-76" transform="scale(0.015625)"/>
      <path d="M 3116 1747 
Q 3116 2381 2855 2742 
Q 2594 3103 2138 3103 
Q 1681 3103 1420 2742 
Q 1159 2381 1159 1747 
Q 1159 1113 1420 752 
Q 1681 391 2138 391 
Q 2594 391 2855 752 
Q 3116 1113 3116 1747 
z
M 1159 2969 
Q 1341 3281 1617 3432 
Q 1894 3584 2278 3584 
Q 2916 3584 3314 3078 
Q 3713 2572 3713 1747 
Q 3713 922 3314 415 
Q 2916 -91 2278 -91 
Q 1894 -91 1617 61 
Q 1341 213 1159 525 
L 1159 0 
L 581 0 
L 581 4863 
L 1159 4863 
L 1159 2969 
z
" id="DejaVuSans-62" transform="scale(0.015625)"/>
      <path d="M -19 4666 
L 3928 4666 
L 3928 4134 
L 2272 4134 
L 2272 0 
L 1638 0 
L 1638 4134 
L -19 4134 
L -19 4666 
z
" id="DejaVuSans-54" transform="scale(0.015625)"/>
      <path d="M 750 794 
L 1409 794 
L 1409 256 
L 897 -744 
L 494 -744 
L 750 256 
L 750 794 
z
" id="DejaVuSans-2c" transform="scale(0.015625)"/>
      <path d="M 3425 4513 
L 3425 3897 
Q 3066 4069 2747 4153 
Q 2428 4238 2131 4238 
Q 1616 4238 1336 4038 
Q 1056 3838 1056 3469 
Q 1056 3159 1242 3001 
Q 1428 2844 1947 2747 
L 2328 2669 
Q 3034 2534 3370 2195 
Q 3706 1856 3706 1288 
Q 3706 609 3251 259 
Q 2797 -91 1919 -91 
Q 1588 -91 1214 -16 
Q 841 59 441 206 
L 441 856 
Q 825 641 1194 531 
Q 1563 422 1919 422 
Q 2459 422 2753 634 
Q 3047 847 3047 1241 
Q 3047 1584 2836 1778 
Q 2625 1972 2144 2069 
L 1759 2144 
Q 1053 2284 737 2584 
Q 422 2884 422 3419 
Q 422 4038 858 4394 
Q 1294 4750 2059 4750 
Q 2388 4750 2728 4690 
Q 3069 4631 3425 4513 
z
" id="DejaVuSans-53" transform="scale(0.015625)"/>
      <path d="M 628 4666 
L 1259 4666 
L 1259 531 
L 3531 531 
L 3531 0 
L 628 0 
L 628 4666 
z
" id="DejaVuSans-4c" transform="scale(0.015625)"/>
      <path d="M 2059 -325 
Q 1816 -950 1584 -1140 
Q 1353 -1331 966 -1331 
L 506 -1331 
L 506 -850 
L 844 -850 
Q 1081 -850 1212 -737 
Q 1344 -625 1503 -206 
L 1606 56 
L 191 3500 
L 800 3500 
L 1894 763 
L 2988 3500 
L 3597 3500 
L 2059 -325 
z
" id="DejaVuSans-79" transform="scale(0.015625)"/>
     </defs>
     <use xlink:href="#DejaVuSans-5a"/>
     <use x="68.505859" xlink:href="#DejaVuSans-65"/>
     <use x="130.029297" xlink:href="#DejaVuSans-72"/>
     <use x="168.892578" xlink:href="#DejaVuSans-6f"/>
     <use x="231.949219" xlink:href="#DejaVuSans-2d"/>
     <use x="268.033203" xlink:href="#DejaVuSans-43"/>
     <use x="337.857422" xlink:href="#DejaVuSans-61"/>
     <use x="399.136719" xlink:href="#DejaVuSans-72"/>
     <use x="438" xlink:href="#DejaVuSans-65"/>
     <use x="499.523438" xlink:href="#DejaVuSans-20"/>
     <use x="531.310547" xlink:href="#DejaVuSans-48"/>
     <use x="606.505859" xlink:href="#DejaVuSans-6f"/>
     <use x="667.6875" xlink:href="#DejaVuSans-75"/>
     <use x="731.066406" xlink:href="#DejaVuSans-73"/>
     <use x="783.166016" xlink:href="#DejaVuSans-65"/>
     <use x="844.689453" xlink:href="#DejaVuSans-68"/>
     <use x="908.068359" xlink:href="#DejaVuSans-6f"/>
     <use x="969.25" xlink:href="#DejaVuSans-6c"/>
     <use x="997.033203" xlink:href="#DejaVuSans-64"/>
     <use x="1060.509766" xlink:href="#DejaVuSans-73"/>
     <use x="1112.609375" xlink:href="#DejaVuSans-20"/>
     <use x="1144.396484" xlink:href="#DejaVuSans-61"/>
     <use x="1205.675781" xlink:href="#DejaVuSans-6e"/>
     <use x="1269.054688" xlink:href="#DejaVuSans-64"/>
     <use x="1332.53125" xlink:href="#DejaVuSans-20"/>
     <use x="1364.318359" xlink:href="#DejaVuSans-41"/>
     <use x="1426.851562" xlink:href="#DejaVuSans-76"/>
     <use x="1486.03125" xlink:href="#DejaVuSans-67"/>
     <use x="1549.507812" xlink:href="#DejaVuSans-2e"/>
     <use x="1581.294922" xlink:href="#DejaVuSans-20"/>
     <use x="1613.082031" xlink:href="#DejaVuSans-44"/>
     <use x="1690.083984" xlink:href="#DejaVuSans-69"/>
     <use x="1717.867188" xlink:href="#DejaVuSans-73"/>
     <use x="1769.966797" xlink:href="#DejaVuSans-74"/>
     <use x="1809.175781" xlink:href="#DejaVuSans-61"/>
     <use x="1870.455078" xlink:href="#DejaVuSans-6e"/>
     <use x="1933.833984" xlink:href="#DejaVuSans-63"/>
     <use x="1988.814453" xlink:href="#DejaVuSans-65"/>
     <use x="2050.337891" xlink:href="#DejaVuSans-20"/>
     <use x="2082.125" xlink:href="#DejaVuSans-74"/>
     <use x="2121.333984" xlink:href="#DejaVuSans-6f"/>
     <use x="2182.515625" xlink:href="#DejaVuSans-20"/>
     <use x="2214.302734" xlink:href="#DejaVuSans-50"/>
     <use x="2272.855469" xlink:href="#DejaVuSans-75"/>
     <use x="2336.234375" xlink:href="#DejaVuSans-62"/>
     <use x="2399.710938" xlink:href="#DejaVuSans-6c"/>
     <use x="2427.494141" xlink:href="#DejaVuSans-69"/>
     <use x="2455.277344" xlink:href="#DejaVuSans-63"/>
     <use x="2510.257812" xlink:href="#DejaVuSans-20"/>
     <use x="2542.044922" xlink:href="#DejaVuSans-54"/>
     <use x="2588.378906" xlink:href="#DejaVuSans-72"/>
     <use x="2629.492188" xlink:href="#DejaVuSans-61"/>
     <use x="2690.771484" xlink:href="#DejaVuSans-6e"/>
     <use x="2754.150391" xlink:href="#DejaVuSans-73"/>
     <use x="2806.25" xlink:href="#DejaVuSans-69"/>
     <use x="2834.033203" xlink:href="#DejaVuSans-74"/>
     <use x="2873.242188" xlink:href="#DejaVuSans-2c"/>
     <use x="2905.029297" xlink:href="#DejaVuSans-20"/>
     <use x="2936.816406" xlink:href="#DejaVuSans-53"/>
     <use x="3000.292969" xlink:href="#DejaVuSans-74"/>
     <use x="3039.501953" xlink:href="#DejaVuSans-2e"/>
     <use x="3071.289062" xlink:href="#DejaVuSans-20"/>
     <use x="3103.076172" xlink:href="#DejaVuSans-4c"/>
     <use x="3157.039062" xlink:href="#DejaVuSans-6f"/>
     <use x="3218.220703" xlink:href="#DejaVuSans-75"/>
     <use x="3281.599609" xlink:href="#DejaVuSans-69"/>
     <use x="3309.382812" xlink:href="#DejaVuSans-73"/>
     <use x="3361.482422" xlink:href="#DejaVuSans-20"/>
     <use x="3393.269531" xlink:href="#DejaVuSans-43"/>
     <use x="3463.09375" xlink:href="#DejaVuSans-69"/>
     <use x="3490.876953" xlink:href="#DejaVuSans-74"/>
     <use x="3530.085938" xlink:href="#DejaVuSans-79"/>
     <use x="3589.265625" xlink:href="#DejaVuSans-20"/>
     <use x="3621.052734" xlink:href="#DejaVuSans-43"/>
     <use x="3690.876953" xlink:href="#DejaVuSans-65"/>
     <use x="3752.400391" xlink:href="#DejaVuSans-6e"/>
     <use x="3815.779297" xlink:href="#DejaVuSans-73"/>
     <use x="3867.878906" xlink:href="#DejaVuSans-75"/>
     <use x="3931.257812" xlink:href="#DejaVuSans-73"/>
     <use x="3983.357422" xlink:href="#DejaVuSans-20"/>
     <use x="4015.144531" xlink:href="#DejaVuSans-54"/>
     <use x="4061.478516" xlink:href="#DejaVuSans-72"/>
     <use x="4102.591797" xlink:href="#DejaVuSans-61"/>
     <use x="4163.871094" xlink:href="#DejaVuSans-63"/>
     <use x="4218.851562" xlink:href="#DejaVuSans-74"/>
     <use x="4258.060547" xlink:href="#DejaVuSans-73"/>
    </g>
   </g>
  </g>
 </g>
 <defs>
  <clipPath id="p812eff4066">
   <rect height="363.16" width="343.06" x="78.14" y="26.88"/>
  </clipPath>
 </defs>
</svg>
