<?xml version="1.0" encoding="utf-8" standalone="no"?>
<!DOCTYPE svg PUBLIC "-//W3C//DTD SVG 1.1//EN"
  "http://www.w3.org/Graphics/SVG/1.1/DTD/svg11.dtd">
<svg height="432pt" version="1.1" viewBox="0 0 432 432" width="432pt" xmlns="http://www.w3.org/2000/svg" xmlns:xlink="http://www.w3.org/1999/xlink">
 <metadata>
  <rdf:RDF xmlns:cc="http://creativecommons.org/ns#" xmlns:dc="http://purl.org/dc/elements/1.1/" xmlns:rdf="http://www.w3.org/1999/02/22-rdf-syntax-ns#">
   <cc:Work>
    <dc:type rdf:resource="http://purl.org/dc/dcmitype/StillImage"/>
    <dc:date>2025-03-30T22:45:52.434340</dc:date>
    <dc:format>image/svg+xml</dc:format>
    <dc:creator>
     <cc:Agent>
      <dc:title>Matplotlib v3.4.2, https://matplotlib.org/</dc:title>
     </cc:Agent>
    </dc:creator>
   </cc:Work>
  </rdf:RDF>
 </metadata>
 <defs>
  <style type="text/css">*{stroke-linecap:butt;stroke-linejoin:round;}</style>
 </defs>
 <g id="figure_1">
  <g id="patch_1">
   <path d="M 0 432 
L 432 432 
L 432 0 
L 0 0 
z
" style="fill:#ffffff;"/>
  </g>
  <g id="axes_1">
   <g id="patch_2">
    <path d="M 47.72 390.04 
L 421.2 390.04 
L 421.2 26.88 
L 47.72 26.88 
z
" style="fill:#ffffff;"/>
   </g>
   <g id="PathCollection_1">
    <defs>
     <path d="M 0 3 
C 0.795609 3 1.55874 2.683901 2.12132 2.12132 
C 2.683901 1.55874 3 0.795609 3 0 
C 3 -0.795609 2.683901 -1.55874 2.12132 -2.12132 
C 1.55874 -2.683901 0.795609 -3 0 -3 
C -0.795609 -3 -1.55874 -2.683901 -2.12132 -2.12132 
C -2.683901 -1.55874 -3 -0.795609 -3 0 
C -3 0.795609 -2.683901 1.55874 -2.12132 2.12132 
C -1.55874 2.683901 -0.795609 3 0 3 
z
" id="me9233c57df" style="stroke:#1f77b4;stroke-opacity:0.5;"/>
    </defs>
    <g clip-path="url(#pbd4b9991cc)">
     <use style="fill:#1f77b4;fill-opacity:0.5;stroke:#1f77b4;stroke-opacity:0.5;" x="134.115929" xlink:href="#me9233c57df" y="243.323464"/>
     <use style="fill:#1f77b4;fill-opacity:0.5;stroke:#1f77b4;stroke-opacity:0.5;" x="180.417411" xlink:href="#me9233c57df" y="371.510086"/>
     <use style="fill:#1f77b4;fill-opacity:0.5;stroke:#1f77b4;stroke-opacity:0.5;" x="141.838251" xlink:href="#me9233c57df" y="332.687525"/>
     <use style="fill:#1f77b4;fill-opacity:0.5;stroke:#1f77b4;stroke-opacity:0.5;" x="227.185759" xlink:href="#me9233c57df" y="259.677267"/>
     <use style="fill:#1f77b4;fill-opacity:0.5;stroke:#1f77b4;stroke-opacity:0.5;" x="208.770879" xlink:href="#me9233c57df" y="172.521736"/>
     <use style="fill:#1f77b4;fill-opacity:0.5;stroke:#1f77b4;stroke-opacity:0.5;" x="225.289115" xlink:href="#me9233c57df" y="200.676638"/>
     <use style="fill:#1f77b4;fill-opacity:0.5;stroke:#1f77b4;stroke-opacity:0.5;" x="85.394259" xlink:href="#me9233c57df" y="318.893367"/>
     <use style="fill:#1f77b4;fill-opacity:0.5;stroke:#1f77b4;stroke-opacity:0.5;" x="77.786047" xlink:href="#me9233c57df" y="372.273203"/>
     <use style="fill:#1f77b4;fill-opacity:0.5;stroke:#1f77b4;stroke-opacity:0.5;" x="223.411345" xlink:href="#me9233c57df" y="301.484326"/>
     <use style="fill:#1f77b4;fill-opacity:0.5;stroke:#1f77b4;stroke-opacity:0.5;" x="186.861161" xlink:href="#me9233c57df" y="280.656313"/>
     <use style="fill:#1f77b4;fill-opacity:0.5;stroke:#1f77b4;stroke-opacity:0.5;" x="120.773057" xlink:href="#me9233c57df" y="300.659416"/>
     <use style="fill:#1f77b4;fill-opacity:0.5;stroke:#1f77b4;stroke-opacity:0.5;" x="112.782714" xlink:href="#me9233c57df" y="320.842684"/>
     <use style="fill:#1f77b4;fill-opacity:0.5;stroke:#1f77b4;stroke-opacity:0.5;" x="91.455805" xlink:href="#me9233c57df" y="364.777748"/>
     <use style="fill:#1f77b4;fill-opacity:0.5;stroke:#1f77b4;stroke-opacity:0.5;" x="88.1171" xlink:href="#me9233c57df" y="365.517449"/>
     <use style="fill:#1f77b4;fill-opacity:0.5;stroke:#1f77b4;stroke-opacity:0.5;" x="115.29542" xlink:href="#me9233c57df" y="358.336056"/>
     <use style="fill:#1f77b4;fill-opacity:0.5;stroke:#1f77b4;stroke-opacity:0.5;" x="85.531115" xlink:href="#me9233c57df" y="337.3039"/>
     <use style="fill:#1f77b4;fill-opacity:0.5;stroke:#1f77b4;stroke-opacity:0.5;" x="128.501676" xlink:href="#me9233c57df" y="319.898915"/>
     <use style="fill:#1f77b4;fill-opacity:0.5;stroke:#1f77b4;stroke-opacity:0.5;" x="116.74953" xlink:href="#me9233c57df" y="361.043669"/>
     <use style="fill:#1f77b4;fill-opacity:0.5;stroke:#1f77b4;stroke-opacity:0.5;" x="141.257978" xlink:href="#me9233c57df" y="315.906756"/>
     <use style="fill:#1f77b4;fill-opacity:0.5;stroke:#1f77b4;stroke-opacity:0.5;" x="262.763804" xlink:href="#me9233c57df" y="282.819042"/>
     <use style="fill:#1f77b4;fill-opacity:0.5;stroke:#1f77b4;stroke-opacity:0.5;" x="358.034879" xlink:href="#me9233c57df" y="149.628241"/>
     <use style="fill:#1f77b4;fill-opacity:0.5;stroke:#1f77b4;stroke-opacity:0.5;" x="376.808265" xlink:href="#me9233c57df" y="142.588936"/>
     <use style="fill:#1f77b4;fill-opacity:0.5;stroke:#1f77b4;stroke-opacity:0.5;" x="389.669328" xlink:href="#me9233c57df" y="284.297551"/>
     <use style="fill:#1f77b4;fill-opacity:0.5;stroke:#1f77b4;stroke-opacity:0.5;" x="399.842605" xlink:href="#me9233c57df" y="176.922873"/>
     <use style="fill:#1f77b4;fill-opacity:0.5;stroke:#1f77b4;stroke-opacity:0.5;" x="397.08718" xlink:href="#me9233c57df" y="53.393456"/>
     <use style="fill:#1f77b4;fill-opacity:0.5;stroke:#1f77b4;stroke-opacity:0.5;" x="404.223636" xlink:href="#me9233c57df" y="202.06073"/>
     <use style="fill:#1f77b4;fill-opacity:0.5;stroke:#1f77b4;stroke-opacity:0.5;" x="404.223636" xlink:href="#me9233c57df" y="120.415084"/>
     <use style="fill:#1f77b4;fill-opacity:0.5;stroke:#1f77b4;stroke-opacity:0.5;" x="378.119145" xlink:href="#me9233c57df" y="203.376411"/>
     <use style="fill:#1f77b4;fill-opacity:0.5;stroke:#1f77b4;stroke-opacity:0.5;" x="386.386689" xlink:href="#me9233c57df" y="166.162697"/>
     <use style="fill:#1f77b4;fill-opacity:0.5;stroke:#1f77b4;stroke-opacity:0.5;" x="403.045243" xlink:href="#me9233c57df" y="305.194946"/>
     <use style="fill:#1f77b4;fill-opacity:0.5;stroke:#1f77b4;stroke-opacity:0.5;" x="404.223636" xlink:href="#me9233c57df" y="214.788708"/>
     <use style="fill:#1f77b4;fill-opacity:0.5;stroke:#1f77b4;stroke-opacity:0.5;" x="397.610123" xlink:href="#me9233c57df" y="247.336595"/>
     <use style="fill:#1f77b4;fill-opacity:0.5;stroke:#1f77b4;stroke-opacity:0.5;" x="400.897218" xlink:href="#me9233c57df" y="179.666983"/>
     <use style="fill:#1f77b4;fill-opacity:0.5;stroke:#1f77b4;stroke-opacity:0.5;" x="382.323721" xlink:href="#me9233c57df" y="129.300932"/>
     <use style="fill:#1f77b4;fill-opacity:0.5;stroke:#1f77b4;stroke-opacity:0.5;" x="395.5786" xlink:href="#me9233c57df" y="209.813725"/>
     <use style="fill:#1f77b4;fill-opacity:0.5;stroke:#1f77b4;stroke-opacity:0.5;" x="398.750366" xlink:href="#me9233c57df" y="163.950218"/>
     <use style="fill:#1f77b4;fill-opacity:0.5;stroke:#1f77b4;stroke-opacity:0.5;" x="393.545086" xlink:href="#me9233c57df" y="221.047973"/>
     <use style="fill:#1f77b4;fill-opacity:0.5;stroke:#1f77b4;stroke-opacity:0.5;" x="391.13206" xlink:href="#me9233c57df" y="199.465532"/>
     <use style="fill:#1f77b4;fill-opacity:0.5;stroke:#1f77b4;stroke-opacity:0.5;" x="392.853514" xlink:href="#me9233c57df" y="148.084866"/>
     <use style="fill:#1f77b4;fill-opacity:0.5;stroke:#1f77b4;stroke-opacity:0.5;" x="385.450155" xlink:href="#me9233c57df" y="233.883464"/>
     <use style="fill:#1f77b4;fill-opacity:0.5;stroke:#1f77b4;stroke-opacity:0.5;" x="400.201116" xlink:href="#me9233c57df" y="114.228803"/>
     <use style="fill:#1f77b4;fill-opacity:0.5;stroke:#1f77b4;stroke-opacity:0.5;" x="400.473424" xlink:href="#me9233c57df" y="201.718378"/>
     <use style="fill:#1f77b4;fill-opacity:0.5;stroke:#1f77b4;stroke-opacity:0.5;" x="404.223636" xlink:href="#me9233c57df" y="141.937599"/>
     <use style="fill:#1f77b4;fill-opacity:0.5;stroke:#1f77b4;stroke-opacity:0.5;" x="389.82174" xlink:href="#me9233c57df" y="148.899795"/>
     <use style="fill:#1f77b4;fill-opacity:0.5;stroke:#1f77b4;stroke-opacity:0.5;" x="384.82896" xlink:href="#me9233c57df" y="242.085346"/>
     <use style="fill:#1f77b4;fill-opacity:0.5;stroke:#1f77b4;stroke-opacity:0.5;" x="393.710512" xlink:href="#me9233c57df" y="158.761201"/>
     <use style="fill:#1f77b4;fill-opacity:0.5;stroke:#1f77b4;stroke-opacity:0.5;" x="358.073267" xlink:href="#me9233c57df" y="240.378795"/>
     <use style="fill:#1f77b4;fill-opacity:0.5;stroke:#1f77b4;stroke-opacity:0.5;" x="384.226524" xlink:href="#me9233c57df" y="171.107225"/>
     <use style="fill:#1f77b4;fill-opacity:0.5;stroke:#1f77b4;stroke-opacity:0.5;" x="176.622631" xlink:href="#me9233c57df" y="315.570167"/>
     <use style="fill:#1f77b4;fill-opacity:0.5;stroke:#1f77b4;stroke-opacity:0.5;" x="364.574592" xlink:href="#me9233c57df" y="288.306984"/>
     <use style="fill:#1f77b4;fill-opacity:0.5;stroke:#1f77b4;stroke-opacity:0.5;" x="373.055164" xlink:href="#me9233c57df" y="198.754683"/>
     <use style="fill:#1f77b4;fill-opacity:0.5;stroke:#1f77b4;stroke-opacity:0.5;" x="135.199909" xlink:href="#me9233c57df" y="289.047284"/>
     <use style="fill:#1f77b4;fill-opacity:0.5;stroke:#1f77b4;stroke-opacity:0.5;" x="76.626027" xlink:href="#me9233c57df" y="345.245081"/>
     <use style="fill:#1f77b4;fill-opacity:0.5;stroke:#1f77b4;stroke-opacity:0.5;" x="113.239421" xlink:href="#me9233c57df" y="287.351308"/>
     <use style="fill:#1f77b4;fill-opacity:0.5;stroke:#1f77b4;stroke-opacity:0.5;" x="64.696364" xlink:href="#me9233c57df" y="328.991572"/>
     <use style="fill:#1f77b4;fill-opacity:0.5;stroke:#1f77b4;stroke-opacity:0.5;" x="154.897075" xlink:href="#me9233c57df" y="358.396979"/>
     <use style="fill:#1f77b4;fill-opacity:0.5;stroke:#1f77b4;stroke-opacity:0.5;" x="99.643871" xlink:href="#me9233c57df" y="341.231823"/>
     <use style="fill:#1f77b4;fill-opacity:0.5;stroke:#1f77b4;stroke-opacity:0.5;" x="186.976399" xlink:href="#me9233c57df" y="226.183289"/>
     <use style="fill:#1f77b4;fill-opacity:0.5;stroke:#1f77b4;stroke-opacity:0.5;" x="225.08089" xlink:href="#me9233c57df" y="196.066379"/>
     <use style="fill:#1f77b4;fill-opacity:0.5;stroke:#1f77b4;stroke-opacity:0.5;" x="250.650561" xlink:href="#me9233c57df" y="276.850139"/>
     <use style="fill:#1f77b4;fill-opacity:0.5;stroke:#1f77b4;stroke-opacity:0.5;" x="219.646855" xlink:href="#me9233c57df" y="178.508807"/>
     <use style="fill:#1f77b4;fill-opacity:0.5;stroke:#1f77b4;stroke-opacity:0.5;" x="309.772818" xlink:href="#me9233c57df" y="189.720074"/>
     <use style="fill:#1f77b4;fill-opacity:0.5;stroke:#1f77b4;stroke-opacity:0.5;" x="247.147134" xlink:href="#me9233c57df" y="193.863901"/>
     <use style="fill:#1f77b4;fill-opacity:0.5;stroke:#1f77b4;stroke-opacity:0.5;" x="272.522839" xlink:href="#me9233c57df" y="286.079318"/>
     <use style="fill:#1f77b4;fill-opacity:0.5;stroke:#1f77b4;stroke-opacity:0.5;" x="245.228323" xlink:href="#me9233c57df" y="205.148885"/>
     <use style="fill:#1f77b4;fill-opacity:0.5;stroke:#1f77b4;stroke-opacity:0.5;" x="137.683666" xlink:href="#me9233c57df" y="373.532727"/>
     <use style="fill:#1f77b4;fill-opacity:0.5;stroke:#1f77b4;stroke-opacity:0.5;" x="156.555316" xlink:href="#me9233c57df" y="281.643778"/>
     <use style="fill:#1f77b4;fill-opacity:0.5;stroke:#1f77b4;stroke-opacity:0.5;" x="292.40071" xlink:href="#me9233c57df" y="171.922962"/>
     <use style="fill:#1f77b4;fill-opacity:0.5;stroke:#1f77b4;stroke-opacity:0.5;" x="329.090481" xlink:href="#me9233c57df" y="152.025514"/>
     <use style="fill:#1f77b4;fill-opacity:0.5;stroke:#1f77b4;stroke-opacity:0.5;" x="193.94451" xlink:href="#me9233c57df" y="312.259064"/>
     <use style="fill:#1f77b4;fill-opacity:0.5;stroke:#1f77b4;stroke-opacity:0.5;" x="160.793783" xlink:href="#me9233c57df" y="319.831614"/>
     <use style="fill:#1f77b4;fill-opacity:0.5;stroke:#1f77b4;stroke-opacity:0.5;" x="163.378258" xlink:href="#me9233c57df" y="342.430903"/>
     <use style="fill:#1f77b4;fill-opacity:0.5;stroke:#1f77b4;stroke-opacity:0.5;" x="148.830833" xlink:href="#me9233c57df" y="331.798868"/>
     <use style="fill:#1f77b4;fill-opacity:0.5;stroke:#1f77b4;stroke-opacity:0.5;" x="228.864166" xlink:href="#me9233c57df" y="299.823622"/>
     <use style="fill:#1f77b4;fill-opacity:0.5;stroke:#1f77b4;stroke-opacity:0.5;" x="173.152225" xlink:href="#me9233c57df" y="302.117417"/>
     <use style="fill:#1f77b4;fill-opacity:0.5;stroke:#1f77b4;stroke-opacity:0.5;" x="244.448502" xlink:href="#me9233c57df" y="269.525743"/>
     <use style="fill:#1f77b4;fill-opacity:0.5;stroke:#1f77b4;stroke-opacity:0.5;" x="215.278823" xlink:href="#me9233c57df" y="290.588272"/>
     <use style="fill:#1f77b4;fill-opacity:0.5;stroke:#1f77b4;stroke-opacity:0.5;" x="217.784826" xlink:href="#me9233c57df" y="281.479501"/>
     <use style="fill:#1f77b4;fill-opacity:0.5;stroke:#1f77b4;stroke-opacity:0.5;" x="183.016308" xlink:href="#me9233c57df" y="260.489696"/>
     <use style="fill:#1f77b4;fill-opacity:0.5;stroke:#1f77b4;stroke-opacity:0.5;" x="384.740228" xlink:href="#me9233c57df" y="197.217145"/>
     <use style="fill:#1f77b4;fill-opacity:0.5;stroke:#1f77b4;stroke-opacity:0.5;" x="404.055696" xlink:href="#me9233c57df" y="149.621566"/>
     <use style="fill:#1f77b4;fill-opacity:0.5;stroke:#1f77b4;stroke-opacity:0.5;" x="265.360364" xlink:href="#me9233c57df" y="292.691996"/>
     <use style="fill:#1f77b4;fill-opacity:0.5;stroke:#1f77b4;stroke-opacity:0.5;" x="192.679935" xlink:href="#me9233c57df" y="237.893576"/>
     <use style="fill:#1f77b4;fill-opacity:0.5;stroke:#1f77b4;stroke-opacity:0.5;" x="197.031383" xlink:href="#me9233c57df" y="259.462734"/>
     <use style="fill:#1f77b4;fill-opacity:0.5;stroke:#1f77b4;stroke-opacity:0.5;" x="290.443979" xlink:href="#me9233c57df" y="97.211258"/>
     <use style="fill:#1f77b4;fill-opacity:0.5;stroke:#1f77b4;stroke-opacity:0.5;" x="269.061862" xlink:href="#me9233c57df" y="208.95984"/>
     <use style="fill:#1f77b4;fill-opacity:0.5;stroke:#1f77b4;stroke-opacity:0.5;" x="127.653594" xlink:href="#me9233c57df" y="304.693205"/>
     <use style="fill:#1f77b4;fill-opacity:0.5;stroke:#1f77b4;stroke-opacity:0.5;" x="321.673092" xlink:href="#me9233c57df" y="106.434443"/>
     <use style="fill:#1f77b4;fill-opacity:0.5;stroke:#1f77b4;stroke-opacity:0.5;" x="228.451495" xlink:href="#me9233c57df" y="277.562849"/>
     <use style="fill:#1f77b4;fill-opacity:0.5;stroke:#1f77b4;stroke-opacity:0.5;" x="227.103575" xlink:href="#me9233c57df" y="314.527083"/>
     <use style="fill:#1f77b4;fill-opacity:0.5;stroke:#1f77b4;stroke-opacity:0.5;" x="390.246152" xlink:href="#me9233c57df" y="43.387273"/>
     <use style="fill:#1f77b4;fill-opacity:0.5;stroke:#1f77b4;stroke-opacity:0.5;" x="353.635389" xlink:href="#me9233c57df" y="79.989234"/>
     <use style="fill:#1f77b4;fill-opacity:0.5;stroke:#1f77b4;stroke-opacity:0.5;" x="322.612722" xlink:href="#me9233c57df" y="176.749932"/>
     <use style="fill:#1f77b4;fill-opacity:0.5;stroke:#1f77b4;stroke-opacity:0.5;" x="139.973859" xlink:href="#me9233c57df" y="330.537588"/>
     <use style="fill:#1f77b4;fill-opacity:0.5;stroke:#1f77b4;stroke-opacity:0.5;" x="388.958241" xlink:href="#me9233c57df" y="221.763771"/>
     <use style="fill:#1f77b4;fill-opacity:0.5;stroke:#1f77b4;stroke-opacity:0.5;" x="366.55204" xlink:href="#me9233c57df" y="111.672838"/>
     <use style="fill:#1f77b4;fill-opacity:0.5;stroke:#1f77b4;stroke-opacity:0.5;" x="355.923731" xlink:href="#me9233c57df" y="127.883036"/>
     <use style="fill:#1f77b4;fill-opacity:0.5;stroke:#1f77b4;stroke-opacity:0.5;" x="235.625109" xlink:href="#me9233c57df" y="299.195499"/>
     <use style="fill:#1f77b4;fill-opacity:0.5;stroke:#1f77b4;stroke-opacity:0.5;" x="299.897618" xlink:href="#me9233c57df" y="309.686045"/>
     <use style="fill:#1f77b4;fill-opacity:0.5;stroke:#1f77b4;stroke-opacity:0.5;" x="278.373385" xlink:href="#me9233c57df" y="194.294846"/>
     <use style="fill:#1f77b4;fill-opacity:0.5;stroke:#1f77b4;stroke-opacity:0.5;" x="340.803712" xlink:href="#me9233c57df" y="127.130829"/>
     <use style="fill:#1f77b4;fill-opacity:0.5;stroke:#1f77b4;stroke-opacity:0.5;" x="128.652158" xlink:href="#me9233c57df" y="288.878787"/>
     <use style="fill:#1f77b4;fill-opacity:0.5;stroke:#1f77b4;stroke-opacity:0.5;" x="386.676728" xlink:href="#me9233c57df" y="123.824371"/>
     <use style="fill:#1f77b4;fill-opacity:0.5;stroke:#1f77b4;stroke-opacity:0.5;" x="279.747196" xlink:href="#me9233c57df" y="214.504805"/>
    </g>
   </g>
   <g id="PolyCollection_1">
    <path clip-path="url(#pbd4b9991cc)" d="M 64.696364 336.573396 
L 64.696364 366.793958 
L 68.125932 364.667315 
L 71.5555 362.564438 
L 74.985069 360.397276 
L 78.414637 358.341252 
L 81.844206 356.215249 
L 85.273774 354.075909 
L 88.703343 351.829864 
L 92.132911 349.583109 
L 95.562479 347.336354 
L 98.992048 345.09248 
L 102.421616 342.999788 
L 105.851185 340.934416 
L 109.280753 338.742609 
L 112.710321 336.529299 
L 116.13989 334.315989 
L 119.569458 332.103139 
L 122.999027 330.049403 
L 126.428595 327.995666 
L 129.858163 325.941929 
L 133.287732 323.83927 
L 136.7173 321.591448 
L 140.146869 319.612158 
L 143.576437 317.514229 
L 147.006006 315.498891 
L 150.435574 313.551469 
L 153.865142 311.499851 
L 157.294711 309.378708 
L 160.724279 307.228088 
L 164.153848 305.247094 
L 167.583416 303.089858 
L 171.012984 300.99659 
L 174.442553 299.195894 
L 177.872121 297.133229 
L 181.30169 295.162908 
L 184.731258 293.218971 
L 188.160826 291.095723 
L 191.590395 289.00204 
L 195.019963 286.997598 
L 198.449532 285.14741 
L 201.8791 283.22035 
L 205.308669 281.294476 
L 208.738237 279.3653 
L 212.167805 277.370569 
L 215.597374 275.511709 
L 219.026942 273.648171 
L 222.456511 271.804782 
L 225.886079 269.991755 
L 229.315647 268.118926 
L 232.745216 266.276791 
L 236.174784 264.242981 
L 239.604353 262.458641 
L 243.033921 260.750386 
L 246.463489 258.908251 
L 249.893058 257.066116 
L 253.322626 255.239615 
L 256.752195 253.403426 
L 260.181763 251.564036 
L 263.611331 249.789343 
L 267.0409 248.015133 
L 270.470468 246.312577 
L 273.900037 244.549693 
L 277.329605 242.707032 
L 280.759174 240.838851 
L 284.188742 239.14182 
L 287.61831 237.502642 
L 291.047879 235.769904 
L 294.477447 234.08898 
L 297.907016 232.421484 
L 301.336584 230.753987 
L 304.766152 229.08649 
L 308.195721 227.375179 
L 311.625289 225.64049 
L 315.054858 223.953325 
L 318.484426 222.283054 
L 321.913994 220.698866 
L 325.343563 219.070775 
L 328.773131 217.403178 
L 332.2027 215.735582 
L 335.632268 214.067986 
L 339.061837 212.400281 
L 342.491405 210.628086 
L 345.920973 208.831431 
L 349.350542 207.081091 
L 352.78011 205.392809 
L 356.209679 203.721864 
L 359.639247 202.123922 
L 363.068815 200.453187 
L 366.498384 198.794335 
L 369.927952 197.031815 
L 373.357521 195.269295 
L 376.787089 193.576543 
L 380.216657 191.88975 
L 383.646226 190.201055 
L 387.075794 188.513625 
L 390.505363 186.827283 
L 393.934931 185.134783 
L 397.3645 183.468827 
L 400.794068 181.815446 
L 404.223636 180.15997 
L 404.223636 141.475106 
L 404.223636 141.475106 
L 400.794068 143.654451 
L 397.3645 145.763105 
L 393.934931 147.857375 
L 390.505363 149.952719 
L 387.075794 152.068811 
L 383.646226 154.303584 
L 380.216657 156.45993 
L 376.787089 158.533439 
L 373.357521 160.606948 
L 369.927952 162.680458 
L 366.498384 164.756485 
L 363.068815 166.907087 
L 359.639247 169.116505 
L 356.209679 171.325923 
L 352.78011 173.535367 
L 349.350542 175.748754 
L 345.920973 177.999064 
L 342.491405 180.322883 
L 339.061837 182.646703 
L 335.632268 184.773194 
L 332.2027 186.800091 
L 328.773131 189.009819 
L 325.343563 191.222043 
L 321.913994 193.422632 
L 318.484426 195.638609 
L 315.054858 197.845351 
L 311.625289 200.056118 
L 308.195721 202.266884 
L 304.766152 204.467187 
L 301.336584 206.568851 
L 297.907016 208.670515 
L 294.477447 210.768735 
L 291.047879 212.78399 
L 287.61831 214.719492 
L 284.188742 216.6591 
L 280.759174 218.590734 
L 277.329605 220.705604 
L 273.900037 222.97337 
L 270.470468 225.241137 
L 267.0409 227.267185 
L 263.611331 229.195251 
L 260.181763 231.332318 
L 256.752195 233.450593 
L 253.322626 235.624533 
L 249.893058 237.613145 
L 246.463489 239.827812 
L 243.033921 241.919344 
L 239.604353 243.867696 
L 236.174784 245.736705 
L 232.745216 247.672741 
L 229.315647 249.611902 
L 225.886079 251.659442 
L 222.456511 253.525518 
L 219.026942 255.531127 
L 215.597374 257.538354 
L 212.167805 259.311755 
L 208.738237 261.526646 
L 205.308669 263.277017 
L 201.8791 265.185466 
L 198.449532 267.08918 
L 195.019963 269.00763 
L 191.590395 270.731436 
L 188.160826 272.649361 
L 184.731258 274.756425 
L 181.30169 276.683391 
L 177.872121 278.564162 
L 174.442553 280.445194 
L 171.012984 282.332368 
L 167.583416 284.212081 
L 164.153848 286.089603 
L 160.724279 287.975135 
L 157.294711 289.860667 
L 153.865142 291.726715 
L 150.435574 293.294548 
L 147.006006 294.923572 
L 143.576437 296.610663 
L 140.146869 298.424567 
L 136.7173 300.240617 
L 133.287732 302.062252 
L 129.858163 303.864361 
L 126.428595 305.704115 
L 122.999027 307.604924 
L 119.569458 309.42937 
L 116.13989 311.126781 
L 112.710321 312.794822 
L 109.280753 314.435319 
L 105.851185 316.121807 
L 102.421616 317.907556 
L 98.992048 319.602337 
L 95.562479 321.103549 
L 92.132911 322.643714 
L 88.703343 324.284805 
L 85.273774 326.065393 
L 81.844206 327.91008 
L 78.414637 329.753906 
L 74.985069 331.477318 
L 71.5555 333.171703 
L 68.125932 334.870889 
L 64.696364 336.573396 
z
" style="fill:#1f77b4;fill-opacity:0.15;"/>
   </g>
   <g id="matplotlib.axis_1">
    <g id="xtick_1">
     <g id="line2d_1">
      <path clip-path="url(#pbd4b9991cc)" d="M 117.381341 390.04 
L 117.381341 26.88 
" style="fill:none;stroke:#b0b0b0;stroke-dasharray:2.96,1.28;stroke-dashoffset:0;stroke-opacity:0.5;stroke-width:0.8;"/>
     </g>
     <g id="line2d_2">
      <defs>
       <path d="M 0 0 
L 0 3.5 
" id="mfec2203117" style="stroke:#000000;stroke-width:0.8;"/>
      </defs>
      <g>
       <use style="stroke:#000000;stroke-width:0.8;" x="117.381341" xlink:href="#mfec2203117" y="390.04"/>
      </g>
     </g>
     <g id="text_1">
      <!-- 0.2 -->
      <g transform="translate(109.429779 404.638438)scale(0.1 -0.1)">
       <defs>
        <path d="M 2034 4250 
Q 1547 4250 1301 3770 
Q 1056 3291 1056 2328 
Q 1056 1369 1301 889 
Q 1547 409 2034 409 
Q 2525 409 2770 889 
Q 3016 1369 3016 2328 
Q 3016 3291 2770 3770 
Q 2525 4250 2034 4250 
z
M 2034 4750 
Q 2819 4750 3233 4129 
Q 3647 3509 3647 2328 
Q 3647 1150 3233 529 
Q 2819 -91 2034 -91 
Q 1250 -91 836 529 
Q 422 1150 422 2328 
Q 422 3509 836 4129 
Q 1250 4750 2034 4750 
z
" id="DejaVuSans-30" transform="scale(0.015625)"/>
        <path d="M 684 794 
L 1344 794 
L 1344 0 
L 684 0 
L 684 794 
z
" id="DejaVuSans-2e" transform="scale(0.015625)"/>
        <path d="M 1228 531 
L 3431 531 
L 3431 0 
L 469 0 
L 469 531 
Q 828 903 1448 1529 
Q 2069 2156 2228 2338 
Q 2531 2678 2651 2914 
Q 2772 3150 2772 3378 
Q 2772 3750 2511 3984 
Q 2250 4219 1831 4219 
Q 1534 4219 1204 4116 
Q 875 4013 500 3803 
L 500 4441 
Q 881 4594 1212 4672 
Q 1544 4750 1819 4750 
Q 2544 4750 2975 4387 
Q 3406 4025 3406 3419 
Q 3406 3131 3298 2873 
Q 3191 2616 2906 2266 
Q 2828 2175 2409 1742 
Q 1991 1309 1228 531 
z
" id="DejaVuSans-32" transform="scale(0.015625)"/>
       </defs>
       <use xlink:href="#DejaVuSans-30"/>
       <use x="63.623047" xlink:href="#DejaVuSans-2e"/>
       <use x="95.410156" xlink:href="#DejaVuSans-32"/>
      </g>
     </g>
    </g>
    <g id="xtick_2">
     <g id="line2d_3">
      <path clip-path="url(#pbd4b9991cc)" d="M 189.091915 390.04 
L 189.091915 26.88 
" style="fill:none;stroke:#b0b0b0;stroke-dasharray:2.96,1.28;stroke-dashoffset:0;stroke-opacity:0.5;stroke-width:0.8;"/>
     </g>
     <g id="line2d_4">
      <g>
       <use style="stroke:#000000;stroke-width:0.8;" x="189.091915" xlink:href="#mfec2203117" y="390.04"/>
      </g>
     </g>
     <g id="text_2">
      <!-- 0.4 -->
      <g transform="translate(181.140352 404.638438)scale(0.1 -0.1)">
       <defs>
        <path d="M 2419 4116 
L 825 1625 
L 2419 1625 
L 2419 4116 
z
M 2253 4666 
L 3047 4666 
L 3047 1625 
L 3713 1625 
L 3713 1100 
L 3047 1100 
L 3047 0 
L 2419 0 
L 2419 1100 
L 313 1100 
L 313 1709 
L 2253 4666 
z
" id="DejaVuSans-34" transform="scale(0.015625)"/>
       </defs>
       <use xlink:href="#DejaVuSans-30"/>
       <use x="63.623047" xlink:href="#DejaVuSans-2e"/>
       <use x="95.410156" xlink:href="#DejaVuSans-34"/>
      </g>
     </g>
    </g>
    <g id="xtick_3">
     <g id="line2d_5">
      <path clip-path="url(#pbd4b9991cc)" d="M 260.802489 390.04 
L 260.802489 26.88 
" style="fill:none;stroke:#b0b0b0;stroke-dasharray:2.96,1.28;stroke-dashoffset:0;stroke-opacity:0.5;stroke-width:0.8;"/>
     </g>
     <g id="line2d_6">
      <g>
       <use style="stroke:#000000;stroke-width:0.8;" x="260.802489" xlink:href="#mfec2203117" y="390.04"/>
      </g>
     </g>
     <g id="text_3">
      <!-- 0.6 -->
      <g transform="translate(252.850926 404.638438)scale(0.1 -0.1)">
       <defs>
        <path d="M 2113 2584 
Q 1688 2584 1439 2293 
Q 1191 2003 1191 1497 
Q 1191 994 1439 701 
Q 1688 409 2113 409 
Q 2538 409 2786 701 
Q 3034 994 3034 1497 
Q 3034 2003 2786 2293 
Q 2538 2584 2113 2584 
z
M 3366 4563 
L 3366 3988 
Q 3128 4100 2886 4159 
Q 2644 4219 2406 4219 
Q 1781 4219 1451 3797 
Q 1122 3375 1075 2522 
Q 1259 2794 1537 2939 
Q 1816 3084 2150 3084 
Q 2853 3084 3261 2657 
Q 3669 2231 3669 1497 
Q 3669 778 3244 343 
Q 2819 -91 2113 -91 
Q 1303 -91 875 529 
Q 447 1150 447 2328 
Q 447 3434 972 4092 
Q 1497 4750 2381 4750 
Q 2619 4750 2861 4703 
Q 3103 4656 3366 4563 
z
" id="DejaVuSans-36" transform="scale(0.015625)"/>
       </defs>
       <use xlink:href="#DejaVuSans-30"/>
       <use x="63.623047" xlink:href="#DejaVuSans-2e"/>
       <use x="95.410156" xlink:href="#DejaVuSans-36"/>
      </g>
     </g>
    </g>
    <g id="xtick_4">
     <g id="line2d_7">
      <path clip-path="url(#pbd4b9991cc)" d="M 332.513063 390.04 
L 332.513063 26.88 
" style="fill:none;stroke:#b0b0b0;stroke-dasharray:2.96,1.28;stroke-dashoffset:0;stroke-opacity:0.5;stroke-width:0.8;"/>
     </g>
     <g id="line2d_8">
      <g>
       <use style="stroke:#000000;stroke-width:0.8;" x="332.513063" xlink:href="#mfec2203117" y="390.04"/>
      </g>
     </g>
     <g id="text_4">
      <!-- 0.8 -->
      <g transform="translate(324.5615 404.638438)scale(0.1 -0.1)">
       <defs>
        <path d="M 2034 2216 
Q 1584 2216 1326 1975 
Q 1069 1734 1069 1313 
Q 1069 891 1326 650 
Q 1584 409 2034 409 
Q 2484 409 2743 651 
Q 3003 894 3003 1313 
Q 3003 1734 2745 1975 
Q 2488 2216 2034 2216 
z
M 1403 2484 
Q 997 2584 770 2862 
Q 544 3141 544 3541 
Q 544 4100 942 4425 
Q 1341 4750 2034 4750 
Q 2731 4750 3128 4425 
Q 3525 4100 3525 3541 
Q 3525 3141 3298 2862 
Q 3072 2584 2669 2484 
Q 3125 2378 3379 2068 
Q 3634 1759 3634 1313 
Q 3634 634 3220 271 
Q 2806 -91 2034 -91 
Q 1263 -91 848 271 
Q 434 634 434 1313 
Q 434 1759 690 2068 
Q 947 2378 1403 2484 
z
M 1172 3481 
Q 1172 3119 1398 2916 
Q 1625 2713 2034 2713 
Q 2441 2713 2670 2916 
Q 2900 3119 2900 3481 
Q 2900 3844 2670 4047 
Q 2441 4250 2034 4250 
Q 1625 4250 1398 4047 
Q 1172 3844 1172 3481 
z
" id="DejaVuSans-38" transform="scale(0.015625)"/>
       </defs>
       <use xlink:href="#DejaVuSans-30"/>
       <use x="63.623047" xlink:href="#DejaVuSans-2e"/>
       <use x="95.410156" xlink:href="#DejaVuSans-38"/>
      </g>
     </g>
    </g>
    <g id="xtick_5">
     <g id="line2d_9">
      <path clip-path="url(#pbd4b9991cc)" d="M 404.223636 390.04 
L 404.223636 26.88 
" style="fill:none;stroke:#b0b0b0;stroke-dasharray:2.96,1.28;stroke-dashoffset:0;stroke-opacity:0.5;stroke-width:0.8;"/>
     </g>
     <g id="line2d_10">
      <g>
       <use style="stroke:#000000;stroke-width:0.8;" x="404.223636" xlink:href="#mfec2203117" y="390.04"/>
      </g>
     </g>
     <g id="text_5">
      <!-- 1.0 -->
      <g transform="translate(396.272074 404.638438)scale(0.1 -0.1)">
       <defs>
        <path d="M 794 531 
L 1825 531 
L 1825 4091 
L 703 3866 
L 703 4441 
L 1819 4666 
L 2450 4666 
L 2450 531 
L 3481 531 
L 3481 0 
L 794 0 
L 794 531 
z
" id="DejaVuSans-31" transform="scale(0.015625)"/>
       </defs>
       <use xlink:href="#DejaVuSans-31"/>
       <use x="63.623047" xlink:href="#DejaVuSans-2e"/>
       <use x="95.410156" xlink:href="#DejaVuSans-30"/>
      </g>
     </g>
    </g>
    <g id="text_6">
     <!-- Percentage of Residents Who Are BIPOC -->
     <g transform="translate(134.309219 418.316562)scale(0.1 -0.1)">
      <defs>
       <path d="M 1259 4147 
L 1259 2394 
L 2053 2394 
Q 2494 2394 2734 2622 
Q 2975 2850 2975 3272 
Q 2975 3691 2734 3919 
Q 2494 4147 2053 4147 
L 1259 4147 
z
M 628 4666 
L 2053 4666 
Q 2838 4666 3239 4311 
Q 3641 3956 3641 3272 
Q 3641 2581 3239 2228 
Q 2838 1875 2053 1875 
L 1259 1875 
L 1259 0 
L 628 0 
L 628 4666 
z
" id="DejaVuSans-50" transform="scale(0.015625)"/>
       <path d="M 3597 1894 
L 3597 1613 
L 953 1613 
Q 991 1019 1311 708 
Q 1631 397 2203 397 
Q 2534 397 2845 478 
Q 3156 559 3463 722 
L 3463 178 
Q 3153 47 2828 -22 
Q 2503 -91 2169 -91 
Q 1331 -91 842 396 
Q 353 884 353 1716 
Q 353 2575 817 3079 
Q 1281 3584 2069 3584 
Q 2775 3584 3186 3129 
Q 3597 2675 3597 1894 
z
M 3022 2063 
Q 3016 2534 2758 2815 
Q 2500 3097 2075 3097 
Q 1594 3097 1305 2825 
Q 1016 2553 972 2059 
L 3022 2063 
z
" id="DejaVuSans-65" transform="scale(0.015625)"/>
       <path d="M 2631 2963 
Q 2534 3019 2420 3045 
Q 2306 3072 2169 3072 
Q 1681 3072 1420 2755 
Q 1159 2438 1159 1844 
L 1159 0 
L 581 0 
L 581 3500 
L 1159 3500 
L 1159 2956 
Q 1341 3275 1631 3429 
Q 1922 3584 2338 3584 
Q 2397 3584 2469 3576 
Q 2541 3569 2628 3553 
L 2631 2963 
z
" id="DejaVuSans-72" transform="scale(0.015625)"/>
       <path d="M 3122 3366 
L 3122 2828 
Q 2878 2963 2633 3030 
Q 2388 3097 2138 3097 
Q 1578 3097 1268 2742 
Q 959 2388 959 1747 
Q 959 1106 1268 751 
Q 1578 397 2138 397 
Q 2388 397 2633 464 
Q 2878 531 3122 666 
L 3122 134 
Q 2881 22 2623 -34 
Q 2366 -91 2075 -91 
Q 1284 -91 818 406 
Q 353 903 353 1747 
Q 353 2603 823 3093 
Q 1294 3584 2113 3584 
Q 2378 3584 2631 3529 
Q 2884 3475 3122 3366 
z
" id="DejaVuSans-63" transform="scale(0.015625)"/>
       <path d="M 3513 2113 
L 3513 0 
L 2938 0 
L 2938 2094 
Q 2938 2591 2744 2837 
Q 2550 3084 2163 3084 
Q 1697 3084 1428 2787 
Q 1159 2491 1159 1978 
L 1159 0 
L 581 0 
L 581 3500 
L 1159 3500 
L 1159 2956 
Q 1366 3272 1645 3428 
Q 1925 3584 2291 3584 
Q 2894 3584 3203 3211 
Q 3513 2838 3513 2113 
z
" id="DejaVuSans-6e" transform="scale(0.015625)"/>
       <path d="M 1172 4494 
L 1172 3500 
L 2356 3500 
L 2356 3053 
L 1172 3053 
L 1172 1153 
Q 1172 725 1289 603 
Q 1406 481 1766 481 
L 2356 481 
L 2356 0 
L 1766 0 
Q 1100 0 847 248 
Q 594 497 594 1153 
L 594 3053 
L 172 3053 
L 172 3500 
L 594 3500 
L 594 4494 
L 1172 4494 
z
" id="DejaVuSans-74" transform="scale(0.015625)"/>
       <path d="M 2194 1759 
Q 1497 1759 1228 1600 
Q 959 1441 959 1056 
Q 959 750 1161 570 
Q 1363 391 1709 391 
Q 2188 391 2477 730 
Q 2766 1069 2766 1631 
L 2766 1759 
L 2194 1759 
z
M 3341 1997 
L 3341 0 
L 2766 0 
L 2766 531 
Q 2569 213 2275 61 
Q 1981 -91 1556 -91 
Q 1019 -91 701 211 
Q 384 513 384 1019 
Q 384 1609 779 1909 
Q 1175 2209 1959 2209 
L 2766 2209 
L 2766 2266 
Q 2766 2663 2505 2880 
Q 2244 3097 1772 3097 
Q 1472 3097 1187 3025 
Q 903 2953 641 2809 
L 641 3341 
Q 956 3463 1253 3523 
Q 1550 3584 1831 3584 
Q 2591 3584 2966 3190 
Q 3341 2797 3341 1997 
z
" id="DejaVuSans-61" transform="scale(0.015625)"/>
       <path d="M 2906 1791 
Q 2906 2416 2648 2759 
Q 2391 3103 1925 3103 
Q 1463 3103 1205 2759 
Q 947 2416 947 1791 
Q 947 1169 1205 825 
Q 1463 481 1925 481 
Q 2391 481 2648 825 
Q 2906 1169 2906 1791 
z
M 3481 434 
Q 3481 -459 3084 -895 
Q 2688 -1331 1869 -1331 
Q 1566 -1331 1297 -1286 
Q 1028 -1241 775 -1147 
L 775 -588 
Q 1028 -725 1275 -790 
Q 1522 -856 1778 -856 
Q 2344 -856 2625 -561 
Q 2906 -266 2906 331 
L 2906 616 
Q 2728 306 2450 153 
Q 2172 0 1784 0 
Q 1141 0 747 490 
Q 353 981 353 1791 
Q 353 2603 747 3093 
Q 1141 3584 1784 3584 
Q 2172 3584 2450 3431 
Q 2728 3278 2906 2969 
L 2906 3500 
L 3481 3500 
L 3481 434 
z
" id="DejaVuSans-67" transform="scale(0.015625)"/>
       <path id="DejaVuSans-20" transform="scale(0.015625)"/>
       <path d="M 1959 3097 
Q 1497 3097 1228 2736 
Q 959 2375 959 1747 
Q 959 1119 1226 758 
Q 1494 397 1959 397 
Q 2419 397 2687 759 
Q 2956 1122 2956 1747 
Q 2956 2369 2687 2733 
Q 2419 3097 1959 3097 
z
M 1959 3584 
Q 2709 3584 3137 3096 
Q 3566 2609 3566 1747 
Q 3566 888 3137 398 
Q 2709 -91 1959 -91 
Q 1206 -91 779 398 
Q 353 888 353 1747 
Q 353 2609 779 3096 
Q 1206 3584 1959 3584 
z
" id="DejaVuSans-6f" transform="scale(0.015625)"/>
       <path d="M 2375 4863 
L 2375 4384 
L 1825 4384 
Q 1516 4384 1395 4259 
Q 1275 4134 1275 3809 
L 1275 3500 
L 2222 3500 
L 2222 3053 
L 1275 3053 
L 1275 0 
L 697 0 
L 697 3053 
L 147 3053 
L 147 3500 
L 697 3500 
L 697 3744 
Q 697 4328 969 4595 
Q 1241 4863 1831 4863 
L 2375 4863 
z
" id="DejaVuSans-66" transform="scale(0.015625)"/>
       <path d="M 2841 2188 
Q 3044 2119 3236 1894 
Q 3428 1669 3622 1275 
L 4263 0 
L 3584 0 
L 2988 1197 
Q 2756 1666 2539 1819 
Q 2322 1972 1947 1972 
L 1259 1972 
L 1259 0 
L 628 0 
L 628 4666 
L 2053 4666 
Q 2853 4666 3247 4331 
Q 3641 3997 3641 3322 
Q 3641 2881 3436 2590 
Q 3231 2300 2841 2188 
z
M 1259 4147 
L 1259 2491 
L 2053 2491 
Q 2509 2491 2742 2702 
Q 2975 2913 2975 3322 
Q 2975 3731 2742 3939 
Q 2509 4147 2053 4147 
L 1259 4147 
z
" id="DejaVuSans-52" transform="scale(0.015625)"/>
       <path d="M 2834 3397 
L 2834 2853 
Q 2591 2978 2328 3040 
Q 2066 3103 1784 3103 
Q 1356 3103 1142 2972 
Q 928 2841 928 2578 
Q 928 2378 1081 2264 
Q 1234 2150 1697 2047 
L 1894 2003 
Q 2506 1872 2764 1633 
Q 3022 1394 3022 966 
Q 3022 478 2636 193 
Q 2250 -91 1575 -91 
Q 1294 -91 989 -36 
Q 684 19 347 128 
L 347 722 
Q 666 556 975 473 
Q 1284 391 1588 391 
Q 1994 391 2212 530 
Q 2431 669 2431 922 
Q 2431 1156 2273 1281 
Q 2116 1406 1581 1522 
L 1381 1569 
Q 847 1681 609 1914 
Q 372 2147 372 2553 
Q 372 3047 722 3315 
Q 1072 3584 1716 3584 
Q 2034 3584 2315 3537 
Q 2597 3491 2834 3397 
z
" id="DejaVuSans-73" transform="scale(0.015625)"/>
       <path d="M 603 3500 
L 1178 3500 
L 1178 0 
L 603 0 
L 603 3500 
z
M 603 4863 
L 1178 4863 
L 1178 4134 
L 603 4134 
L 603 4863 
z
" id="DejaVuSans-69" transform="scale(0.015625)"/>
       <path d="M 2906 2969 
L 2906 4863 
L 3481 4863 
L 3481 0 
L 2906 0 
L 2906 525 
Q 2725 213 2448 61 
Q 2172 -91 1784 -91 
Q 1150 -91 751 415 
Q 353 922 353 1747 
Q 353 2572 751 3078 
Q 1150 3584 1784 3584 
Q 2172 3584 2448 3432 
Q 2725 3281 2906 2969 
z
M 947 1747 
Q 947 1113 1208 752 
Q 1469 391 1925 391 
Q 2381 391 2643 752 
Q 2906 1113 2906 1747 
Q 2906 2381 2643 2742 
Q 2381 3103 1925 3103 
Q 1469 3103 1208 2742 
Q 947 2381 947 1747 
z
" id="DejaVuSans-64" transform="scale(0.015625)"/>
       <path d="M 213 4666 
L 850 4666 
L 1831 722 
L 2809 4666 
L 3519 4666 
L 4500 722 
L 5478 4666 
L 6119 4666 
L 4947 0 
L 4153 0 
L 3169 4050 
L 2175 0 
L 1381 0 
L 213 4666 
z
" id="DejaVuSans-57" transform="scale(0.015625)"/>
       <path d="M 3513 2113 
L 3513 0 
L 2938 0 
L 2938 2094 
Q 2938 2591 2744 2837 
Q 2550 3084 2163 3084 
Q 1697 3084 1428 2787 
Q 1159 2491 1159 1978 
L 1159 0 
L 581 0 
L 581 4863 
L 1159 4863 
L 1159 2956 
Q 1366 3272 1645 3428 
Q 1925 3584 2291 3584 
Q 2894 3584 3203 3211 
Q 3513 2838 3513 2113 
z
" id="DejaVuSans-68" transform="scale(0.015625)"/>
       <path d="M 2188 4044 
L 1331 1722 
L 3047 1722 
L 2188 4044 
z
M 1831 4666 
L 2547 4666 
L 4325 0 
L 3669 0 
L 3244 1197 
L 1141 1197 
L 716 0 
L 50 0 
L 1831 4666 
z
" id="DejaVuSans-41" transform="scale(0.015625)"/>
       <path d="M 1259 2228 
L 1259 519 
L 2272 519 
Q 2781 519 3026 730 
Q 3272 941 3272 1375 
Q 3272 1813 3026 2020 
Q 2781 2228 2272 2228 
L 1259 2228 
z
M 1259 4147 
L 1259 2741 
L 2194 2741 
Q 2656 2741 2882 2914 
Q 3109 3088 3109 3444 
Q 3109 3797 2882 3972 
Q 2656 4147 2194 4147 
L 1259 4147 
z
M 628 4666 
L 2241 4666 
Q 2963 4666 3353 4366 
Q 3744 4066 3744 3513 
Q 3744 3084 3544 2831 
Q 3344 2578 2956 2516 
Q 3422 2416 3680 2098 
Q 3938 1781 3938 1306 
Q 3938 681 3513 340 
Q 3088 0 2303 0 
L 628 0 
L 628 4666 
z
" id="DejaVuSans-42" transform="scale(0.015625)"/>
       <path d="M 628 4666 
L 1259 4666 
L 1259 0 
L 628 0 
L 628 4666 
z
" id="DejaVuSans-49" transform="scale(0.015625)"/>
       <path d="M 2522 4238 
Q 1834 4238 1429 3725 
Q 1025 3213 1025 2328 
Q 1025 1447 1429 934 
Q 1834 422 2522 422 
Q 3209 422 3611 934 
Q 4013 1447 4013 2328 
Q 4013 3213 3611 3725 
Q 3209 4238 2522 4238 
z
M 2522 4750 
Q 3503 4750 4090 4092 
Q 4678 3434 4678 2328 
Q 4678 1225 4090 567 
Q 3503 -91 2522 -91 
Q 1538 -91 948 565 
Q 359 1222 359 2328 
Q 359 3434 948 4092 
Q 1538 4750 2522 4750 
z
" id="DejaVuSans-4f" transform="scale(0.015625)"/>
       <path d="M 4122 4306 
L 4122 3641 
Q 3803 3938 3442 4084 
Q 3081 4231 2675 4231 
Q 1875 4231 1450 3742 
Q 1025 3253 1025 2328 
Q 1025 1406 1450 917 
Q 1875 428 2675 428 
Q 3081 428 3442 575 
Q 3803 722 4122 1019 
L 4122 359 
Q 3791 134 3420 21 
Q 3050 -91 2638 -91 
Q 1578 -91 968 557 
Q 359 1206 359 2328 
Q 359 3453 968 4101 
Q 1578 4750 2638 4750 
Q 3056 4750 3426 4639 
Q 3797 4528 4122 4306 
z
" id="DejaVuSans-43" transform="scale(0.015625)"/>
      </defs>
      <use xlink:href="#DejaVuSans-50"/>
      <use x="56.677734" xlink:href="#DejaVuSans-65"/>
      <use x="118.201172" xlink:href="#DejaVuSans-72"/>
      <use x="157.064453" xlink:href="#DejaVuSans-63"/>
      <use x="212.044922" xlink:href="#DejaVuSans-65"/>
      <use x="273.568359" xlink:href="#DejaVuSans-6e"/>
      <use x="336.947266" xlink:href="#DejaVuSans-74"/>
      <use x="376.15625" xlink:href="#DejaVuSans-61"/>
      <use x="437.435547" xlink:href="#DejaVuSans-67"/>
      <use x="500.912109" xlink:href="#DejaVuSans-65"/>
      <use x="562.435547" xlink:href="#DejaVuSans-20"/>
      <use x="594.222656" xlink:href="#DejaVuSans-6f"/>
      <use x="655.404297" xlink:href="#DejaVuSans-66"/>
      <use x="690.609375" xlink:href="#DejaVuSans-20"/>
      <use x="722.396484" xlink:href="#DejaVuSans-52"/>
      <use x="787.378906" xlink:href="#DejaVuSans-65"/>
      <use x="848.902344" xlink:href="#DejaVuSans-73"/>
      <use x="901.001953" xlink:href="#DejaVuSans-69"/>
      <use x="928.785156" xlink:href="#DejaVuSans-64"/>
      <use x="992.261719" xlink:href="#DejaVuSans-65"/>
      <use x="1053.785156" xlink:href="#DejaVuSans-6e"/>
      <use x="1117.164062" xlink:href="#DejaVuSans-74"/>
      <use x="1156.373047" xlink:href="#DejaVuSans-73"/>
      <use x="1208.472656" xlink:href="#DejaVuSans-20"/>
      <use x="1240.259766" xlink:href="#DejaVuSans-57"/>
      <use x="1339.136719" xlink:href="#DejaVuSans-68"/>
      <use x="1402.515625" xlink:href="#DejaVuSans-6f"/>
      <use x="1463.697266" xlink:href="#DejaVuSans-20"/>
      <use x="1495.484375" xlink:href="#DejaVuSans-41"/>
      <use x="1563.892578" xlink:href="#DejaVuSans-72"/>
      <use x="1602.755859" xlink:href="#DejaVuSans-65"/>
      <use x="1664.279297" xlink:href="#DejaVuSans-20"/>
      <use x="1696.066406" xlink:href="#DejaVuSans-42"/>
      <use x="1764.669922" xlink:href="#DejaVuSans-49"/>
      <use x="1794.162109" xlink:href="#DejaVuSans-50"/>
      <use x="1854.464844" xlink:href="#DejaVuSans-4f"/>
      <use x="1933.175781" xlink:href="#DejaVuSans-43"/>
     </g>
    </g>
   </g>
   <g id="matplotlib.axis_2">
    <g id="ytick_1">
     <g id="line2d_11">
      <path clip-path="url(#pbd4b9991cc)" d="M 47.72 349.916492 
L 421.2 349.916492 
" style="fill:none;stroke:#b0b0b0;stroke-dasharray:2.96,1.28;stroke-dashoffset:0;stroke-opacity:0.5;stroke-width:0.8;"/>
     </g>
     <g id="line2d_12">
      <defs>
       <path d="M 0 0 
L -3.5 0 
" id="md2e23b5612" style="stroke:#000000;stroke-width:0.8;"/>
      </defs>
      <g>
       <use style="stroke:#000000;stroke-width:0.8;" x="47.72" xlink:href="#md2e23b5612" y="349.916492"/>
      </g>
     </g>
     <g id="text_7">
      <!-- 0.1 -->
      <g transform="translate(24.816875 353.715711)scale(0.1 -0.1)">
       <use xlink:href="#DejaVuSans-30"/>
       <use x="63.623047" xlink:href="#DejaVuSans-2e"/>
       <use x="95.410156" xlink:href="#DejaVuSans-31"/>
      </g>
     </g>
    </g>
    <g id="ytick_2">
     <g id="line2d_13">
      <path clip-path="url(#pbd4b9991cc)" d="M 47.72 299.399107 
L 421.2 299.399107 
" style="fill:none;stroke:#b0b0b0;stroke-dasharray:2.96,1.28;stroke-dashoffset:0;stroke-opacity:0.5;stroke-width:0.8;"/>
     </g>
     <g id="line2d_14">
      <g>
       <use style="stroke:#000000;stroke-width:0.8;" x="47.72" xlink:href="#md2e23b5612" y="299.399107"/>
      </g>
     </g>
     <g id="text_8">
      <!-- 0.2 -->
      <g transform="translate(24.816875 303.198325)scale(0.1 -0.1)">
       <use xlink:href="#DejaVuSans-30"/>
       <use x="63.623047" xlink:href="#DejaVuSans-2e"/>
       <use x="95.410156" xlink:href="#DejaVuSans-32"/>
      </g>
     </g>
    </g>
    <g id="ytick_3">
     <g id="line2d_15">
      <path clip-path="url(#pbd4b9991cc)" d="M 47.72 248.881721 
L 421.2 248.881721 
" style="fill:none;stroke:#b0b0b0;stroke-dasharray:2.96,1.28;stroke-dashoffset:0;stroke-opacity:0.5;stroke-width:0.8;"/>
     </g>
     <g id="line2d_16">
      <g>
       <use style="stroke:#000000;stroke-width:0.8;" x="47.72" xlink:href="#md2e23b5612" y="248.881721"/>
      </g>
     </g>
     <g id="text_9">
      <!-- 0.3 -->
      <g transform="translate(24.816875 252.68094)scale(0.1 -0.1)">
       <defs>
        <path d="M 2597 2516 
Q 3050 2419 3304 2112 
Q 3559 1806 3559 1356 
Q 3559 666 3084 287 
Q 2609 -91 1734 -91 
Q 1441 -91 1130 -33 
Q 819 25 488 141 
L 488 750 
Q 750 597 1062 519 
Q 1375 441 1716 441 
Q 2309 441 2620 675 
Q 2931 909 2931 1356 
Q 2931 1769 2642 2001 
Q 2353 2234 1838 2234 
L 1294 2234 
L 1294 2753 
L 1863 2753 
Q 2328 2753 2575 2939 
Q 2822 3125 2822 3475 
Q 2822 3834 2567 4026 
Q 2313 4219 1838 4219 
Q 1578 4219 1281 4162 
Q 984 4106 628 3988 
L 628 4550 
Q 988 4650 1302 4700 
Q 1616 4750 1894 4750 
Q 2613 4750 3031 4423 
Q 3450 4097 3450 3541 
Q 3450 3153 3228 2886 
Q 3006 2619 2597 2516 
z
" id="DejaVuSans-33" transform="scale(0.015625)"/>
       </defs>
       <use xlink:href="#DejaVuSans-30"/>
       <use x="63.623047" xlink:href="#DejaVuSans-2e"/>
       <use x="95.410156" xlink:href="#DejaVuSans-33"/>
      </g>
     </g>
    </g>
    <g id="ytick_4">
     <g id="line2d_17">
      <path clip-path="url(#pbd4b9991cc)" d="M 47.72 198.364336 
L 421.2 198.364336 
" style="fill:none;stroke:#b0b0b0;stroke-dasharray:2.96,1.28;stroke-dashoffset:0;stroke-opacity:0.5;stroke-width:0.8;"/>
     </g>
     <g id="line2d_18">
      <g>
       <use style="stroke:#000000;stroke-width:0.8;" x="47.72" xlink:href="#md2e23b5612" y="198.364336"/>
      </g>
     </g>
     <g id="text_10">
      <!-- 0.4 -->
      <g transform="translate(24.816875 202.163555)scale(0.1 -0.1)">
       <use xlink:href="#DejaVuSans-30"/>
       <use x="63.623047" xlink:href="#DejaVuSans-2e"/>
       <use x="95.410156" xlink:href="#DejaVuSans-34"/>
      </g>
     </g>
    </g>
    <g id="ytick_5">
     <g id="line2d_19">
      <path clip-path="url(#pbd4b9991cc)" d="M 47.72 147.846951 
L 421.2 147.846951 
" style="fill:none;stroke:#b0b0b0;stroke-dasharray:2.96,1.28;stroke-dashoffset:0;stroke-opacity:0.5;stroke-width:0.8;"/>
     </g>
     <g id="line2d_20">
      <g>
       <use style="stroke:#000000;stroke-width:0.8;" x="47.72" xlink:href="#md2e23b5612" y="147.846951"/>
      </g>
     </g>
     <g id="text_11">
      <!-- 0.5 -->
      <g transform="translate(24.816875 151.646169)scale(0.1 -0.1)">
       <defs>
        <path d="M 691 4666 
L 3169 4666 
L 3169 4134 
L 1269 4134 
L 1269 2991 
Q 1406 3038 1543 3061 
Q 1681 3084 1819 3084 
Q 2600 3084 3056 2656 
Q 3513 2228 3513 1497 
Q 3513 744 3044 326 
Q 2575 -91 1722 -91 
Q 1428 -91 1123 -41 
Q 819 9 494 109 
L 494 744 
Q 775 591 1075 516 
Q 1375 441 1709 441 
Q 2250 441 2565 725 
Q 2881 1009 2881 1497 
Q 2881 1984 2565 2268 
Q 2250 2553 1709 2553 
Q 1456 2553 1204 2497 
Q 953 2441 691 2322 
L 691 4666 
z
" id="DejaVuSans-35" transform="scale(0.015625)"/>
       </defs>
       <use xlink:href="#DejaVuSans-30"/>
       <use x="63.623047" xlink:href="#DejaVuSans-2e"/>
       <use x="95.410156" xlink:href="#DejaVuSans-35"/>
      </g>
     </g>
    </g>
    <g id="ytick_6">
     <g id="line2d_21">
      <path clip-path="url(#pbd4b9991cc)" d="M 47.72 97.329565 
L 421.2 97.329565 
" style="fill:none;stroke:#b0b0b0;stroke-dasharray:2.96,1.28;stroke-dashoffset:0;stroke-opacity:0.5;stroke-width:0.8;"/>
     </g>
     <g id="line2d_22">
      <g>
       <use style="stroke:#000000;stroke-width:0.8;" x="47.72" xlink:href="#md2e23b5612" y="97.329565"/>
      </g>
     </g>
     <g id="text_12">
      <!-- 0.6 -->
      <g transform="translate(24.816875 101.128784)scale(0.1 -0.1)">
       <use xlink:href="#DejaVuSans-30"/>
       <use x="63.623047" xlink:href="#DejaVuSans-2e"/>
       <use x="95.410156" xlink:href="#DejaVuSans-36"/>
      </g>
     </g>
    </g>
    <g id="ytick_7">
     <g id="line2d_23">
      <path clip-path="url(#pbd4b9991cc)" d="M 47.72 46.81218 
L 421.2 46.81218 
" style="fill:none;stroke:#b0b0b0;stroke-dasharray:2.96,1.28;stroke-dashoffset:0;stroke-opacity:0.5;stroke-width:0.8;"/>
     </g>
     <g id="line2d_24">
      <g>
       <use style="stroke:#000000;stroke-width:0.8;" x="47.72" xlink:href="#md2e23b5612" y="46.81218"/>
      </g>
     </g>
     <g id="text_13">
      <!-- 0.7 -->
      <g transform="translate(24.816875 50.611399)scale(0.1 -0.1)">
       <defs>
        <path d="M 525 4666 
L 3525 4666 
L 3525 4397 
L 1831 0 
L 1172 0 
L 2766 4134 
L 525 4134 
L 525 4666 
z
" id="DejaVuSans-37" transform="scale(0.015625)"/>
       </defs>
       <use xlink:href="#DejaVuSans-30"/>
       <use x="63.623047" xlink:href="#DejaVuSans-2e"/>
       <use x="95.410156" xlink:href="#DejaVuSans-37"/>
      </g>
     </g>
    </g>
    <g id="text_14">
     <!-- Percentage of Population Below 150-pct FPL -->
     <g transform="translate(18.737188 318.56625)rotate(-90)scale(0.1 -0.1)">
      <defs>
       <path d="M 1159 525 
L 1159 -1331 
L 581 -1331 
L 581 3500 
L 1159 3500 
L 1159 2969 
Q 1341 3281 1617 3432 
Q 1894 3584 2278 3584 
Q 2916 3584 3314 3078 
Q 3713 2572 3713 1747 
Q 3713 922 3314 415 
Q 2916 -91 2278 -91 
Q 1894 -91 1617 61 
Q 1341 213 1159 525 
z
M 3116 1747 
Q 3116 2381 2855 2742 
Q 2594 3103 2138 3103 
Q 1681 3103 1420 2742 
Q 1159 2381 1159 1747 
Q 1159 1113 1420 752 
Q 1681 391 2138 391 
Q 2594 391 2855 752 
Q 3116 1113 3116 1747 
z
" id="DejaVuSans-70" transform="scale(0.015625)"/>
       <path d="M 544 1381 
L 544 3500 
L 1119 3500 
L 1119 1403 
Q 1119 906 1312 657 
Q 1506 409 1894 409 
Q 2359 409 2629 706 
Q 2900 1003 2900 1516 
L 2900 3500 
L 3475 3500 
L 3475 0 
L 2900 0 
L 2900 538 
Q 2691 219 2414 64 
Q 2138 -91 1772 -91 
Q 1169 -91 856 284 
Q 544 659 544 1381 
z
M 1991 3584 
L 1991 3584 
z
" id="DejaVuSans-75" transform="scale(0.015625)"/>
       <path d="M 603 4863 
L 1178 4863 
L 1178 0 
L 603 0 
L 603 4863 
z
" id="DejaVuSans-6c" transform="scale(0.015625)"/>
       <path d="M 269 3500 
L 844 3500 
L 1563 769 
L 2278 3500 
L 2956 3500 
L 3675 769 
L 4391 3500 
L 4966 3500 
L 4050 0 
L 3372 0 
L 2619 2869 
L 1863 0 
L 1184 0 
L 269 3500 
z
" id="DejaVuSans-77" transform="scale(0.015625)"/>
       <path d="M 313 2009 
L 1997 2009 
L 1997 1497 
L 313 1497 
L 313 2009 
z
" id="DejaVuSans-2d" transform="scale(0.015625)"/>
       <path d="M 628 4666 
L 3309 4666 
L 3309 4134 
L 1259 4134 
L 1259 2759 
L 3109 2759 
L 3109 2228 
L 1259 2228 
L 1259 0 
L 628 0 
L 628 4666 
z
" id="DejaVuSans-46" transform="scale(0.015625)"/>
       <path d="M 628 4666 
L 1259 4666 
L 1259 531 
L 3531 531 
L 3531 0 
L 628 0 
L 628 4666 
z
" id="DejaVuSans-4c" transform="scale(0.015625)"/>
      </defs>
      <use xlink:href="#DejaVuSans-50"/>
      <use x="56.677734" xlink:href="#DejaVuSans-65"/>
      <use x="118.201172" xlink:href="#DejaVuSans-72"/>
      <use x="157.064453" xlink:href="#DejaVuSans-63"/>
      <use x="212.044922" xlink:href="#DejaVuSans-65"/>
      <use x="273.568359" xlink:href="#DejaVuSans-6e"/>
      <use x="336.947266" xlink:href="#DejaVuSans-74"/>
      <use x="376.15625" xlink:href="#DejaVuSans-61"/>
      <use x="437.435547" xlink:href="#DejaVuSans-67"/>
      <use x="500.912109" xlink:href="#DejaVuSans-65"/>
      <use x="562.435547" xlink:href="#DejaVuSans-20"/>
      <use x="594.222656" xlink:href="#DejaVuSans-6f"/>
      <use x="655.404297" xlink:href="#DejaVuSans-66"/>
      <use x="690.609375" xlink:href="#DejaVuSans-20"/>
      <use x="722.396484" xlink:href="#DejaVuSans-50"/>
      <use x="779.074219" xlink:href="#DejaVuSans-6f"/>
      <use x="840.255859" xlink:href="#DejaVuSans-70"/>
      <use x="903.732422" xlink:href="#DejaVuSans-75"/>
      <use x="967.111328" xlink:href="#DejaVuSans-6c"/>
      <use x="994.894531" xlink:href="#DejaVuSans-61"/>
      <use x="1056.173828" xlink:href="#DejaVuSans-74"/>
      <use x="1095.382812" xlink:href="#DejaVuSans-69"/>
      <use x="1123.166016" xlink:href="#DejaVuSans-6f"/>
      <use x="1184.347656" xlink:href="#DejaVuSans-6e"/>
      <use x="1247.726562" xlink:href="#DejaVuSans-20"/>
      <use x="1279.513672" xlink:href="#DejaVuSans-42"/>
      <use x="1348.117188" xlink:href="#DejaVuSans-65"/>
      <use x="1409.640625" xlink:href="#DejaVuSans-6c"/>
      <use x="1437.423828" xlink:href="#DejaVuSans-6f"/>
      <use x="1498.605469" xlink:href="#DejaVuSans-77"/>
      <use x="1580.392578" xlink:href="#DejaVuSans-20"/>
      <use x="1612.179688" xlink:href="#DejaVuSans-31"/>
      <use x="1675.802734" xlink:href="#DejaVuSans-35"/>
      <use x="1739.425781" xlink:href="#DejaVuSans-30"/>
      <use x="1803.048828" xlink:href="#DejaVuSans-2d"/>
      <use x="1839.132812" xlink:href="#DejaVuSans-70"/>
      <use x="1902.609375" xlink:href="#DejaVuSans-63"/>
      <use x="1957.589844" xlink:href="#DejaVuSans-74"/>
      <use x="1996.798828" xlink:href="#DejaVuSans-20"/>
      <use x="2028.585938" xlink:href="#DejaVuSans-46"/>
      <use x="2086.105469" xlink:href="#DejaVuSans-50"/>
      <use x="2146.408203" xlink:href="#DejaVuSans-4c"/>
     </g>
    </g>
   </g>
   <g id="line2d_25">
    <path clip-path="url(#pbd4b9991cc)" d="M 64.696364 351.737371 
L 68.125932 349.810729 
L 71.5555 347.884087 
L 74.985069 345.957445 
L 78.414637 344.030803 
L 81.844206 342.104161 
L 85.273774 340.177519 
L 88.703343 338.250877 
L 92.132911 336.324235 
L 95.562479 334.397593 
L 98.992048 332.470951 
L 102.421616 330.544309 
L 105.851185 328.617667 
L 109.280753 326.691025 
L 112.710321 324.764383 
L 116.13989 322.83774 
L 119.569458 320.911098 
L 122.999027 318.984456 
L 126.428595 317.057814 
L 129.858163 315.131172 
L 133.287732 313.20453 
L 136.7173 311.277888 
L 140.146869 309.351246 
L 143.576437 307.424604 
L 147.006006 305.497962 
L 150.435574 303.57132 
L 153.865142 301.644678 
L 157.294711 299.718036 
L 160.724279 297.791394 
L 164.153848 295.864752 
L 167.583416 293.93811 
L 171.012984 292.011468 
L 174.442553 290.084826 
L 177.872121 288.158184 
L 181.30169 286.231542 
L 184.731258 284.3049 
L 188.160826 282.378257 
L 191.590395 280.451615 
L 195.019963 278.524973 
L 198.449532 276.598331 
L 201.8791 274.671689 
L 205.308669 272.745047 
L 208.738237 270.818405 
L 212.167805 268.891763 
L 215.597374 266.965121 
L 219.026942 265.038479 
L 222.456511 263.111837 
L 225.886079 261.185195 
L 229.315647 259.258553 
L 232.745216 257.331911 
L 236.174784 255.405269 
L 239.604353 253.478627 
L 243.033921 251.551985 
L 246.463489 249.625343 
L 249.893058 247.698701 
L 253.322626 245.772059 
L 256.752195 243.845417 
L 260.181763 241.918774 
L 263.611331 239.992132 
L 267.0409 238.06549 
L 270.470468 236.138848 
L 273.900037 234.212206 
L 277.329605 232.285564 
L 280.759174 230.358922 
L 284.188742 228.43228 
L 287.61831 226.505638 
L 291.047879 224.578996 
L 294.477447 222.652354 
L 297.907016 220.725712 
L 301.336584 218.79907 
L 304.766152 216.872428 
L 308.195721 214.945786 
L 311.625289 213.019144 
L 315.054858 211.092502 
L 318.484426 209.16586 
L 321.913994 207.239218 
L 325.343563 205.312576 
L 328.773131 203.385934 
L 332.2027 201.459291 
L 335.632268 199.532649 
L 339.061837 197.606007 
L 342.491405 195.679365 
L 345.920973 193.752723 
L 349.350542 191.826081 
L 352.78011 189.899439 
L 356.209679 187.972797 
L 359.639247 186.046155 
L 363.068815 184.119513 
L 366.498384 182.192871 
L 369.927952 180.266229 
L 373.357521 178.339587 
L 376.787089 176.412945 
L 380.216657 174.486303 
L 383.646226 172.559661 
L 387.075794 170.633019 
L 390.505363 168.706377 
L 393.934931 166.779735 
L 397.3645 164.853093 
L 400.794068 162.926451 
L 404.223636 160.999809 
" style="fill:none;stroke:#1f77b4;stroke-linecap:square;stroke-width:2.25;"/>
   </g>
   <g id="patch_3">
    <path d="M 47.72 390.04 
L 47.72 26.88 
" style="fill:none;stroke:#000000;stroke-linecap:square;stroke-linejoin:miter;stroke-width:0.8;"/>
   </g>
   <g id="patch_4">
    <path d="M 421.2 390.04 
L 421.2 26.88 
" style="fill:none;stroke:#000000;stroke-linecap:square;stroke-linejoin:miter;stroke-width:0.8;"/>
   </g>
   <g id="patch_5">
    <path d="M 47.72 390.04 
L 421.2 390.04 
" style="fill:none;stroke:#000000;stroke-linecap:square;stroke-linejoin:miter;stroke-width:0.8;"/>
   </g>
   <g id="patch_6">
    <path d="M 47.72 26.88 
L 421.2 26.88 
" style="fill:none;stroke:#000000;stroke-linecap:square;stroke-linejoin:miter;stroke-width:0.8;"/>
   </g>
   <g id="text_15">
    <!-- PCC: 0.77 -->
    <g transform="translate(66.394 45.038)scale(0.1 -0.1)">
     <defs>
      <path d="M 750 794 
L 1409 794 
L 1409 0 
L 750 0 
L 750 794 
z
M 750 3309 
L 1409 3309 
L 1409 2516 
L 750 2516 
L 750 3309 
z
" id="DejaVuSans-3a" transform="scale(0.015625)"/>
     </defs>
     <use xlink:href="#DejaVuSans-50"/>
     <use x="60.302734" xlink:href="#DejaVuSans-43"/>
     <use x="130.126953" xlink:href="#DejaVuSans-43"/>
     <use x="199.951172" xlink:href="#DejaVuSans-3a"/>
     <use x="233.642578" xlink:href="#DejaVuSans-20"/>
     <use x="265.429688" xlink:href="#DejaVuSans-30"/>
     <use x="329.052734" xlink:href="#DejaVuSans-2e"/>
     <use x="360.839844" xlink:href="#DejaVuSans-37"/>
     <use x="424.462891" xlink:href="#DejaVuSans-37"/>
    </g>
   </g>
   <g id="text_16">
    <!-- BIPOC Residents and Poverty, St. Louis City Census Tracts -->
    <g transform="translate(60.972812 20.88)scale(0.12 -0.12)">
     <defs>
      <path d="M 191 3500 
L 800 3500 
L 1894 563 
L 2988 3500 
L 3597 3500 
L 2284 0 
L 1503 0 
L 191 3500 
z
" id="DejaVuSans-76" transform="scale(0.015625)"/>
      <path d="M 2059 -325 
Q 1816 -950 1584 -1140 
Q 1353 -1331 966 -1331 
L 506 -1331 
L 506 -850 
L 844 -850 
Q 1081 -850 1212 -737 
Q 1344 -625 1503 -206 
L 1606 56 
L 191 3500 
L 800 3500 
L 1894 763 
L 2988 3500 
L 3597 3500 
L 2059 -325 
z
" id="DejaVuSans-79" transform="scale(0.015625)"/>
      <path d="M 750 794 
L 1409 794 
L 1409 256 
L 897 -744 
L 494 -744 
L 750 256 
L 750 794 
z
" id="DejaVuSans-2c" transform="scale(0.015625)"/>
      <path d="M 3425 4513 
L 3425 3897 
Q 3066 4069 2747 4153 
Q 2428 4238 2131 4238 
Q 1616 4238 1336 4038 
Q 1056 3838 1056 3469 
Q 1056 3159 1242 3001 
Q 1428 2844 1947 2747 
L 2328 2669 
Q 3034 2534 3370 2195 
Q 3706 1856 3706 1288 
Q 3706 609 3251 259 
Q 2797 -91 1919 -91 
Q 1588 -91 1214 -16 
Q 841 59 441 206 
L 441 856 
Q 825 641 1194 531 
Q 1563 422 1919 422 
Q 2459 422 2753 634 
Q 3047 847 3047 1241 
Q 3047 1584 2836 1778 
Q 2625 1972 2144 2069 
L 1759 2144 
Q 1053 2284 737 2584 
Q 422 2884 422 3419 
Q 422 4038 858 4394 
Q 1294 4750 2059 4750 
Q 2388 4750 2728 4690 
Q 3069 4631 3425 4513 
z
" id="DejaVuSans-53" transform="scale(0.015625)"/>
      <path d="M -19 4666 
L 3928 4666 
L 3928 4134 
L 2272 4134 
L 2272 0 
L 1638 0 
L 1638 4134 
L -19 4134 
L -19 4666 
z
" id="DejaVuSans-54" transform="scale(0.015625)"/>
     </defs>
     <use xlink:href="#DejaVuSans-42"/>
     <use x="68.603516" xlink:href="#DejaVuSans-49"/>
     <use x="98.095703" xlink:href="#DejaVuSans-50"/>
     <use x="158.398438" xlink:href="#DejaVuSans-4f"/>
     <use x="237.109375" xlink:href="#DejaVuSans-43"/>
     <use x="306.933594" xlink:href="#DejaVuSans-20"/>
     <use x="338.720703" xlink:href="#DejaVuSans-52"/>
     <use x="403.703125" xlink:href="#DejaVuSans-65"/>
     <use x="465.226562" xlink:href="#DejaVuSans-73"/>
     <use x="517.326172" xlink:href="#DejaVuSans-69"/>
     <use x="545.109375" xlink:href="#DejaVuSans-64"/>
     <use x="608.585938" xlink:href="#DejaVuSans-65"/>
     <use x="670.109375" xlink:href="#DejaVuSans-6e"/>
     <use x="733.488281" xlink:href="#DejaVuSans-74"/>
     <use x="772.697266" xlink:href="#DejaVuSans-73"/>
     <use x="824.796875" xlink:href="#DejaVuSans-20"/>
     <use x="856.583984" xlink:href="#DejaVuSans-61"/>
     <use x="917.863281" xlink:href="#DejaVuSans-6e"/>
     <use x="981.242188" xlink:href="#DejaVuSans-64"/>
     <use x="1044.71875" xlink:href="#DejaVuSans-20"/>
     <use x="1076.505859" xlink:href="#DejaVuSans-50"/>
     <use x="1133.183594" xlink:href="#DejaVuSans-6f"/>
     <use x="1194.365234" xlink:href="#DejaVuSans-76"/>
     <use x="1253.544922" xlink:href="#DejaVuSans-65"/>
     <use x="1315.068359" xlink:href="#DejaVuSans-72"/>
     <use x="1356.181641" xlink:href="#DejaVuSans-74"/>
     <use x="1395.390625" xlink:href="#DejaVuSans-79"/>
     <use x="1454.570312" xlink:href="#DejaVuSans-2c"/>
     <use x="1486.357422" xlink:href="#DejaVuSans-20"/>
     <use x="1518.144531" xlink:href="#DejaVuSans-53"/>
     <use x="1581.621094" xlink:href="#DejaVuSans-74"/>
     <use x="1620.830078" xlink:href="#DejaVuSans-2e"/>
     <use x="1652.617188" xlink:href="#DejaVuSans-20"/>
     <use x="1684.404297" xlink:href="#DejaVuSans-4c"/>
     <use x="1738.367188" xlink:href="#DejaVuSans-6f"/>
     <use x="1799.548828" xlink:href="#DejaVuSans-75"/>
     <use x="1862.927734" xlink:href="#DejaVuSans-69"/>
     <use x="1890.710938" xlink:href="#DejaVuSans-73"/>
     <use x="1942.810547" xlink:href="#DejaVuSans-20"/>
     <use x="1974.597656" xlink:href="#DejaVuSans-43"/>
     <use x="2044.421875" xlink:href="#DejaVuSans-69"/>
     <use x="2072.205078" xlink:href="#DejaVuSans-74"/>
     <use x="2111.414062" xlink:href="#DejaVuSans-79"/>
     <use x="2170.59375" xlink:href="#DejaVuSans-20"/>
     <use x="2202.380859" xlink:href="#DejaVuSans-43"/>
     <use x="2272.205078" xlink:href="#DejaVuSans-65"/>
     <use x="2333.728516" xlink:href="#DejaVuSans-6e"/>
     <use x="2397.107422" xlink:href="#DejaVuSans-73"/>
     <use x="2449.207031" xlink:href="#DejaVuSans-75"/>
     <use x="2512.585938" xlink:href="#DejaVuSans-73"/>
     <use x="2564.685547" xlink:href="#DejaVuSans-20"/>
     <use x="2596.472656" xlink:href="#DejaVuSans-54"/>
     <use x="2642.806641" xlink:href="#DejaVuSans-72"/>
     <use x="2683.919922" xlink:href="#DejaVuSans-61"/>
     <use x="2745.199219" xlink:href="#DejaVuSans-63"/>
     <use x="2800.179688" xlink:href="#DejaVuSans-74"/>
     <use x="2839.388672" xlink:href="#DejaVuSans-73"/>
    </g>
   </g>
  </g>
 </g>
 <defs>
  <clipPath id="pbd4b9991cc">
   <rect height="363.16" width="373.48" x="47.72" y="26.88"/>
  </clipPath>
 </defs>
</svg>
