<?xml version="1.0" encoding="utf-8" standalone="no"?>
<!DOCTYPE svg PUBLIC "-//W3C//DTD SVG 1.1//EN"
  "http://www.w3.org/Graphics/SVG/1.1/DTD/svg11.dtd">
<svg height="432pt" version="1.1" viewBox="0 0 432 432" width="432pt" xmlns="http://www.w3.org/2000/svg" xmlns:xlink="http://www.w3.org/1999/xlink">
 <metadata>
  <rdf:RDF xmlns:cc="http://creativecommons.org/ns#" xmlns:dc="http://purl.org/dc/elements/1.1/" xmlns:rdf="http://www.w3.org/1999/02/22-rdf-syntax-ns#">
   <cc:Work>
    <dc:type rdf:resource="http://purl.org/dc/dcmitype/StillImage"/>
    <dc:date>2025-03-30T22:45:51.899115</dc:date>
    <dc:format>image/svg+xml</dc:format>
    <dc:creator>
     <cc:Agent>
      <dc:title>Matplotlib v3.4.2, https://matplotlib.org/</dc:title>
     </cc:Agent>
    </dc:creator>
   </cc:Work>
  </rdf:RDF>
 </metadata>
 <defs>
  <style type="text/css">*{stroke-linecap:butt;stroke-linejoin:round;}</style>
 </defs>
 <g id="figure_1">
  <g id="patch_1">
   <path d="M 0 432 
L 432 432 
L 432 0 
L 0 0 
z
" style="fill:#ffffff;"/>
  </g>
  <g id="axes_1">
   <g id="patch_2">
    <path d="M 47.72 390.04 
L 421.2 390.04 
L 421.2 26.88 
L 47.72 26.88 
z
" style="fill:#ffffff;"/>
   </g>
   <g id="PathCollection_1">
    <defs>
     <path d="M 0 3 
C 0.795609 3 1.55874 2.683901 2.12132 2.12132 
C 2.683901 1.55874 3 0.795609 3 0 
C 3 -0.795609 2.683901 -1.55874 2.12132 -2.12132 
C 1.55874 -2.683901 0.795609 -3 0 -3 
C -0.795609 -3 -1.55874 -2.683901 -2.12132 -2.12132 
C -2.683901 -1.55874 -3 -0.795609 -3 0 
C -3 0.795609 -2.683901 1.55874 -2.12132 2.12132 
C -1.55874 2.683901 -0.795609 3 0 3 
z
" id="m38bd3b19ee" style="stroke:#1f77b4;stroke-opacity:0.5;"/>
    </defs>
    <g clip-path="url(#p540b73f40a)">
     <use style="fill:#1f77b4;fill-opacity:0.5;stroke:#1f77b4;stroke-opacity:0.5;" x="78.468883" xlink:href="#m38bd3b19ee" y="243.323464"/>
     <use style="fill:#1f77b4;fill-opacity:0.5;stroke:#1f77b4;stroke-opacity:0.5;" x="79.314176" xlink:href="#m38bd3b19ee" y="371.510086"/>
     <use style="fill:#1f77b4;fill-opacity:0.5;stroke:#1f77b4;stroke-opacity:0.5;" x="97.451922" xlink:href="#m38bd3b19ee" y="332.687525"/>
     <use style="fill:#1f77b4;fill-opacity:0.5;stroke:#1f77b4;stroke-opacity:0.5;" x="127.360516" xlink:href="#m38bd3b19ee" y="259.677267"/>
     <use style="fill:#1f77b4;fill-opacity:0.5;stroke:#1f77b4;stroke-opacity:0.5;" x="178.635629" xlink:href="#m38bd3b19ee" y="172.521736"/>
     <use style="fill:#1f77b4;fill-opacity:0.5;stroke:#1f77b4;stroke-opacity:0.5;" x="178.375152" xlink:href="#m38bd3b19ee" y="200.676638"/>
     <use style="fill:#1f77b4;fill-opacity:0.5;stroke:#1f77b4;stroke-opacity:0.5;" x="120.698427" xlink:href="#m38bd3b19ee" y="318.893367"/>
     <use style="fill:#1f77b4;fill-opacity:0.5;stroke:#1f77b4;stroke-opacity:0.5;" x="93.471441" xlink:href="#m38bd3b19ee" y="372.273203"/>
     <use style="fill:#1f77b4;fill-opacity:0.5;stroke:#1f77b4;stroke-opacity:0.5;" x="98.338005" xlink:href="#m38bd3b19ee" y="301.484326"/>
     <use style="fill:#1f77b4;fill-opacity:0.5;stroke:#1f77b4;stroke-opacity:0.5;" x="116.799142" xlink:href="#m38bd3b19ee" y="280.656313"/>
     <use style="fill:#1f77b4;fill-opacity:0.5;stroke:#1f77b4;stroke-opacity:0.5;" x="101.625955" xlink:href="#m38bd3b19ee" y="300.659416"/>
     <use style="fill:#1f77b4;fill-opacity:0.5;stroke:#1f77b4;stroke-opacity:0.5;" x="124.785622" xlink:href="#m38bd3b19ee" y="320.842684"/>
     <use style="fill:#1f77b4;fill-opacity:0.5;stroke:#1f77b4;stroke-opacity:0.5;" x="81.947985" xlink:href="#m38bd3b19ee" y="364.777748"/>
     <use style="fill:#1f77b4;fill-opacity:0.5;stroke:#1f77b4;stroke-opacity:0.5;" x="64.696364" xlink:href="#m38bd3b19ee" y="365.517449"/>
     <use style="fill:#1f77b4;fill-opacity:0.5;stroke:#1f77b4;stroke-opacity:0.5;" x="84.744792" xlink:href="#m38bd3b19ee" y="358.336056"/>
     <use style="fill:#1f77b4;fill-opacity:0.5;stroke:#1f77b4;stroke-opacity:0.5;" x="92.902323" xlink:href="#m38bd3b19ee" y="337.3039"/>
     <use style="fill:#1f77b4;fill-opacity:0.5;stroke:#1f77b4;stroke-opacity:0.5;" x="84.007082" xlink:href="#m38bd3b19ee" y="319.898915"/>
     <use style="fill:#1f77b4;fill-opacity:0.5;stroke:#1f77b4;stroke-opacity:0.5;" x="78.839572" xlink:href="#m38bd3b19ee" y="361.043669"/>
     <use style="fill:#1f77b4;fill-opacity:0.5;stroke:#1f77b4;stroke-opacity:0.5;" x="146.183253" xlink:href="#m38bd3b19ee" y="315.906756"/>
     <use style="fill:#1f77b4;fill-opacity:0.5;stroke:#1f77b4;stroke-opacity:0.5;" x="159.316323" xlink:href="#m38bd3b19ee" y="282.819042"/>
     <use style="fill:#1f77b4;fill-opacity:0.5;stroke:#1f77b4;stroke-opacity:0.5;" x="310.605688" xlink:href="#m38bd3b19ee" y="149.628241"/>
     <use style="fill:#1f77b4;fill-opacity:0.5;stroke:#1f77b4;stroke-opacity:0.5;" x="238.380322" xlink:href="#m38bd3b19ee" y="142.588936"/>
     <use style="fill:#1f77b4;fill-opacity:0.5;stroke:#1f77b4;stroke-opacity:0.5;" x="269.615714" xlink:href="#m38bd3b19ee" y="284.297551"/>
     <use style="fill:#1f77b4;fill-opacity:0.5;stroke:#1f77b4;stroke-opacity:0.5;" x="312.482858" xlink:href="#m38bd3b19ee" y="176.922873"/>
     <use style="fill:#1f77b4;fill-opacity:0.5;stroke:#1f77b4;stroke-opacity:0.5;" x="233.540612" xlink:href="#m38bd3b19ee" y="53.393456"/>
     <use style="fill:#1f77b4;fill-opacity:0.5;stroke:#1f77b4;stroke-opacity:0.5;" x="320.222254" xlink:href="#m38bd3b19ee" y="202.06073"/>
     <use style="fill:#1f77b4;fill-opacity:0.5;stroke:#1f77b4;stroke-opacity:0.5;" x="313.114967" xlink:href="#m38bd3b19ee" y="120.415084"/>
     <use style="fill:#1f77b4;fill-opacity:0.5;stroke:#1f77b4;stroke-opacity:0.5;" x="249.900039" xlink:href="#m38bd3b19ee" y="203.376411"/>
     <use style="fill:#1f77b4;fill-opacity:0.5;stroke:#1f77b4;stroke-opacity:0.5;" x="333.207648" xlink:href="#m38bd3b19ee" y="166.162697"/>
     <use style="fill:#1f77b4;fill-opacity:0.5;stroke:#1f77b4;stroke-opacity:0.5;" x="220.266956" xlink:href="#m38bd3b19ee" y="305.194946"/>
     <use style="fill:#1f77b4;fill-opacity:0.5;stroke:#1f77b4;stroke-opacity:0.5;" x="196.647708" xlink:href="#m38bd3b19ee" y="214.788708"/>
     <use style="fill:#1f77b4;fill-opacity:0.5;stroke:#1f77b4;stroke-opacity:0.5;" x="172.186866" xlink:href="#m38bd3b19ee" y="247.336595"/>
     <use style="fill:#1f77b4;fill-opacity:0.5;stroke:#1f77b4;stroke-opacity:0.5;" x="137.419698" xlink:href="#m38bd3b19ee" y="179.666983"/>
     <use style="fill:#1f77b4;fill-opacity:0.5;stroke:#1f77b4;stroke-opacity:0.5;" x="315.51632" xlink:href="#m38bd3b19ee" y="129.300932"/>
     <use style="fill:#1f77b4;fill-opacity:0.5;stroke:#1f77b4;stroke-opacity:0.5;" x="197.512458" xlink:href="#m38bd3b19ee" y="209.813725"/>
     <use style="fill:#1f77b4;fill-opacity:0.5;stroke:#1f77b4;stroke-opacity:0.5;" x="113.337768" xlink:href="#m38bd3b19ee" y="163.950218"/>
     <use style="fill:#1f77b4;fill-opacity:0.5;stroke:#1f77b4;stroke-opacity:0.5;" x="249.646168" xlink:href="#m38bd3b19ee" y="221.047973"/>
     <use style="fill:#1f77b4;fill-opacity:0.5;stroke:#1f77b4;stroke-opacity:0.5;" x="226.081999" xlink:href="#m38bd3b19ee" y="199.465532"/>
     <use style="fill:#1f77b4;fill-opacity:0.5;stroke:#1f77b4;stroke-opacity:0.5;" x="298.45174" xlink:href="#m38bd3b19ee" y="148.084866"/>
     <use style="fill:#1f77b4;fill-opacity:0.5;stroke:#1f77b4;stroke-opacity:0.5;" x="228.635913" xlink:href="#m38bd3b19ee" y="233.883464"/>
     <use style="fill:#1f77b4;fill-opacity:0.5;stroke:#1f77b4;stroke-opacity:0.5;" x="247.341113" xlink:href="#m38bd3b19ee" y="114.228803"/>
     <use style="fill:#1f77b4;fill-opacity:0.5;stroke:#1f77b4;stroke-opacity:0.5;" x="325.402723" xlink:href="#m38bd3b19ee" y="201.718378"/>
     <use style="fill:#1f77b4;fill-opacity:0.5;stroke:#1f77b4;stroke-opacity:0.5;" x="257.338951" xlink:href="#m38bd3b19ee" y="141.937599"/>
     <use style="fill:#1f77b4;fill-opacity:0.5;stroke:#1f77b4;stroke-opacity:0.5;" x="353.895261" xlink:href="#m38bd3b19ee" y="148.899795"/>
     <use style="fill:#1f77b4;fill-opacity:0.5;stroke:#1f77b4;stroke-opacity:0.5;" x="304.141786" xlink:href="#m38bd3b19ee" y="242.085346"/>
     <use style="fill:#1f77b4;fill-opacity:0.5;stroke:#1f77b4;stroke-opacity:0.5;" x="292.129347" xlink:href="#m38bd3b19ee" y="158.761201"/>
     <use style="fill:#1f77b4;fill-opacity:0.5;stroke:#1f77b4;stroke-opacity:0.5;" x="132.245852" xlink:href="#m38bd3b19ee" y="240.378795"/>
     <use style="fill:#1f77b4;fill-opacity:0.5;stroke:#1f77b4;stroke-opacity:0.5;" x="285.078491" xlink:href="#m38bd3b19ee" y="171.107225"/>
     <use style="fill:#1f77b4;fill-opacity:0.5;stroke:#1f77b4;stroke-opacity:0.5;" x="151.746797" xlink:href="#m38bd3b19ee" y="315.570167"/>
     <use style="fill:#1f77b4;fill-opacity:0.5;stroke:#1f77b4;stroke-opacity:0.5;" x="256.282294" xlink:href="#m38bd3b19ee" y="288.306984"/>
     <use style="fill:#1f77b4;fill-opacity:0.5;stroke:#1f77b4;stroke-opacity:0.5;" x="276.048555" xlink:href="#m38bd3b19ee" y="198.754683"/>
     <use style="fill:#1f77b4;fill-opacity:0.5;stroke:#1f77b4;stroke-opacity:0.5;" x="115.176125" xlink:href="#m38bd3b19ee" y="289.047284"/>
     <use style="fill:#1f77b4;fill-opacity:0.5;stroke:#1f77b4;stroke-opacity:0.5;" x="104.041856" xlink:href="#m38bd3b19ee" y="345.245081"/>
     <use style="fill:#1f77b4;fill-opacity:0.5;stroke:#1f77b4;stroke-opacity:0.5;" x="144.529069" xlink:href="#m38bd3b19ee" y="287.351308"/>
     <use style="fill:#1f77b4;fill-opacity:0.5;stroke:#1f77b4;stroke-opacity:0.5;" x="90.957729" xlink:href="#m38bd3b19ee" y="328.991572"/>
     <use style="fill:#1f77b4;fill-opacity:0.5;stroke:#1f77b4;stroke-opacity:0.5;" x="90.898225" xlink:href="#m38bd3b19ee" y="358.396979"/>
     <use style="fill:#1f77b4;fill-opacity:0.5;stroke:#1f77b4;stroke-opacity:0.5;" x="82.038974" xlink:href="#m38bd3b19ee" y="341.231823"/>
     <use style="fill:#1f77b4;fill-opacity:0.5;stroke:#1f77b4;stroke-opacity:0.5;" x="172.161842" xlink:href="#m38bd3b19ee" y="226.183289"/>
     <use style="fill:#1f77b4;fill-opacity:0.5;stroke:#1f77b4;stroke-opacity:0.5;" x="232.395691" xlink:href="#m38bd3b19ee" y="196.066379"/>
     <use style="fill:#1f77b4;fill-opacity:0.5;stroke:#1f77b4;stroke-opacity:0.5;" x="152.630028" xlink:href="#m38bd3b19ee" y="276.850139"/>
     <use style="fill:#1f77b4;fill-opacity:0.5;stroke:#1f77b4;stroke-opacity:0.5;" x="133.6316" xlink:href="#m38bd3b19ee" y="178.508807"/>
     <use style="fill:#1f77b4;fill-opacity:0.5;stroke:#1f77b4;stroke-opacity:0.5;" x="194.815583" xlink:href="#m38bd3b19ee" y="189.720074"/>
     <use style="fill:#1f77b4;fill-opacity:0.5;stroke:#1f77b4;stroke-opacity:0.5;" x="276.095463" xlink:href="#m38bd3b19ee" y="193.863901"/>
     <use style="fill:#1f77b4;fill-opacity:0.5;stroke:#1f77b4;stroke-opacity:0.5;" x="244.615814" xlink:href="#m38bd3b19ee" y="286.079318"/>
     <use style="fill:#1f77b4;fill-opacity:0.5;stroke:#1f77b4;stroke-opacity:0.5;" x="138.374215" xlink:href="#m38bd3b19ee" y="205.148885"/>
     <use style="fill:#1f77b4;fill-opacity:0.5;stroke:#1f77b4;stroke-opacity:0.5;" x="99.571844" xlink:href="#m38bd3b19ee" y="373.532727"/>
     <use style="fill:#1f77b4;fill-opacity:0.5;stroke:#1f77b4;stroke-opacity:0.5;" x="92.074873" xlink:href="#m38bd3b19ee" y="281.643778"/>
     <use style="fill:#1f77b4;fill-opacity:0.5;stroke:#1f77b4;stroke-opacity:0.5;" x="254.660223" xlink:href="#m38bd3b19ee" y="171.922962"/>
     <use style="fill:#1f77b4;fill-opacity:0.5;stroke:#1f77b4;stroke-opacity:0.5;" x="243.297974" xlink:href="#m38bd3b19ee" y="152.025514"/>
     <use style="fill:#1f77b4;fill-opacity:0.5;stroke:#1f77b4;stroke-opacity:0.5;" x="147.175267" xlink:href="#m38bd3b19ee" y="312.259064"/>
     <use style="fill:#1f77b4;fill-opacity:0.5;stroke:#1f77b4;stroke-opacity:0.5;" x="115.343009" xlink:href="#m38bd3b19ee" y="319.831614"/>
     <use style="fill:#1f77b4;fill-opacity:0.5;stroke:#1f77b4;stroke-opacity:0.5;" x="92.93976" xlink:href="#m38bd3b19ee" y="342.430903"/>
     <use style="fill:#1f77b4;fill-opacity:0.5;stroke:#1f77b4;stroke-opacity:0.5;" x="163.886679" xlink:href="#m38bd3b19ee" y="331.798868"/>
     <use style="fill:#1f77b4;fill-opacity:0.5;stroke:#1f77b4;stroke-opacity:0.5;" x="148.834651" xlink:href="#m38bd3b19ee" y="299.823622"/>
     <use style="fill:#1f77b4;fill-opacity:0.5;stroke:#1f77b4;stroke-opacity:0.5;" x="195.536937" xlink:href="#m38bd3b19ee" y="302.117417"/>
     <use style="fill:#1f77b4;fill-opacity:0.5;stroke:#1f77b4;stroke-opacity:0.5;" x="275.850837" xlink:href="#m38bd3b19ee" y="269.525743"/>
     <use style="fill:#1f77b4;fill-opacity:0.5;stroke:#1f77b4;stroke-opacity:0.5;" x="220.039578" xlink:href="#m38bd3b19ee" y="290.588272"/>
     <use style="fill:#1f77b4;fill-opacity:0.5;stroke:#1f77b4;stroke-opacity:0.5;" x="181.855483" xlink:href="#m38bd3b19ee" y="281.479501"/>
     <use style="fill:#1f77b4;fill-opacity:0.5;stroke:#1f77b4;stroke-opacity:0.5;" x="270.650879" xlink:href="#m38bd3b19ee" y="260.489696"/>
     <use style="fill:#1f77b4;fill-opacity:0.5;stroke:#1f77b4;stroke-opacity:0.5;" x="232.259888" xlink:href="#m38bd3b19ee" y="197.217145"/>
     <use style="fill:#1f77b4;fill-opacity:0.5;stroke:#1f77b4;stroke-opacity:0.5;" x="257.526789" xlink:href="#m38bd3b19ee" y="149.621566"/>
     <use style="fill:#1f77b4;fill-opacity:0.5;stroke:#1f77b4;stroke-opacity:0.5;" x="159.18369" xlink:href="#m38bd3b19ee" y="292.691996"/>
     <use style="fill:#1f77b4;fill-opacity:0.5;stroke:#1f77b4;stroke-opacity:0.5;" x="219.147994" xlink:href="#m38bd3b19ee" y="237.893576"/>
     <use style="fill:#1f77b4;fill-opacity:0.5;stroke:#1f77b4;stroke-opacity:0.5;" x="78.874352" xlink:href="#m38bd3b19ee" y="259.462734"/>
     <use style="fill:#1f77b4;fill-opacity:0.5;stroke:#1f77b4;stroke-opacity:0.5;" x="295.127979" xlink:href="#m38bd3b19ee" y="97.211258"/>
     <use style="fill:#1f77b4;fill-opacity:0.5;stroke:#1f77b4;stroke-opacity:0.5;" x="219.819157" xlink:href="#m38bd3b19ee" y="208.95984"/>
     <use style="fill:#1f77b4;fill-opacity:0.5;stroke:#1f77b4;stroke-opacity:0.5;" x="96.313277" xlink:href="#m38bd3b19ee" y="304.693205"/>
     <use style="fill:#1f77b4;fill-opacity:0.5;stroke:#1f77b4;stroke-opacity:0.5;" x="287.324332" xlink:href="#m38bd3b19ee" y="106.434443"/>
     <use style="fill:#1f77b4;fill-opacity:0.5;stroke:#1f77b4;stroke-opacity:0.5;" x="173.52676" xlink:href="#m38bd3b19ee" y="277.562849"/>
     <use style="fill:#1f77b4;fill-opacity:0.5;stroke:#1f77b4;stroke-opacity:0.5;" x="173.416975" xlink:href="#m38bd3b19ee" y="314.527083"/>
     <use style="fill:#1f77b4;fill-opacity:0.5;stroke:#1f77b4;stroke-opacity:0.5;" x="347.205997" xlink:href="#m38bd3b19ee" y="43.387273"/>
     <use style="fill:#1f77b4;fill-opacity:0.5;stroke:#1f77b4;stroke-opacity:0.5;" x="358.086739" xlink:href="#m38bd3b19ee" y="79.989234"/>
     <use style="fill:#1f77b4;fill-opacity:0.5;stroke:#1f77b4;stroke-opacity:0.5;" x="200.91817" xlink:href="#m38bd3b19ee" y="176.749932"/>
     <use style="fill:#1f77b4;fill-opacity:0.5;stroke:#1f77b4;stroke-opacity:0.5;" x="126.555541" xlink:href="#m38bd3b19ee" y="330.537588"/>
     <use style="fill:#1f77b4;fill-opacity:0.5;stroke:#1f77b4;stroke-opacity:0.5;" x="209.443227" xlink:href="#m38bd3b19ee" y="221.763771"/>
     <use style="fill:#1f77b4;fill-opacity:0.5;stroke:#1f77b4;stroke-opacity:0.5;" x="250.141719" xlink:href="#m38bd3b19ee" y="111.672838"/>
     <use style="fill:#1f77b4;fill-opacity:0.5;stroke:#1f77b4;stroke-opacity:0.5;" x="404.223636" xlink:href="#m38bd3b19ee" y="127.883036"/>
     <use style="fill:#1f77b4;fill-opacity:0.5;stroke:#1f77b4;stroke-opacity:0.5;" x="137.658471" xlink:href="#m38bd3b19ee" y="299.195499"/>
     <use style="fill:#1f77b4;fill-opacity:0.5;stroke:#1f77b4;stroke-opacity:0.5;" x="234.859471" xlink:href="#m38bd3b19ee" y="309.686045"/>
     <use style="fill:#1f77b4;fill-opacity:0.5;stroke:#1f77b4;stroke-opacity:0.5;" x="205.615749" xlink:href="#m38bd3b19ee" y="194.294846"/>
     <use style="fill:#1f77b4;fill-opacity:0.5;stroke:#1f77b4;stroke-opacity:0.5;" x="279.75557" xlink:href="#m38bd3b19ee" y="127.130829"/>
     <use style="fill:#1f77b4;fill-opacity:0.5;stroke:#1f77b4;stroke-opacity:0.5;" x="142.846074" xlink:href="#m38bd3b19ee" y="288.878787"/>
     <use style="fill:#1f77b4;fill-opacity:0.5;stroke:#1f77b4;stroke-opacity:0.5;" x="216.141736" xlink:href="#m38bd3b19ee" y="123.824371"/>
     <use style="fill:#1f77b4;fill-opacity:0.5;stroke:#1f77b4;stroke-opacity:0.5;" x="335.923748" xlink:href="#m38bd3b19ee" y="214.504805"/>
    </g>
   </g>
   <g id="PolyCollection_1">
    <path clip-path="url(#p540b73f40a)" d="M 64.696364 317.504305 
L 64.696364 351.300886 
L 68.125932 348.564504 
L 71.5555 345.804738 
L 74.985069 343.102911 
L 78.414637 340.403899 
L 81.844206 337.615776 
L 85.273774 334.699319 
L 88.703343 331.782672 
L 92.132911 328.869717 
L 95.562479 326.105628 
L 98.992048 323.393653 
L 102.421616 320.681678 
L 105.851185 318.047201 
L 109.280753 315.267997 
L 112.710321 312.540586 
L 116.13989 309.830792 
L 119.569458 307.130616 
L 122.999027 304.403701 
L 126.428595 301.720983 
L 129.858163 299.029617 
L 133.287732 296.33834 
L 136.7173 293.64204 
L 140.146869 291.018791 
L 143.576437 288.380155 
L 147.006006 285.543806 
L 150.435574 282.929695 
L 153.865142 280.398641 
L 157.294711 277.740186 
L 160.724279 275.000613 
L 164.153848 272.339657 
L 167.583416 269.921453 
L 171.012984 267.290088 
L 174.442553 264.784666 
L 177.872121 262.096898 
L 181.30169 259.782508 
L 184.731258 257.171525 
L 188.160826 254.797442 
L 191.590395 252.33601 
L 195.019963 249.7869 
L 198.449532 247.426302 
L 201.8791 245.146531 
L 205.308669 242.855729 
L 208.738237 240.58848 
L 212.167805 238.104603 
L 215.597374 235.808909 
L 219.026942 233.495743 
L 222.456511 231.1969 
L 225.886079 229.008882 
L 229.315647 226.547736 
L 232.745216 224.043076 
L 236.174784 221.761103 
L 239.604353 219.505672 
L 243.033921 217.10536 
L 246.463489 214.704063 
L 249.893058 212.308624 
L 253.322626 210.052857 
L 256.752195 208.049704 
L 260.181763 205.897432 
L 263.611331 203.599447 
L 267.0409 201.299971 
L 270.470468 199.035702 
L 273.900037 196.87575 
L 277.329605 194.7126 
L 280.759174 192.57123 
L 284.188742 190.387751 
L 287.61831 188.16405 
L 291.047879 185.838317 
L 294.477447 183.472438 
L 297.907016 181.277285 
L 301.336584 179.048251 
L 304.766152 176.77223 
L 308.195721 174.494343 
L 311.625289 172.213321 
L 315.054858 169.984128 
L 318.484426 167.740062 
L 321.913994 165.626605 
L 325.343563 163.513149 
L 328.773131 161.399692 
L 332.2027 159.246344 
L 335.632268 157.060975 
L 339.061837 154.864789 
L 342.491405 152.735963 
L 345.920973 150.63965 
L 349.350542 148.566023 
L 352.78011 146.480971 
L 356.209679 144.25305 
L 359.639247 142.091833 
L 363.068815 140.015758 
L 366.498384 138.01833 
L 369.927952 135.903082 
L 373.357521 133.785513 
L 376.787089 131.737626 
L 380.216657 129.689991 
L 383.646226 127.576946 
L 387.075794 125.45972 
L 390.505363 123.306963 
L 393.934931 121.13299 
L 397.3645 118.973038 
L 400.794068 116.836145 
L 404.223636 114.660985 
L 404.223636 58.548271 
L 404.223636 58.548271 
L 400.794068 61.334197 
L 397.3645 64.120123 
L 393.934931 66.929984 
L 390.505363 69.790568 
L 387.075794 72.651152 
L 383.646226 75.511735 
L 380.216657 78.374093 
L 376.787089 81.237537 
L 373.357521 84.100982 
L 369.927952 86.964426 
L 366.498384 89.82787 
L 363.068815 92.691314 
L 359.639247 95.567132 
L 356.209679 98.578006 
L 352.78011 101.378122 
L 349.350542 104.212478 
L 345.920973 107.15474 
L 342.491405 110.097001 
L 339.061837 113.039263 
L 335.632268 115.920382 
L 332.2027 118.735742 
L 328.773131 121.586982 
L 325.343563 124.483522 
L 321.913994 127.274053 
L 318.484426 130.170865 
L 315.054858 133.042225 
L 311.625289 135.880735 
L 308.195721 138.670447 
L 304.766152 141.610183 
L 301.336584 144.425543 
L 297.907016 147.270716 
L 294.477447 150.126105 
L 291.047879 152.944794 
L 287.61831 155.752736 
L 284.188742 158.530837 
L 280.759174 161.284641 
L 277.329605 164.120048 
L 273.900037 166.997662 
L 270.470468 169.875347 
L 267.0409 172.656494 
L 263.611331 175.413427 
L 260.181763 178.180182 
L 256.752195 180.942202 
L 253.322626 183.721848 
L 249.893058 186.465518 
L 246.463489 189.252941 
L 243.033921 191.987228 
L 239.604353 194.747764 
L 236.174784 197.510439 
L 232.745216 200.3194 
L 229.315647 203.033084 
L 225.886079 205.792471 
L 222.456511 208.394072 
L 219.026942 210.863289 
L 215.597374 213.626803 
L 212.167805 216.167485 
L 208.738237 218.872478 
L 205.308669 221.503687 
L 201.8791 224.308085 
L 198.449532 227.027378 
L 195.019963 229.527676 
L 191.590395 232.10467 
L 188.160826 234.495881 
L 184.731258 236.971658 
L 181.30169 239.461155 
L 177.872121 241.889657 
L 174.442553 244.19856 
L 171.012984 246.591591 
L 167.583416 249.170917 
L 164.153848 251.660233 
L 160.724279 253.885195 
L 157.294711 256.228032 
L 153.865142 258.519077 
L 150.435574 260.779976 
L 147.006006 263.069874 
L 143.576437 265.344037 
L 140.146869 267.580148 
L 136.7173 269.89418 
L 133.287732 272.169228 
L 129.858163 274.446681 
L 126.428595 276.726755 
L 122.999027 279.015966 
L 119.569458 281.430372 
L 116.13989 283.847798 
L 112.710321 286.195096 
L 109.280753 288.68225 
L 105.851185 290.931804 
L 102.421616 292.937226 
L 98.992048 295.100029 
L 95.562479 297.341543 
L 92.132911 299.724829 
L 88.703343 302.053836 
L 85.273774 304.441163 
L 81.844206 306.529992 
L 78.414637 308.614081 
L 74.985069 310.864998 
L 71.5555 313.140038 
L 68.125932 315.269939 
L 64.696364 317.504305 
z
" style="fill:#1f77b4;fill-opacity:0.15;"/>
   </g>
   <g id="matplotlib.axis_1">
    <g id="xtick_1">
     <g id="line2d_1">
      <path clip-path="url(#p540b73f40a)" d="M 64.696364 390.04 
L 64.696364 26.88 
" style="fill:none;stroke:#b0b0b0;stroke-dasharray:2.96,1.28;stroke-dashoffset:0;stroke-opacity:0.5;stroke-width:0.8;"/>
     </g>
     <g id="line2d_2">
      <defs>
       <path d="M 0 0 
L 0 3.5 
" id="m1df8443842" style="stroke:#000000;stroke-width:0.8;"/>
      </defs>
      <g>
       <use style="stroke:#000000;stroke-width:0.8;" x="64.696364" xlink:href="#m1df8443842" y="390.04"/>
      </g>
     </g>
     <g id="text_1">
      <!-- 0.0 -->
      <g transform="translate(56.744801 404.638438)scale(0.1 -0.1)">
       <defs>
        <path d="M 2034 4250 
Q 1547 4250 1301 3770 
Q 1056 3291 1056 2328 
Q 1056 1369 1301 889 
Q 1547 409 2034 409 
Q 2525 409 2770 889 
Q 3016 1369 3016 2328 
Q 3016 3291 2770 3770 
Q 2525 4250 2034 4250 
z
M 2034 4750 
Q 2819 4750 3233 4129 
Q 3647 3509 3647 2328 
Q 3647 1150 3233 529 
Q 2819 -91 2034 -91 
Q 1250 -91 836 529 
Q 422 1150 422 2328 
Q 422 3509 836 4129 
Q 1250 4750 2034 4750 
z
" id="DejaVuSans-30" transform="scale(0.015625)"/>
        <path d="M 684 794 
L 1344 794 
L 1344 0 
L 684 0 
L 684 794 
z
" id="DejaVuSans-2e" transform="scale(0.015625)"/>
       </defs>
       <use xlink:href="#DejaVuSans-30"/>
       <use x="63.623047" xlink:href="#DejaVuSans-2e"/>
       <use x="95.410156" xlink:href="#DejaVuSans-30"/>
      </g>
     </g>
    </g>
    <g id="xtick_2">
     <g id="line2d_3">
      <path clip-path="url(#p540b73f40a)" d="M 127.93019 390.04 
L 127.93019 26.88 
" style="fill:none;stroke:#b0b0b0;stroke-dasharray:2.96,1.28;stroke-dashoffset:0;stroke-opacity:0.5;stroke-width:0.8;"/>
     </g>
     <g id="line2d_4">
      <g>
       <use style="stroke:#000000;stroke-width:0.8;" x="127.93019" xlink:href="#m1df8443842" y="390.04"/>
      </g>
     </g>
     <g id="text_2">
      <!-- 0.1 -->
      <g transform="translate(119.978627 404.638438)scale(0.1 -0.1)">
       <defs>
        <path d="M 794 531 
L 1825 531 
L 1825 4091 
L 703 3866 
L 703 4441 
L 1819 4666 
L 2450 4666 
L 2450 531 
L 3481 531 
L 3481 0 
L 794 0 
L 794 531 
z
" id="DejaVuSans-31" transform="scale(0.015625)"/>
       </defs>
       <use xlink:href="#DejaVuSans-30"/>
       <use x="63.623047" xlink:href="#DejaVuSans-2e"/>
       <use x="95.410156" xlink:href="#DejaVuSans-31"/>
      </g>
     </g>
    </g>
    <g id="xtick_3">
     <g id="line2d_5">
      <path clip-path="url(#p540b73f40a)" d="M 191.164016 390.04 
L 191.164016 26.88 
" style="fill:none;stroke:#b0b0b0;stroke-dasharray:2.96,1.28;stroke-dashoffset:0;stroke-opacity:0.5;stroke-width:0.8;"/>
     </g>
     <g id="line2d_6">
      <g>
       <use style="stroke:#000000;stroke-width:0.8;" x="191.164016" xlink:href="#m1df8443842" y="390.04"/>
      </g>
     </g>
     <g id="text_3">
      <!-- 0.2 -->
      <g transform="translate(183.212454 404.638438)scale(0.1 -0.1)">
       <defs>
        <path d="M 1228 531 
L 3431 531 
L 3431 0 
L 469 0 
L 469 531 
Q 828 903 1448 1529 
Q 2069 2156 2228 2338 
Q 2531 2678 2651 2914 
Q 2772 3150 2772 3378 
Q 2772 3750 2511 3984 
Q 2250 4219 1831 4219 
Q 1534 4219 1204 4116 
Q 875 4013 500 3803 
L 500 4441 
Q 881 4594 1212 4672 
Q 1544 4750 1819 4750 
Q 2544 4750 2975 4387 
Q 3406 4025 3406 3419 
Q 3406 3131 3298 2873 
Q 3191 2616 2906 2266 
Q 2828 2175 2409 1742 
Q 1991 1309 1228 531 
z
" id="DejaVuSans-32" transform="scale(0.015625)"/>
       </defs>
       <use xlink:href="#DejaVuSans-30"/>
       <use x="63.623047" xlink:href="#DejaVuSans-2e"/>
       <use x="95.410156" xlink:href="#DejaVuSans-32"/>
      </g>
     </g>
    </g>
    <g id="xtick_4">
     <g id="line2d_7">
      <path clip-path="url(#p540b73f40a)" d="M 254.397842 390.04 
L 254.397842 26.88 
" style="fill:none;stroke:#b0b0b0;stroke-dasharray:2.96,1.28;stroke-dashoffset:0;stroke-opacity:0.5;stroke-width:0.8;"/>
     </g>
     <g id="line2d_8">
      <g>
       <use style="stroke:#000000;stroke-width:0.8;" x="254.397842" xlink:href="#m1df8443842" y="390.04"/>
      </g>
     </g>
     <g id="text_4">
      <!-- 0.3 -->
      <g transform="translate(246.44628 404.638438)scale(0.1 -0.1)">
       <defs>
        <path d="M 2597 2516 
Q 3050 2419 3304 2112 
Q 3559 1806 3559 1356 
Q 3559 666 3084 287 
Q 2609 -91 1734 -91 
Q 1441 -91 1130 -33 
Q 819 25 488 141 
L 488 750 
Q 750 597 1062 519 
Q 1375 441 1716 441 
Q 2309 441 2620 675 
Q 2931 909 2931 1356 
Q 2931 1769 2642 2001 
Q 2353 2234 1838 2234 
L 1294 2234 
L 1294 2753 
L 1863 2753 
Q 2328 2753 2575 2939 
Q 2822 3125 2822 3475 
Q 2822 3834 2567 4026 
Q 2313 4219 1838 4219 
Q 1578 4219 1281 4162 
Q 984 4106 628 3988 
L 628 4550 
Q 988 4650 1302 4700 
Q 1616 4750 1894 4750 
Q 2613 4750 3031 4423 
Q 3450 4097 3450 3541 
Q 3450 3153 3228 2886 
Q 3006 2619 2597 2516 
z
" id="DejaVuSans-33" transform="scale(0.015625)"/>
       </defs>
       <use xlink:href="#DejaVuSans-30"/>
       <use x="63.623047" xlink:href="#DejaVuSans-2e"/>
       <use x="95.410156" xlink:href="#DejaVuSans-33"/>
      </g>
     </g>
    </g>
    <g id="xtick_5">
     <g id="line2d_9">
      <path clip-path="url(#p540b73f40a)" d="M 317.631669 390.04 
L 317.631669 26.88 
" style="fill:none;stroke:#b0b0b0;stroke-dasharray:2.96,1.28;stroke-dashoffset:0;stroke-opacity:0.5;stroke-width:0.8;"/>
     </g>
     <g id="line2d_10">
      <g>
       <use style="stroke:#000000;stroke-width:0.8;" x="317.631669" xlink:href="#m1df8443842" y="390.04"/>
      </g>
     </g>
     <g id="text_5">
      <!-- 0.4 -->
      <g transform="translate(309.680106 404.638438)scale(0.1 -0.1)">
       <defs>
        <path d="M 2419 4116 
L 825 1625 
L 2419 1625 
L 2419 4116 
z
M 2253 4666 
L 3047 4666 
L 3047 1625 
L 3713 1625 
L 3713 1100 
L 3047 1100 
L 3047 0 
L 2419 0 
L 2419 1100 
L 313 1100 
L 313 1709 
L 2253 4666 
z
" id="DejaVuSans-34" transform="scale(0.015625)"/>
       </defs>
       <use xlink:href="#DejaVuSans-30"/>
       <use x="63.623047" xlink:href="#DejaVuSans-2e"/>
       <use x="95.410156" xlink:href="#DejaVuSans-34"/>
      </g>
     </g>
    </g>
    <g id="xtick_6">
     <g id="line2d_11">
      <path clip-path="url(#p540b73f40a)" d="M 380.865495 390.04 
L 380.865495 26.88 
" style="fill:none;stroke:#b0b0b0;stroke-dasharray:2.96,1.28;stroke-dashoffset:0;stroke-opacity:0.5;stroke-width:0.8;"/>
     </g>
     <g id="line2d_12">
      <g>
       <use style="stroke:#000000;stroke-width:0.8;" x="380.865495" xlink:href="#m1df8443842" y="390.04"/>
      </g>
     </g>
     <g id="text_6">
      <!-- 0.5 -->
      <g transform="translate(372.913932 404.638438)scale(0.1 -0.1)">
       <defs>
        <path d="M 691 4666 
L 3169 4666 
L 3169 4134 
L 1269 4134 
L 1269 2991 
Q 1406 3038 1543 3061 
Q 1681 3084 1819 3084 
Q 2600 3084 3056 2656 
Q 3513 2228 3513 1497 
Q 3513 744 3044 326 
Q 2575 -91 1722 -91 
Q 1428 -91 1123 -41 
Q 819 9 494 109 
L 494 744 
Q 775 591 1075 516 
Q 1375 441 1709 441 
Q 2250 441 2565 725 
Q 2881 1009 2881 1497 
Q 2881 1984 2565 2268 
Q 2250 2553 1709 2553 
Q 1456 2553 1204 2497 
Q 953 2441 691 2322 
L 691 4666 
z
" id="DejaVuSans-35" transform="scale(0.015625)"/>
       </defs>
       <use xlink:href="#DejaVuSans-30"/>
       <use x="63.623047" xlink:href="#DejaVuSans-2e"/>
       <use x="95.410156" xlink:href="#DejaVuSans-35"/>
      </g>
     </g>
    </g>
    <g id="text_7">
     <!-- Percentage of Zero-Car Households -->
     <g transform="translate(145.6725 418.316562)scale(0.1 -0.1)">
      <defs>
       <path d="M 1259 4147 
L 1259 2394 
L 2053 2394 
Q 2494 2394 2734 2622 
Q 2975 2850 2975 3272 
Q 2975 3691 2734 3919 
Q 2494 4147 2053 4147 
L 1259 4147 
z
M 628 4666 
L 2053 4666 
Q 2838 4666 3239 4311 
Q 3641 3956 3641 3272 
Q 3641 2581 3239 2228 
Q 2838 1875 2053 1875 
L 1259 1875 
L 1259 0 
L 628 0 
L 628 4666 
z
" id="DejaVuSans-50" transform="scale(0.015625)"/>
       <path d="M 3597 1894 
L 3597 1613 
L 953 1613 
Q 991 1019 1311 708 
Q 1631 397 2203 397 
Q 2534 397 2845 478 
Q 3156 559 3463 722 
L 3463 178 
Q 3153 47 2828 -22 
Q 2503 -91 2169 -91 
Q 1331 -91 842 396 
Q 353 884 353 1716 
Q 353 2575 817 3079 
Q 1281 3584 2069 3584 
Q 2775 3584 3186 3129 
Q 3597 2675 3597 1894 
z
M 3022 2063 
Q 3016 2534 2758 2815 
Q 2500 3097 2075 3097 
Q 1594 3097 1305 2825 
Q 1016 2553 972 2059 
L 3022 2063 
z
" id="DejaVuSans-65" transform="scale(0.015625)"/>
       <path d="M 2631 2963 
Q 2534 3019 2420 3045 
Q 2306 3072 2169 3072 
Q 1681 3072 1420 2755 
Q 1159 2438 1159 1844 
L 1159 0 
L 581 0 
L 581 3500 
L 1159 3500 
L 1159 2956 
Q 1341 3275 1631 3429 
Q 1922 3584 2338 3584 
Q 2397 3584 2469 3576 
Q 2541 3569 2628 3553 
L 2631 2963 
z
" id="DejaVuSans-72" transform="scale(0.015625)"/>
       <path d="M 3122 3366 
L 3122 2828 
Q 2878 2963 2633 3030 
Q 2388 3097 2138 3097 
Q 1578 3097 1268 2742 
Q 959 2388 959 1747 
Q 959 1106 1268 751 
Q 1578 397 2138 397 
Q 2388 397 2633 464 
Q 2878 531 3122 666 
L 3122 134 
Q 2881 22 2623 -34 
Q 2366 -91 2075 -91 
Q 1284 -91 818 406 
Q 353 903 353 1747 
Q 353 2603 823 3093 
Q 1294 3584 2113 3584 
Q 2378 3584 2631 3529 
Q 2884 3475 3122 3366 
z
" id="DejaVuSans-63" transform="scale(0.015625)"/>
       <path d="M 3513 2113 
L 3513 0 
L 2938 0 
L 2938 2094 
Q 2938 2591 2744 2837 
Q 2550 3084 2163 3084 
Q 1697 3084 1428 2787 
Q 1159 2491 1159 1978 
L 1159 0 
L 581 0 
L 581 3500 
L 1159 3500 
L 1159 2956 
Q 1366 3272 1645 3428 
Q 1925 3584 2291 3584 
Q 2894 3584 3203 3211 
Q 3513 2838 3513 2113 
z
" id="DejaVuSans-6e" transform="scale(0.015625)"/>
       <path d="M 1172 4494 
L 1172 3500 
L 2356 3500 
L 2356 3053 
L 1172 3053 
L 1172 1153 
Q 1172 725 1289 603 
Q 1406 481 1766 481 
L 2356 481 
L 2356 0 
L 1766 0 
Q 1100 0 847 248 
Q 594 497 594 1153 
L 594 3053 
L 172 3053 
L 172 3500 
L 594 3500 
L 594 4494 
L 1172 4494 
z
" id="DejaVuSans-74" transform="scale(0.015625)"/>
       <path d="M 2194 1759 
Q 1497 1759 1228 1600 
Q 959 1441 959 1056 
Q 959 750 1161 570 
Q 1363 391 1709 391 
Q 2188 391 2477 730 
Q 2766 1069 2766 1631 
L 2766 1759 
L 2194 1759 
z
M 3341 1997 
L 3341 0 
L 2766 0 
L 2766 531 
Q 2569 213 2275 61 
Q 1981 -91 1556 -91 
Q 1019 -91 701 211 
Q 384 513 384 1019 
Q 384 1609 779 1909 
Q 1175 2209 1959 2209 
L 2766 2209 
L 2766 2266 
Q 2766 2663 2505 2880 
Q 2244 3097 1772 3097 
Q 1472 3097 1187 3025 
Q 903 2953 641 2809 
L 641 3341 
Q 956 3463 1253 3523 
Q 1550 3584 1831 3584 
Q 2591 3584 2966 3190 
Q 3341 2797 3341 1997 
z
" id="DejaVuSans-61" transform="scale(0.015625)"/>
       <path d="M 2906 1791 
Q 2906 2416 2648 2759 
Q 2391 3103 1925 3103 
Q 1463 3103 1205 2759 
Q 947 2416 947 1791 
Q 947 1169 1205 825 
Q 1463 481 1925 481 
Q 2391 481 2648 825 
Q 2906 1169 2906 1791 
z
M 3481 434 
Q 3481 -459 3084 -895 
Q 2688 -1331 1869 -1331 
Q 1566 -1331 1297 -1286 
Q 1028 -1241 775 -1147 
L 775 -588 
Q 1028 -725 1275 -790 
Q 1522 -856 1778 -856 
Q 2344 -856 2625 -561 
Q 2906 -266 2906 331 
L 2906 616 
Q 2728 306 2450 153 
Q 2172 0 1784 0 
Q 1141 0 747 490 
Q 353 981 353 1791 
Q 353 2603 747 3093 
Q 1141 3584 1784 3584 
Q 2172 3584 2450 3431 
Q 2728 3278 2906 2969 
L 2906 3500 
L 3481 3500 
L 3481 434 
z
" id="DejaVuSans-67" transform="scale(0.015625)"/>
       <path id="DejaVuSans-20" transform="scale(0.015625)"/>
       <path d="M 1959 3097 
Q 1497 3097 1228 2736 
Q 959 2375 959 1747 
Q 959 1119 1226 758 
Q 1494 397 1959 397 
Q 2419 397 2687 759 
Q 2956 1122 2956 1747 
Q 2956 2369 2687 2733 
Q 2419 3097 1959 3097 
z
M 1959 3584 
Q 2709 3584 3137 3096 
Q 3566 2609 3566 1747 
Q 3566 888 3137 398 
Q 2709 -91 1959 -91 
Q 1206 -91 779 398 
Q 353 888 353 1747 
Q 353 2609 779 3096 
Q 1206 3584 1959 3584 
z
" id="DejaVuSans-6f" transform="scale(0.015625)"/>
       <path d="M 2375 4863 
L 2375 4384 
L 1825 4384 
Q 1516 4384 1395 4259 
Q 1275 4134 1275 3809 
L 1275 3500 
L 2222 3500 
L 2222 3053 
L 1275 3053 
L 1275 0 
L 697 0 
L 697 3053 
L 147 3053 
L 147 3500 
L 697 3500 
L 697 3744 
Q 697 4328 969 4595 
Q 1241 4863 1831 4863 
L 2375 4863 
z
" id="DejaVuSans-66" transform="scale(0.015625)"/>
       <path d="M 359 4666 
L 4025 4666 
L 4025 4184 
L 1075 531 
L 4097 531 
L 4097 0 
L 288 0 
L 288 481 
L 3238 4134 
L 359 4134 
L 359 4666 
z
" id="DejaVuSans-5a" transform="scale(0.015625)"/>
       <path d="M 313 2009 
L 1997 2009 
L 1997 1497 
L 313 1497 
L 313 2009 
z
" id="DejaVuSans-2d" transform="scale(0.015625)"/>
       <path d="M 4122 4306 
L 4122 3641 
Q 3803 3938 3442 4084 
Q 3081 4231 2675 4231 
Q 1875 4231 1450 3742 
Q 1025 3253 1025 2328 
Q 1025 1406 1450 917 
Q 1875 428 2675 428 
Q 3081 428 3442 575 
Q 3803 722 4122 1019 
L 4122 359 
Q 3791 134 3420 21 
Q 3050 -91 2638 -91 
Q 1578 -91 968 557 
Q 359 1206 359 2328 
Q 359 3453 968 4101 
Q 1578 4750 2638 4750 
Q 3056 4750 3426 4639 
Q 3797 4528 4122 4306 
z
" id="DejaVuSans-43" transform="scale(0.015625)"/>
       <path d="M 628 4666 
L 1259 4666 
L 1259 2753 
L 3553 2753 
L 3553 4666 
L 4184 4666 
L 4184 0 
L 3553 0 
L 3553 2222 
L 1259 2222 
L 1259 0 
L 628 0 
L 628 4666 
z
" id="DejaVuSans-48" transform="scale(0.015625)"/>
       <path d="M 544 1381 
L 544 3500 
L 1119 3500 
L 1119 1403 
Q 1119 906 1312 657 
Q 1506 409 1894 409 
Q 2359 409 2629 706 
Q 2900 1003 2900 1516 
L 2900 3500 
L 3475 3500 
L 3475 0 
L 2900 0 
L 2900 538 
Q 2691 219 2414 64 
Q 2138 -91 1772 -91 
Q 1169 -91 856 284 
Q 544 659 544 1381 
z
M 1991 3584 
L 1991 3584 
z
" id="DejaVuSans-75" transform="scale(0.015625)"/>
       <path d="M 2834 3397 
L 2834 2853 
Q 2591 2978 2328 3040 
Q 2066 3103 1784 3103 
Q 1356 3103 1142 2972 
Q 928 2841 928 2578 
Q 928 2378 1081 2264 
Q 1234 2150 1697 2047 
L 1894 2003 
Q 2506 1872 2764 1633 
Q 3022 1394 3022 966 
Q 3022 478 2636 193 
Q 2250 -91 1575 -91 
Q 1294 -91 989 -36 
Q 684 19 347 128 
L 347 722 
Q 666 556 975 473 
Q 1284 391 1588 391 
Q 1994 391 2212 530 
Q 2431 669 2431 922 
Q 2431 1156 2273 1281 
Q 2116 1406 1581 1522 
L 1381 1569 
Q 847 1681 609 1914 
Q 372 2147 372 2553 
Q 372 3047 722 3315 
Q 1072 3584 1716 3584 
Q 2034 3584 2315 3537 
Q 2597 3491 2834 3397 
z
" id="DejaVuSans-73" transform="scale(0.015625)"/>
       <path d="M 3513 2113 
L 3513 0 
L 2938 0 
L 2938 2094 
Q 2938 2591 2744 2837 
Q 2550 3084 2163 3084 
Q 1697 3084 1428 2787 
Q 1159 2491 1159 1978 
L 1159 0 
L 581 0 
L 581 4863 
L 1159 4863 
L 1159 2956 
Q 1366 3272 1645 3428 
Q 1925 3584 2291 3584 
Q 2894 3584 3203 3211 
Q 3513 2838 3513 2113 
z
" id="DejaVuSans-68" transform="scale(0.015625)"/>
       <path d="M 603 4863 
L 1178 4863 
L 1178 0 
L 603 0 
L 603 4863 
z
" id="DejaVuSans-6c" transform="scale(0.015625)"/>
       <path d="M 2906 2969 
L 2906 4863 
L 3481 4863 
L 3481 0 
L 2906 0 
L 2906 525 
Q 2725 213 2448 61 
Q 2172 -91 1784 -91 
Q 1150 -91 751 415 
Q 353 922 353 1747 
Q 353 2572 751 3078 
Q 1150 3584 1784 3584 
Q 2172 3584 2448 3432 
Q 2725 3281 2906 2969 
z
M 947 1747 
Q 947 1113 1208 752 
Q 1469 391 1925 391 
Q 2381 391 2643 752 
Q 2906 1113 2906 1747 
Q 2906 2381 2643 2742 
Q 2381 3103 1925 3103 
Q 1469 3103 1208 2742 
Q 947 2381 947 1747 
z
" id="DejaVuSans-64" transform="scale(0.015625)"/>
      </defs>
      <use xlink:href="#DejaVuSans-50"/>
      <use x="56.677734" xlink:href="#DejaVuSans-65"/>
      <use x="118.201172" xlink:href="#DejaVuSans-72"/>
      <use x="157.064453" xlink:href="#DejaVuSans-63"/>
      <use x="212.044922" xlink:href="#DejaVuSans-65"/>
      <use x="273.568359" xlink:href="#DejaVuSans-6e"/>
      <use x="336.947266" xlink:href="#DejaVuSans-74"/>
      <use x="376.15625" xlink:href="#DejaVuSans-61"/>
      <use x="437.435547" xlink:href="#DejaVuSans-67"/>
      <use x="500.912109" xlink:href="#DejaVuSans-65"/>
      <use x="562.435547" xlink:href="#DejaVuSans-20"/>
      <use x="594.222656" xlink:href="#DejaVuSans-6f"/>
      <use x="655.404297" xlink:href="#DejaVuSans-66"/>
      <use x="690.609375" xlink:href="#DejaVuSans-20"/>
      <use x="722.396484" xlink:href="#DejaVuSans-5a"/>
      <use x="790.902344" xlink:href="#DejaVuSans-65"/>
      <use x="852.425781" xlink:href="#DejaVuSans-72"/>
      <use x="891.289062" xlink:href="#DejaVuSans-6f"/>
      <use x="954.345703" xlink:href="#DejaVuSans-2d"/>
      <use x="990.429688" xlink:href="#DejaVuSans-43"/>
      <use x="1060.253906" xlink:href="#DejaVuSans-61"/>
      <use x="1121.533203" xlink:href="#DejaVuSans-72"/>
      <use x="1162.646484" xlink:href="#DejaVuSans-20"/>
      <use x="1194.433594" xlink:href="#DejaVuSans-48"/>
      <use x="1269.628906" xlink:href="#DejaVuSans-6f"/>
      <use x="1330.810547" xlink:href="#DejaVuSans-75"/>
      <use x="1394.189453" xlink:href="#DejaVuSans-73"/>
      <use x="1446.289062" xlink:href="#DejaVuSans-65"/>
      <use x="1507.8125" xlink:href="#DejaVuSans-68"/>
      <use x="1571.191406" xlink:href="#DejaVuSans-6f"/>
      <use x="1632.373047" xlink:href="#DejaVuSans-6c"/>
      <use x="1660.15625" xlink:href="#DejaVuSans-64"/>
      <use x="1723.632812" xlink:href="#DejaVuSans-73"/>
     </g>
    </g>
   </g>
   <g id="matplotlib.axis_2">
    <g id="ytick_1">
     <g id="line2d_13">
      <path clip-path="url(#p540b73f40a)" d="M 47.72 349.916492 
L 421.2 349.916492 
" style="fill:none;stroke:#b0b0b0;stroke-dasharray:2.96,1.28;stroke-dashoffset:0;stroke-opacity:0.5;stroke-width:0.8;"/>
     </g>
     <g id="line2d_14">
      <defs>
       <path d="M 0 0 
L -3.5 0 
" id="m1343b354e9" style="stroke:#000000;stroke-width:0.8;"/>
      </defs>
      <g>
       <use style="stroke:#000000;stroke-width:0.8;" x="47.72" xlink:href="#m1343b354e9" y="349.916492"/>
      </g>
     </g>
     <g id="text_8">
      <!-- 0.1 -->
      <g transform="translate(24.816875 353.715711)scale(0.1 -0.1)">
       <use xlink:href="#DejaVuSans-30"/>
       <use x="63.623047" xlink:href="#DejaVuSans-2e"/>
       <use x="95.410156" xlink:href="#DejaVuSans-31"/>
      </g>
     </g>
    </g>
    <g id="ytick_2">
     <g id="line2d_15">
      <path clip-path="url(#p540b73f40a)" d="M 47.72 299.399107 
L 421.2 299.399107 
" style="fill:none;stroke:#b0b0b0;stroke-dasharray:2.96,1.28;stroke-dashoffset:0;stroke-opacity:0.5;stroke-width:0.8;"/>
     </g>
     <g id="line2d_16">
      <g>
       <use style="stroke:#000000;stroke-width:0.8;" x="47.72" xlink:href="#m1343b354e9" y="299.399107"/>
      </g>
     </g>
     <g id="text_9">
      <!-- 0.2 -->
      <g transform="translate(24.816875 303.198325)scale(0.1 -0.1)">
       <use xlink:href="#DejaVuSans-30"/>
       <use x="63.623047" xlink:href="#DejaVuSans-2e"/>
       <use x="95.410156" xlink:href="#DejaVuSans-32"/>
      </g>
     </g>
    </g>
    <g id="ytick_3">
     <g id="line2d_17">
      <path clip-path="url(#p540b73f40a)" d="M 47.72 248.881721 
L 421.2 248.881721 
" style="fill:none;stroke:#b0b0b0;stroke-dasharray:2.96,1.28;stroke-dashoffset:0;stroke-opacity:0.5;stroke-width:0.8;"/>
     </g>
     <g id="line2d_18">
      <g>
       <use style="stroke:#000000;stroke-width:0.8;" x="47.72" xlink:href="#m1343b354e9" y="248.881721"/>
      </g>
     </g>
     <g id="text_10">
      <!-- 0.3 -->
      <g transform="translate(24.816875 252.68094)scale(0.1 -0.1)">
       <use xlink:href="#DejaVuSans-30"/>
       <use x="63.623047" xlink:href="#DejaVuSans-2e"/>
       <use x="95.410156" xlink:href="#DejaVuSans-33"/>
      </g>
     </g>
    </g>
    <g id="ytick_4">
     <g id="line2d_19">
      <path clip-path="url(#p540b73f40a)" d="M 47.72 198.364336 
L 421.2 198.364336 
" style="fill:none;stroke:#b0b0b0;stroke-dasharray:2.96,1.28;stroke-dashoffset:0;stroke-opacity:0.5;stroke-width:0.8;"/>
     </g>
     <g id="line2d_20">
      <g>
       <use style="stroke:#000000;stroke-width:0.8;" x="47.72" xlink:href="#m1343b354e9" y="198.364336"/>
      </g>
     </g>
     <g id="text_11">
      <!-- 0.4 -->
      <g transform="translate(24.816875 202.163555)scale(0.1 -0.1)">
       <use xlink:href="#DejaVuSans-30"/>
       <use x="63.623047" xlink:href="#DejaVuSans-2e"/>
       <use x="95.410156" xlink:href="#DejaVuSans-34"/>
      </g>
     </g>
    </g>
    <g id="ytick_5">
     <g id="line2d_21">
      <path clip-path="url(#p540b73f40a)" d="M 47.72 147.846951 
L 421.2 147.846951 
" style="fill:none;stroke:#b0b0b0;stroke-dasharray:2.96,1.28;stroke-dashoffset:0;stroke-opacity:0.5;stroke-width:0.8;"/>
     </g>
     <g id="line2d_22">
      <g>
       <use style="stroke:#000000;stroke-width:0.8;" x="47.72" xlink:href="#m1343b354e9" y="147.846951"/>
      </g>
     </g>
     <g id="text_12">
      <!-- 0.5 -->
      <g transform="translate(24.816875 151.646169)scale(0.1 -0.1)">
       <use xlink:href="#DejaVuSans-30"/>
       <use x="63.623047" xlink:href="#DejaVuSans-2e"/>
       <use x="95.410156" xlink:href="#DejaVuSans-35"/>
      </g>
     </g>
    </g>
    <g id="ytick_6">
     <g id="line2d_23">
      <path clip-path="url(#p540b73f40a)" d="M 47.72 97.329565 
L 421.2 97.329565 
" style="fill:none;stroke:#b0b0b0;stroke-dasharray:2.96,1.28;stroke-dashoffset:0;stroke-opacity:0.5;stroke-width:0.8;"/>
     </g>
     <g id="line2d_24">
      <g>
       <use style="stroke:#000000;stroke-width:0.8;" x="47.72" xlink:href="#m1343b354e9" y="97.329565"/>
      </g>
     </g>
     <g id="text_13">
      <!-- 0.6 -->
      <g transform="translate(24.816875 101.128784)scale(0.1 -0.1)">
       <defs>
        <path d="M 2113 2584 
Q 1688 2584 1439 2293 
Q 1191 2003 1191 1497 
Q 1191 994 1439 701 
Q 1688 409 2113 409 
Q 2538 409 2786 701 
Q 3034 994 3034 1497 
Q 3034 2003 2786 2293 
Q 2538 2584 2113 2584 
z
M 3366 4563 
L 3366 3988 
Q 3128 4100 2886 4159 
Q 2644 4219 2406 4219 
Q 1781 4219 1451 3797 
Q 1122 3375 1075 2522 
Q 1259 2794 1537 2939 
Q 1816 3084 2150 3084 
Q 2853 3084 3261 2657 
Q 3669 2231 3669 1497 
Q 3669 778 3244 343 
Q 2819 -91 2113 -91 
Q 1303 -91 875 529 
Q 447 1150 447 2328 
Q 447 3434 972 4092 
Q 1497 4750 2381 4750 
Q 2619 4750 2861 4703 
Q 3103 4656 3366 4563 
z
" id="DejaVuSans-36" transform="scale(0.015625)"/>
       </defs>
       <use xlink:href="#DejaVuSans-30"/>
       <use x="63.623047" xlink:href="#DejaVuSans-2e"/>
       <use x="95.410156" xlink:href="#DejaVuSans-36"/>
      </g>
     </g>
    </g>
    <g id="ytick_7">
     <g id="line2d_25">
      <path clip-path="url(#p540b73f40a)" d="M 47.72 46.81218 
L 421.2 46.81218 
" style="fill:none;stroke:#b0b0b0;stroke-dasharray:2.96,1.28;stroke-dashoffset:0;stroke-opacity:0.5;stroke-width:0.8;"/>
     </g>
     <g id="line2d_26">
      <g>
       <use style="stroke:#000000;stroke-width:0.8;" x="47.72" xlink:href="#m1343b354e9" y="46.81218"/>
      </g>
     </g>
     <g id="text_14">
      <!-- 0.7 -->
      <g transform="translate(24.816875 50.611399)scale(0.1 -0.1)">
       <defs>
        <path d="M 525 4666 
L 3525 4666 
L 3525 4397 
L 1831 0 
L 1172 0 
L 2766 4134 
L 525 4134 
L 525 4666 
z
" id="DejaVuSans-37" transform="scale(0.015625)"/>
       </defs>
       <use xlink:href="#DejaVuSans-30"/>
       <use x="63.623047" xlink:href="#DejaVuSans-2e"/>
       <use x="95.410156" xlink:href="#DejaVuSans-37"/>
      </g>
     </g>
    </g>
    <g id="text_15">
     <!-- Percentage of Population Below 150-pct FPL -->
     <g transform="translate(18.737188 318.56625)rotate(-90)scale(0.1 -0.1)">
      <defs>
       <path d="M 1159 525 
L 1159 -1331 
L 581 -1331 
L 581 3500 
L 1159 3500 
L 1159 2969 
Q 1341 3281 1617 3432 
Q 1894 3584 2278 3584 
Q 2916 3584 3314 3078 
Q 3713 2572 3713 1747 
Q 3713 922 3314 415 
Q 2916 -91 2278 -91 
Q 1894 -91 1617 61 
Q 1341 213 1159 525 
z
M 3116 1747 
Q 3116 2381 2855 2742 
Q 2594 3103 2138 3103 
Q 1681 3103 1420 2742 
Q 1159 2381 1159 1747 
Q 1159 1113 1420 752 
Q 1681 391 2138 391 
Q 2594 391 2855 752 
Q 3116 1113 3116 1747 
z
" id="DejaVuSans-70" transform="scale(0.015625)"/>
       <path d="M 603 3500 
L 1178 3500 
L 1178 0 
L 603 0 
L 603 3500 
z
M 603 4863 
L 1178 4863 
L 1178 4134 
L 603 4134 
L 603 4863 
z
" id="DejaVuSans-69" transform="scale(0.015625)"/>
       <path d="M 1259 2228 
L 1259 519 
L 2272 519 
Q 2781 519 3026 730 
Q 3272 941 3272 1375 
Q 3272 1813 3026 2020 
Q 2781 2228 2272 2228 
L 1259 2228 
z
M 1259 4147 
L 1259 2741 
L 2194 2741 
Q 2656 2741 2882 2914 
Q 3109 3088 3109 3444 
Q 3109 3797 2882 3972 
Q 2656 4147 2194 4147 
L 1259 4147 
z
M 628 4666 
L 2241 4666 
Q 2963 4666 3353 4366 
Q 3744 4066 3744 3513 
Q 3744 3084 3544 2831 
Q 3344 2578 2956 2516 
Q 3422 2416 3680 2098 
Q 3938 1781 3938 1306 
Q 3938 681 3513 340 
Q 3088 0 2303 0 
L 628 0 
L 628 4666 
z
" id="DejaVuSans-42" transform="scale(0.015625)"/>
       <path d="M 269 3500 
L 844 3500 
L 1563 769 
L 2278 3500 
L 2956 3500 
L 3675 769 
L 4391 3500 
L 4966 3500 
L 4050 0 
L 3372 0 
L 2619 2869 
L 1863 0 
L 1184 0 
L 269 3500 
z
" id="DejaVuSans-77" transform="scale(0.015625)"/>
       <path d="M 628 4666 
L 3309 4666 
L 3309 4134 
L 1259 4134 
L 1259 2759 
L 3109 2759 
L 3109 2228 
L 1259 2228 
L 1259 0 
L 628 0 
L 628 4666 
z
" id="DejaVuSans-46" transform="scale(0.015625)"/>
       <path d="M 628 4666 
L 1259 4666 
L 1259 531 
L 3531 531 
L 3531 0 
L 628 0 
L 628 4666 
z
" id="DejaVuSans-4c" transform="scale(0.015625)"/>
      </defs>
      <use xlink:href="#DejaVuSans-50"/>
      <use x="56.677734" xlink:href="#DejaVuSans-65"/>
      <use x="118.201172" xlink:href="#DejaVuSans-72"/>
      <use x="157.064453" xlink:href="#DejaVuSans-63"/>
      <use x="212.044922" xlink:href="#DejaVuSans-65"/>
      <use x="273.568359" xlink:href="#DejaVuSans-6e"/>
      <use x="336.947266" xlink:href="#DejaVuSans-74"/>
      <use x="376.15625" xlink:href="#DejaVuSans-61"/>
      <use x="437.435547" xlink:href="#DejaVuSans-67"/>
      <use x="500.912109" xlink:href="#DejaVuSans-65"/>
      <use x="562.435547" xlink:href="#DejaVuSans-20"/>
      <use x="594.222656" xlink:href="#DejaVuSans-6f"/>
      <use x="655.404297" xlink:href="#DejaVuSans-66"/>
      <use x="690.609375" xlink:href="#DejaVuSans-20"/>
      <use x="722.396484" xlink:href="#DejaVuSans-50"/>
      <use x="779.074219" xlink:href="#DejaVuSans-6f"/>
      <use x="840.255859" xlink:href="#DejaVuSans-70"/>
      <use x="903.732422" xlink:href="#DejaVuSans-75"/>
      <use x="967.111328" xlink:href="#DejaVuSans-6c"/>
      <use x="994.894531" xlink:href="#DejaVuSans-61"/>
      <use x="1056.173828" xlink:href="#DejaVuSans-74"/>
      <use x="1095.382812" xlink:href="#DejaVuSans-69"/>
      <use x="1123.166016" xlink:href="#DejaVuSans-6f"/>
      <use x="1184.347656" xlink:href="#DejaVuSans-6e"/>
      <use x="1247.726562" xlink:href="#DejaVuSans-20"/>
      <use x="1279.513672" xlink:href="#DejaVuSans-42"/>
      <use x="1348.117188" xlink:href="#DejaVuSans-65"/>
      <use x="1409.640625" xlink:href="#DejaVuSans-6c"/>
      <use x="1437.423828" xlink:href="#DejaVuSans-6f"/>
      <use x="1498.605469" xlink:href="#DejaVuSans-77"/>
      <use x="1580.392578" xlink:href="#DejaVuSans-20"/>
      <use x="1612.179688" xlink:href="#DejaVuSans-31"/>
      <use x="1675.802734" xlink:href="#DejaVuSans-35"/>
      <use x="1739.425781" xlink:href="#DejaVuSans-30"/>
      <use x="1803.048828" xlink:href="#DejaVuSans-2d"/>
      <use x="1839.132812" xlink:href="#DejaVuSans-70"/>
      <use x="1902.609375" xlink:href="#DejaVuSans-63"/>
      <use x="1957.589844" xlink:href="#DejaVuSans-74"/>
      <use x="1996.798828" xlink:href="#DejaVuSans-20"/>
      <use x="2028.585938" xlink:href="#DejaVuSans-46"/>
      <use x="2086.105469" xlink:href="#DejaVuSans-50"/>
      <use x="2146.408203" xlink:href="#DejaVuSans-4c"/>
     </g>
    </g>
   </g>
   <g id="line2d_27">
    <path clip-path="url(#p540b73f40a)" d="M 64.696364 335.540319 
L 68.125932 333.028977 
L 71.5555 330.517635 
L 74.985069 328.006293 
L 78.414637 325.494951 
L 81.844206 322.983608 
L 85.273774 320.472266 
L 88.703343 317.960924 
L 92.132911 315.449582 
L 95.562479 312.93824 
L 98.992048 310.426898 
L 102.421616 307.915556 
L 105.851185 305.404214 
L 109.280753 302.892872 
L 112.710321 300.38153 
L 116.13989 297.870188 
L 119.569458 295.358846 
L 122.999027 292.847503 
L 126.428595 290.336161 
L 129.858163 287.824819 
L 133.287732 285.313477 
L 136.7173 282.802135 
L 140.146869 280.290793 
L 143.576437 277.779451 
L 147.006006 275.268109 
L 150.435574 272.756767 
L 153.865142 270.245425 
L 157.294711 267.734083 
L 160.724279 265.222741 
L 164.153848 262.711399 
L 167.583416 260.200056 
L 171.012984 257.688714 
L 174.442553 255.177372 
L 177.872121 252.66603 
L 181.30169 250.154688 
L 184.731258 247.643346 
L 188.160826 245.132004 
L 191.590395 242.620662 
L 195.019963 240.10932 
L 198.449532 237.597978 
L 201.8791 235.086636 
L 205.308669 232.575294 
L 208.738237 230.063951 
L 212.167805 227.552609 
L 215.597374 225.041267 
L 219.026942 222.529925 
L 222.456511 220.018583 
L 225.886079 217.507241 
L 229.315647 214.995899 
L 232.745216 212.484557 
L 236.174784 209.973215 
L 239.604353 207.461873 
L 243.033921 204.950531 
L 246.463489 202.439189 
L 249.893058 199.927846 
L 253.322626 197.416504 
L 256.752195 194.905162 
L 260.181763 192.39382 
L 263.611331 189.882478 
L 267.0409 187.371136 
L 270.470468 184.859794 
L 273.900037 182.348452 
L 277.329605 179.83711 
L 280.759174 177.325768 
L 284.188742 174.814426 
L 287.61831 172.303084 
L 291.047879 169.791741 
L 294.477447 167.280399 
L 297.907016 164.769057 
L 301.336584 162.257715 
L 304.766152 159.746373 
L 308.195721 157.235031 
L 311.625289 154.723689 
L 315.054858 152.212347 
L 318.484426 149.701005 
L 321.913994 147.189663 
L 325.343563 144.678321 
L 328.773131 142.166979 
L 332.2027 139.655637 
L 335.632268 137.144294 
L 339.061837 134.632952 
L 342.491405 132.12161 
L 345.920973 129.610268 
L 349.350542 127.098926 
L 352.78011 124.587584 
L 356.209679 122.076242 
L 359.639247 119.5649 
L 363.068815 117.053558 
L 366.498384 114.542216 
L 369.927952 112.030874 
L 373.357521 109.519532 
L 376.787089 107.008189 
L 380.216657 104.496847 
L 383.646226 101.985505 
L 387.075794 99.474163 
L 390.505363 96.962821 
L 393.934931 94.451479 
L 397.3645 91.940137 
L 400.794068 89.428795 
L 404.223636 86.917453 
" style="fill:none;stroke:#1f77b4;stroke-linecap:square;stroke-width:2.25;"/>
   </g>
   <g id="patch_3">
    <path d="M 47.72 390.04 
L 47.72 26.88 
" style="fill:none;stroke:#000000;stroke-linecap:square;stroke-linejoin:miter;stroke-width:0.8;"/>
   </g>
   <g id="patch_4">
    <path d="M 421.2 390.04 
L 421.2 26.88 
" style="fill:none;stroke:#000000;stroke-linecap:square;stroke-linejoin:miter;stroke-width:0.8;"/>
   </g>
   <g id="patch_5">
    <path d="M 47.72 390.04 
L 421.2 390.04 
" style="fill:none;stroke:#000000;stroke-linecap:square;stroke-linejoin:miter;stroke-width:0.8;"/>
   </g>
   <g id="patch_6">
    <path d="M 47.72 26.88 
L 421.2 26.88 
" style="fill:none;stroke:#000000;stroke-linecap:square;stroke-linejoin:miter;stroke-width:0.8;"/>
   </g>
   <g id="text_16">
    <!-- PCC: 0.75 -->
    <g transform="translate(66.394 45.038)scale(0.1 -0.1)">
     <defs>
      <path d="M 750 794 
L 1409 794 
L 1409 0 
L 750 0 
L 750 794 
z
M 750 3309 
L 1409 3309 
L 1409 2516 
L 750 2516 
L 750 3309 
z
" id="DejaVuSans-3a" transform="scale(0.015625)"/>
     </defs>
     <use xlink:href="#DejaVuSans-50"/>
     <use x="60.302734" xlink:href="#DejaVuSans-43"/>
     <use x="130.126953" xlink:href="#DejaVuSans-43"/>
     <use x="199.951172" xlink:href="#DejaVuSans-3a"/>
     <use x="233.642578" xlink:href="#DejaVuSans-20"/>
     <use x="265.429688" xlink:href="#DejaVuSans-30"/>
     <use x="329.052734" xlink:href="#DejaVuSans-2e"/>
     <use x="360.839844" xlink:href="#DejaVuSans-37"/>
     <use x="424.462891" xlink:href="#DejaVuSans-35"/>
    </g>
   </g>
   <g id="text_17">
    <!-- Zero-Car Households and Poverty, St. Louis City Census Tracts -->
    <g transform="translate(47.260937 20.88)scale(0.12 -0.12)">
     <defs>
      <path d="M 191 3500 
L 800 3500 
L 1894 563 
L 2988 3500 
L 3597 3500 
L 2284 0 
L 1503 0 
L 191 3500 
z
" id="DejaVuSans-76" transform="scale(0.015625)"/>
      <path d="M 2059 -325 
Q 1816 -950 1584 -1140 
Q 1353 -1331 966 -1331 
L 506 -1331 
L 506 -850 
L 844 -850 
Q 1081 -850 1212 -737 
Q 1344 -625 1503 -206 
L 1606 56 
L 191 3500 
L 800 3500 
L 1894 763 
L 2988 3500 
L 3597 3500 
L 2059 -325 
z
" id="DejaVuSans-79" transform="scale(0.015625)"/>
      <path d="M 750 794 
L 1409 794 
L 1409 256 
L 897 -744 
L 494 -744 
L 750 256 
L 750 794 
z
" id="DejaVuSans-2c" transform="scale(0.015625)"/>
      <path d="M 3425 4513 
L 3425 3897 
Q 3066 4069 2747 4153 
Q 2428 4238 2131 4238 
Q 1616 4238 1336 4038 
Q 1056 3838 1056 3469 
Q 1056 3159 1242 3001 
Q 1428 2844 1947 2747 
L 2328 2669 
Q 3034 2534 3370 2195 
Q 3706 1856 3706 1288 
Q 3706 609 3251 259 
Q 2797 -91 1919 -91 
Q 1588 -91 1214 -16 
Q 841 59 441 206 
L 441 856 
Q 825 641 1194 531 
Q 1563 422 1919 422 
Q 2459 422 2753 634 
Q 3047 847 3047 1241 
Q 3047 1584 2836 1778 
Q 2625 1972 2144 2069 
L 1759 2144 
Q 1053 2284 737 2584 
Q 422 2884 422 3419 
Q 422 4038 858 4394 
Q 1294 4750 2059 4750 
Q 2388 4750 2728 4690 
Q 3069 4631 3425 4513 
z
" id="DejaVuSans-53" transform="scale(0.015625)"/>
      <path d="M -19 4666 
L 3928 4666 
L 3928 4134 
L 2272 4134 
L 2272 0 
L 1638 0 
L 1638 4134 
L -19 4134 
L -19 4666 
z
" id="DejaVuSans-54" transform="scale(0.015625)"/>
     </defs>
     <use xlink:href="#DejaVuSans-5a"/>
     <use x="68.505859" xlink:href="#DejaVuSans-65"/>
     <use x="130.029297" xlink:href="#DejaVuSans-72"/>
     <use x="168.892578" xlink:href="#DejaVuSans-6f"/>
     <use x="231.949219" xlink:href="#DejaVuSans-2d"/>
     <use x="268.033203" xlink:href="#DejaVuSans-43"/>
     <use x="337.857422" xlink:href="#DejaVuSans-61"/>
     <use x="399.136719" xlink:href="#DejaVuSans-72"/>
     <use x="440.25" xlink:href="#DejaVuSans-20"/>
     <use x="472.037109" xlink:href="#DejaVuSans-48"/>
     <use x="547.232422" xlink:href="#DejaVuSans-6f"/>
     <use x="608.414062" xlink:href="#DejaVuSans-75"/>
     <use x="671.792969" xlink:href="#DejaVuSans-73"/>
     <use x="723.892578" xlink:href="#DejaVuSans-65"/>
     <use x="785.416016" xlink:href="#DejaVuSans-68"/>
     <use x="848.794922" xlink:href="#DejaVuSans-6f"/>
     <use x="909.976562" xlink:href="#DejaVuSans-6c"/>
     <use x="937.759766" xlink:href="#DejaVuSans-64"/>
     <use x="1001.236328" xlink:href="#DejaVuSans-73"/>
     <use x="1053.335938" xlink:href="#DejaVuSans-20"/>
     <use x="1085.123047" xlink:href="#DejaVuSans-61"/>
     <use x="1146.402344" xlink:href="#DejaVuSans-6e"/>
     <use x="1209.78125" xlink:href="#DejaVuSans-64"/>
     <use x="1273.257812" xlink:href="#DejaVuSans-20"/>
     <use x="1305.044922" xlink:href="#DejaVuSans-50"/>
     <use x="1361.722656" xlink:href="#DejaVuSans-6f"/>
     <use x="1422.904297" xlink:href="#DejaVuSans-76"/>
     <use x="1482.083984" xlink:href="#DejaVuSans-65"/>
     <use x="1543.607422" xlink:href="#DejaVuSans-72"/>
     <use x="1584.720703" xlink:href="#DejaVuSans-74"/>
     <use x="1623.929688" xlink:href="#DejaVuSans-79"/>
     <use x="1683.109375" xlink:href="#DejaVuSans-2c"/>
     <use x="1714.896484" xlink:href="#DejaVuSans-20"/>
     <use x="1746.683594" xlink:href="#DejaVuSans-53"/>
     <use x="1810.160156" xlink:href="#DejaVuSans-74"/>
     <use x="1849.369141" xlink:href="#DejaVuSans-2e"/>
     <use x="1881.15625" xlink:href="#DejaVuSans-20"/>
     <use x="1912.943359" xlink:href="#DejaVuSans-4c"/>
     <use x="1966.90625" xlink:href="#DejaVuSans-6f"/>
     <use x="2028.087891" xlink:href="#DejaVuSans-75"/>
     <use x="2091.466797" xlink:href="#DejaVuSans-69"/>
     <use x="2119.25" xlink:href="#DejaVuSans-73"/>
     <use x="2171.349609" xlink:href="#DejaVuSans-20"/>
     <use x="2203.136719" xlink:href="#DejaVuSans-43"/>
     <use x="2272.960938" xlink:href="#DejaVuSans-69"/>
     <use x="2300.744141" xlink:href="#DejaVuSans-74"/>
     <use x="2339.953125" xlink:href="#DejaVuSans-79"/>
     <use x="2399.132812" xlink:href="#DejaVuSans-20"/>
     <use x="2430.919922" xlink:href="#DejaVuSans-43"/>
     <use x="2500.744141" xlink:href="#DejaVuSans-65"/>
     <use x="2562.267578" xlink:href="#DejaVuSans-6e"/>
     <use x="2625.646484" xlink:href="#DejaVuSans-73"/>
     <use x="2677.746094" xlink:href="#DejaVuSans-75"/>
     <use x="2741.125" xlink:href="#DejaVuSans-73"/>
     <use x="2793.224609" xlink:href="#DejaVuSans-20"/>
     <use x="2825.011719" xlink:href="#DejaVuSans-54"/>
     <use x="2871.345703" xlink:href="#DejaVuSans-72"/>
     <use x="2912.458984" xlink:href="#DejaVuSans-61"/>
     <use x="2973.738281" xlink:href="#DejaVuSans-63"/>
     <use x="3028.71875" xlink:href="#DejaVuSans-74"/>
     <use x="3067.927734" xlink:href="#DejaVuSans-73"/>
    </g>
   </g>
  </g>
 </g>
 <defs>
  <clipPath id="p540b73f40a">
   <rect height="363.16" width="373.48" x="47.72" y="26.88"/>
  </clipPath>
 </defs>
</svg>
